<svg width="210" height="195" viewBox="0 0 210 195" fill="none" xmlns="http://www.w3.org/2000/svg">
<path d="M180 4C180.5 3.99692 178 0 180 4ZM180 4C185.5 4.5 181 4 180 4ZM180 4C201.794 13.0991 196.226 44.7717 204.452 77.0305C210.802 101.933 209.17 128.078 195.123 146.711C180.477 166.14 159.696 176.143 140.622 181.894C114.635 189.728 61.5829 186.491 61.5829 186.491H3.38564" stroke="black" stroke-width="4" stroke-linecap="round" stroke-linejoin="round"/>
<path d="M2.00003 187C5.84302 188.362 9.51301 189.896 13.6361 191.039C15.0643 191.434 17.5972 192.862 18.9253 192.862" stroke="black" stroke-width="4" stroke-linecap="round" stroke-linejoin="round"/>
<path d="M2.00004 185.344C6.47946 185.285 8.34302 184 13.343 183C15.0807 182.328 16.958 181.881 19.343 181" stroke="black" stroke-width="4" stroke-linecap="round" stroke-linejoin="round"/>
</svg>
