<svg width="171" height="39" viewBox="0 0 171 39" fill="none" xmlns="http://www.w3.org/2000/svg">
<mask id="mask0_1159_1649" style="mask-type:luminance" maskUnits="userSpaceOnUse" x="0" y="0" width="171" height="39">
<path d="M170.5 39H0V0H170.5V39Z" fill="white"/>
</mask>
<g mask="url(#mask0_1159_1649)">
<path d="M30.2451 33.477L53.6141 35.4794L62.3131 34.7488L64.874 37.2221L71.2485 36.7996L82.3832 37.8118L114.409 36.7996L126.309 35.6422L131.25 36.5531L141.299 34.41L147.131 36.3595L153.756 36.7996C153.756 36.7996 158.461 35.8138 161.091 35.8402C163.034 35.8928 164.926 36.0647 166.659 36.3463C159.003 36.5708 157.166 38.3883 157.166 38.3883L144.333 37.3849L140.575 36.2011L130.833 38.1198L125.989 37.2089L115.774 38.2167L102.454 38.5203L82.1189 39L70.2883 38.0142L62.3966 38.1198L59.8495 36.0999L54.4212 36.7996L30.2451 35.0657L22.6596 36.3595L16.5912 35.8314L9.89648 34.9909H22.2699L30.2451 33.477Z" fill="#1F1F1F"/>
<path d="M13.4034 6.0027L10.1326 6.96204L5.9849 11.2748L10.1326 13.8229L11.6497 15.4644L6.69473 17.5812L5.9849 19.9004L4.38429 21.4407L8.89384 23.2582L7.97522 24.266L4.38429 25.2254L6.30502 27.8483L15.8669 30.3216L13.4034 31.9851L13.2224 33.9038L9.89596 34.9864L9.0191 31.9851L11.4966 30.3216L1.92073 27.8483L0 25.2254L3.59094 24.266L4.50955 23.2582L0 21.4407L1.60061 19.9004L2.31045 17.5812L7.26539 15.4644L5.74828 13.8229L1.60061 11.2748L5.74828 6.96204L9.0191 6.0027L6.06841 4.3392L9.40882 2.39404L10.4527 4.3392L13.4034 6.0027Z" fill="#1F1F1F"/>
<path d="M160.534 15.086L162.845 18.9675L169.066 21.7708L165.086 24.3409L168.593 25.1506V26.9682L165.879 29.085L168.593 30.8497L166.589 36.3771L163.318 34.2075L164.515 31.2546L161.328 28.9089L164.807 26.8142V25.7536L160.687 25.2519L164.473 22.1229L159.574 19.676L155.899 15.3104L166.519 8.0975L166.436 5.29418L170.5 8.02269L160.534 15.086Z" fill="#151515"/>
<path d="M147.451 7.16456L141.787 7.3626L135.315 4.9686L129.33 5.59791L122.37 4.31288C121.251 5.06189 119.85 5.76559 118.195 6.40766C115.314 7.51662 107.895 7.61784 107.895 7.61784L100.156 5.19304L97.3728 3.40191L89.9543 3.63075L81.7424 1.31152L73.1966 2.57016L59.2782 2.19169L52.9732 1.43475L44.6222 3.30509L36.2711 2.21809L26.6953 2.39412L19.2768 4.00922L9.40869 2.39412L18.9845 2.62296L25.1364 1.08268L37.0227 0.955058L43.7175 1.66359L52.5 7.93365e-05L59.4591 0.955058L73.2522 1.25871L82.3548 7.93365e-05L91.5271 2.31931L99.5023 2.19169L102.286 4.03563L108.828 6.23603C108.828 6.23603 115.369 5.60671 117.443 4.4185C118.372 3.77818 120.063 3.28 122.148 3.03224L129.01 4.16765L136.122 3.58674L143.081 6.13481L147.632 5.91037L156.971 6.96652L166.464 5.27666V5.43948L157.208 8.58162L147.451 7.16456Z" fill="#1F1F1F"/>
<path d="M155.886 15.3104L159.56 19.676L164.473 22.1228L160.674 25.2518L164.849 25.7535V26.8141L161.383 28.9089L164.571 31.2545L163.374 34.2075L166.589 36.3595C164.856 36.0778 162.965 35.9059 161.022 35.8534C158.391 35.827 153.687 36.8127 153.687 36.8127L147.061 36.3727L141.23 34.4055L131.25 36.5531L126.309 35.6465L114.409 36.7995L82.3972 37.8117L71.2625 36.7995L64.8879 37.2044L62.313 34.7356L53.614 35.4793L30.2451 33.4769L22.2699 34.9908H9.89644L13.2229 33.9038L13.4039 31.985L15.8674 30.3215L6.3055 27.8483L4.38477 25.2078L7.9757 24.2484L8.89432 23.2406L4.38477 21.4407L5.98538 19.9048L6.69521 17.5812L11.6502 15.4644L10.1331 13.8229L5.98538 11.2748L10.1609 6.96202L13.4039 5.99393L10.4532 4.33923L9.4093 2.39407L19.3888 4.00917L26.8073 2.39407L36.3831 2.21804L44.7341 3.30504L53.0851 1.43469L59.3901 2.19163L73.3085 2.5701L81.8544 1.31147L90.0662 3.6307L97.4847 3.40186L100.268 5.19299L108.007 7.61775C108.007 7.61775 115.426 7.51653 118.307 6.40761C119.961 5.76509 121.364 5.06185 122.482 4.31283L129.441 5.59786L135.426 4.96854L141.898 7.3625L147.562 7.16446L157.305 8.59913L166.561 5.45703L166.645 8.09743L155.886 15.3104Z" fill="#F3F3F3"/>
<path fill-rule="evenodd" clip-rule="evenodd" d="M56.3875 22.061C55.3001 22.3595 54.5761 23.517 54.6472 24.8247C54.6898 25.5141 54.8746 25.9689 55.2939 26.3873C55.4431 26.5365 55.5568 26.6716 55.5426 26.6787C54.5263 27.297 54.0937 28.0494 54.0155 29.3215C53.98 29.8546 54.0013 30.0535 54.1221 30.4586C54.314 31.084 54.6978 31.5815 55.2024 31.8649C55.5577 32.0639 55.6501 32.0852 56.1973 32.0852C56.6735 32.0852 56.8583 32.0497 57.0857 31.9289C57.8035 31.5451 58.4351 30.742 58.2583 30.4231C58.1375 30.1886 58.0238 30.2454 57.6258 30.7003C56.8085 31.6384 55.9637 31.7876 55.2388 31.1196C55.0754 30.9632 54.8621 30.6718 54.7698 30.4657C54.4642 29.7622 54.5992 28.5691 55.0682 27.8868C55.2815 27.567 55.8358 27.162 56.1272 27.1051C56.4754 27.034 56.6602 26.899 56.6602 26.7213C56.6602 26.5792 56.5749 26.501 56.2124 26.3091C55.4591 25.9111 55.1606 25.3355 55.2246 24.4267C55.2814 23.5383 55.8287 22.793 56.5598 22.6011C57.2278 22.4164 57.7253 22.8357 58.0513 23.8306C58.2148 24.3423 58.2574 24.4134 58.4067 24.4134C58.5559 24.4134 58.5773 24.3778 58.5986 24.0225C58.627 23.5961 58.5062 23.2265 58.1935 22.7299C57.8168 22.133 57.0848 21.87 56.3892 22.0619L56.3875 22.061Z" fill="black"/>
<path fill-rule="evenodd" clip-rule="evenodd" d="M75.7393 22.5576C75.455 22.8987 74.7941 28.689 75.0144 28.9511C75.1352 29.0932 75.2631 29.0293 75.391 28.7592C75.5474 28.4323 75.5758 28.2759 75.7322 26.6138C75.8175 25.7894 75.9596 24.5679 76.0591 23.8928C76.1586 23.2176 76.2225 22.6216 76.2012 22.5647C76.1515 22.4297 75.8459 22.4226 75.7393 22.5576Z" fill="black"/>
<path fill-rule="evenodd" clip-rule="evenodd" d="M64.0744 25.8046C64.0175 25.9183 64.0175 26.0036 64.0744 26.1315C64.1383 26.2736 64.1952 26.302 64.3871 26.2807C64.579 26.2665 64.6216 26.2239 64.6358 26.0604C64.65 25.9467 64.6216 25.8117 64.5719 25.7548C64.451 25.6056 64.1668 25.634 64.0744 25.8046Z" fill="black"/>
<path fill-rule="evenodd" clip-rule="evenodd" d="M59.7613 27.2401C59.7116 27.297 59.6903 28.0503 59.6974 29.485C59.7116 31.4456 59.7258 31.6517 59.8324 31.7228C60.0669 31.8649 60.1593 31.6446 60.2446 30.7775C60.3725 29.4992 60.7634 28.4545 61.2893 27.9997C61.5736 27.7438 61.6304 27.7367 61.7655 27.9428C61.9502 28.2342 61.9645 28.7743 61.8152 29.9389C61.6304 31.3523 61.6233 31.594 61.801 31.6863C62.0497 31.8214 62.1706 31.6366 62.2416 30.9757C62.2772 30.6487 62.3411 30.1868 62.3767 29.9523C62.4193 29.7177 62.4477 29.2061 62.4477 28.8152C62.4406 27.7491 62.1848 27.2881 61.5807 27.2881C61.2396 27.2881 60.8203 27.6434 60.5004 28.212L60.2801 28.6029L60.2588 28.0343C60.2375 27.2526 60.2091 27.146 60.003 27.146C59.9106 27.146 59.804 27.1886 59.7613 27.2383V27.2401Z" fill="black"/>
<path fill-rule="evenodd" clip-rule="evenodd" d="M66.8523 27.3885C66.17 27.8789 65.8858 28.5896 65.9426 29.7044C65.9924 30.7705 66.4259 31.4092 67.101 31.4092C67.9041 31.4092 68.5713 30.3716 68.5855 29.0933C68.5926 28.4678 68.5997 28.4536 68.8058 28.3115C69.0332 28.1623 69.2606 27.8211 69.1753 27.7429C69.154 27.7145 68.9693 27.7643 68.7703 27.8424L68.4149 27.9917L68.3083 27.7856C68.2515 27.679 68.088 27.4871 67.9388 27.3663C67.5834 27.0749 67.2778 27.0749 66.8514 27.3876L66.8523 27.3885ZM67.6412 27.8362C67.7335 27.9499 67.7264 27.957 67.6198 27.8647C67.499 27.7723 67.4635 27.7154 67.5203 27.7154C67.5346 27.7154 67.5914 27.7723 67.6412 27.8362ZM67.7335 28.5043L68.0747 28.5895L68.0462 29.1652C68.0107 29.7977 67.833 30.2668 67.4848 30.6354C67.1934 30.9481 66.9447 30.9055 66.7102 30.4862C66.5538 30.2019 66.5325 30.0811 66.5325 29.4557C66.5325 28.8303 66.5538 28.7024 66.7315 28.3399L66.9305 27.9277L67.165 28.1694C67.3142 28.3328 67.5061 28.4465 67.7335 28.5034V28.5043Z" fill="black"/>
<path fill-rule="evenodd" clip-rule="evenodd" d="M64.181 27.3174C64.0531 27.4169 64.0459 27.5093 64.0673 29.7186C64.0957 32.6458 64.0033 33.2356 63.4419 33.7109C63.0155 34.0663 62.7454 34.0307 62.4398 33.5759C62.2124 33.2419 62.0631 33.2774 62.0347 33.6683C62.0134 33.9383 62.0418 34.0023 62.255 34.2155C62.5038 34.4642 62.653 34.5069 63.1221 34.4713C63.584 34.4287 64.0744 34.0094 64.3373 33.4337C64.6216 32.8083 64.6785 32.0772 64.6287 29.6476C64.579 27.1824 64.5576 27.0474 64.181 27.3174Z" fill="black"/>
<path fill-rule="evenodd" clip-rule="evenodd" d="M69.9773 27.3174C69.7641 27.5804 69.7144 29.5481 69.9062 30.2161C69.9489 30.3583 70.0697 30.5715 70.1834 30.6923C70.354 30.8771 70.4393 30.9126 70.7235 30.9126C71.1215 30.9126 71.2708 30.8415 71.6616 30.472L71.953 30.1806L71.9175 30.6354C71.818 31.9991 71.5408 32.9514 71.1286 33.4133C70.5245 34.0814 69.8991 34.06 69.6797 33.3636C69.566 33.0224 69.367 32.9798 69.2036 33.2641C69.1112 33.4346 69.1112 33.4844 69.2249 33.7829C69.63 34.8489 71.1499 34.6428 71.8677 33.4346C72.2941 32.7097 72.4221 31.9218 72.5358 29.3642C72.6282 27.3965 72.6211 27.2899 72.3155 27.2899C72.1236 27.2899 72.0951 27.3752 72.0383 28.2209C71.9885 28.8392 71.9388 29.0666 71.7896 29.3651C71.5195 29.9123 71.2708 30.2037 70.9936 30.3174C70.7022 30.4382 70.6382 30.4098 70.4961 30.0758C70.4108 29.8697 70.3966 29.557 70.4108 28.5345L70.4393 27.2561L70.2545 27.2348C70.155 27.2206 70.0342 27.2632 69.9773 27.3201V27.3174Z" fill="black"/>
<path fill-rule="evenodd" clip-rule="evenodd" d="M12.5049 18.1501C12.2948 18.3246 12.2931 18.4312 12.5393 19.8397C12.9467 22.1786 13.2416 23.0953 14.041 24.5775C14.4621 25.3646 14.5242 25.5399 14.58 26.2113C14.7032 27.6166 15.164 28.4529 16.178 29.0943C16.5575 29.3272 16.7786 29.3935 17.4877 29.4899L18.3347 29.6091L18.7317 30.2871C19.5124 31.5983 20.3453 32.391 21.4606 32.8922C22.0064 33.1326 22.3141 33.2074 23.1282 33.2971C24.2987 33.4221 24.821 33.3671 25.8564 32.9902C27.1745 32.5084 28.3041 31.3602 28.2913 30.5158L28.2873 30.2051L28.6286 30.2923C30.0726 30.657 31.7715 30.7547 33.6469 30.5678C34.6287 30.4696 34.8903 30.3978 34.9059 30.2402C34.9128 30.1703 34.3497 30.1055 32.846 29.9918C30.9932 29.8616 29.4903 29.6503 28.6298 29.4059L28.3575 29.3255L28.5274 28.9344C28.9652 27.8768 28.6054 26.7322 27.4528 25.5442C26.6428 24.7005 25.7838 24.2698 24.332 23.9749C22.9925 23.7002 22.8589 23.6336 22.6186 23.1485C22.5095 22.9251 22.2403 22.5429 22.0287 22.2913C21.3372 21.4946 20.5872 21.1896 19.0056 21.0691L17.9112 20.9788L16.3036 19.9674C14.3837 18.7478 13.1798 18.0776 12.8766 18.0476C12.7554 18.0356 12.584 18.081 12.5073 18.153L12.5049 18.1501ZM15.4265 20.1347L17.6658 21.5814L18.9238 21.706C20.0067 21.8223 20.2649 21.8741 20.6824 22.0756C21.3254 22.3971 21.6273 22.702 22.0217 23.4069C22.2079 23.7356 22.4646 24.0632 22.6372 24.178C22.8017 24.2829 23.3704 24.4722 23.953 24.6014C25.725 25.0166 26.4079 25.3774 27.2146 26.3357C27.9522 27.1985 28.0977 27.5856 28.0513 28.4955L28.0215 29.238L27.6458 29.1383C26.7748 28.91 24.6167 28.0576 23.5474 27.5338C21.4183 26.4798 19.186 24.9623 15.7762 22.2463C15.2081 21.7902 14.6922 21.4288 14.6479 21.4335C14.3696 21.5036 17.6765 24.5468 19.64 26.0377C21.6851 27.589 24.3919 29.0024 26.761 29.7518C27.1351 29.8684 27.5251 29.9957 27.6356 30.0338C27.7718 30.0735 27.8161 30.1584 27.8005 30.3161C27.7082 31.2478 26.0615 32.3981 24.4611 32.6394C23.7753 32.7488 22.4405 32.6075 21.7904 32.3658C21.5109 32.2676 21.0943 32.0572 20.8634 31.9104C20.2865 31.5429 19.5064 30.5773 19.1685 29.8337C18.788 28.9882 18.681 28.9152 17.8138 28.8293C16.9465 28.7434 16.3265 28.4604 15.9112 27.966C15.519 27.5011 15.3565 27.0236 15.2499 26.0632C15.1648 25.3266 15.0965 25.1335 14.647 24.282C13.9831 23.0267 13.6617 22.1165 13.2763 20.3478C13.1098 19.5506 12.9523 18.8421 12.9327 18.7786C12.8696 18.5327 13.2686 18.7495 15.4265 20.1347Z" fill="black"/>
<path fill-rule="evenodd" clip-rule="evenodd" d="M123.154 14.2774C123.118 14.3835 123.069 14.6436 123.068 14.85C123.047 15.269 122.727 15.8576 122.068 16.6673C121.479 17.3877 120.796 17.9719 119.25 19.0719C116.249 21.2137 115.797 21.7931 115.437 23.9389C115.33 24.6121 115.175 25.3309 115.107 25.532L114.975 25.8964L113.695 26.4087C112.983 26.6944 111.883 27.1154 111.242 27.3393C110.603 27.5717 110.035 27.7974 109.97 27.8487C109.905 27.8991 109.888 28.0365 109.929 28.153C109.981 28.3034 110.084 28.361 110.361 28.3855C110.657 28.413 110.978 28.3293 112.399 27.8241C113.35 27.4826 114.524 27.0083 115.098 26.7231L116.105 26.222L117.301 26.4224C118.948 26.6991 119.872 26.676 120.811 26.3484C122.177 25.8717 123.027 25.0518 123.766 23.4935C124.157 22.6839 124.274 22.3055 124.369 21.5992C124.51 20.5214 124.479 19.2688 124.271 17.9847C123.968 16.032 123.605 14.1475 123.527 14.0815C123.41 13.9823 123.245 14.0673 123.152 14.278L123.154 14.2774ZM122.966 16.7286C122.766 18.3514 122.054 20.1999 121.217 21.2954C120.098 22.7435 118.182 24.291 116.279 25.2642L115.901 25.4522L116.027 24.9124C116.098 24.6158 116.186 24.0989 116.236 23.764C116.435 22.4037 117.043 21.6584 119.369 19.883C120.186 19.2613 121.065 18.5523 121.306 18.3185C121.792 17.859 122.731 16.6894 122.826 16.4312C122.955 16.0867 123.03 16.2475 122.967 16.7283L122.966 16.7286ZM123.579 17.8247C123.681 18.4622 123.648 18.5768 123.296 18.7845L123.033 18.9324L123.118 18.5938C123.159 18.4202 123.243 18.0268 123.298 17.7357C123.354 17.4445 123.414 17.2188 123.446 17.2349C123.469 17.2461 123.534 17.5133 123.579 17.8247ZM123.74 19.2369C123.818 19.9389 123.773 20.048 123.272 20.279C123.018 20.3956 122.716 20.5103 122.609 20.5202C122.427 20.5274 122.431 20.4887 122.669 19.9004C122.909 19.293 122.928 19.2675 123.317 19.1411C123.707 19.0146 123.718 19.0202 123.739 19.2372L123.74 19.2369ZM123.749 20.6649C123.76 20.698 123.743 20.9663 123.71 21.2677L123.647 21.8042L123.055 22.0109C122.438 22.2263 121.192 22.334 121.283 22.1707C121.309 22.1147 121.477 21.8791 121.655 21.6482C121.975 21.2179 122 21.2092 122.856 20.9106C123.333 20.7441 123.737 20.6309 123.749 20.6649ZM121.086 22.7447C121.38 22.8194 122.493 22.6752 123.011 22.4944C123.234 22.4168 123.423 22.3782 123.438 22.4199C123.487 22.5618 123.011 23.5232 122.863 23.5751C122.456 23.7073 121.408 23.7735 120.728 23.7021C120.313 23.6506 119.97 23.5928 119.961 23.5674C119.943 23.5172 120.673 22.7764 120.799 22.7135C120.828 22.6936 120.965 22.7118 121.086 22.7439L121.086 22.7447ZM120.22 24.1786C120.799 24.2484 121.408 24.2503 121.893 24.184C122.758 24.0691 122.755 24.0606 122.094 24.7595L121.82 25.0323L121.221 25.0354C120.559 25.0423 118.542 24.7918 118.513 24.7085C118.505 24.6839 118.672 24.5309 118.888 24.3812C119.093 24.2259 119.278 24.0956 119.292 24.0812C119.308 24.0754 119.72 24.1185 120.221 24.1783L120.22 24.1786ZM118.462 25.2509C118.763 25.3229 119.47 25.414 120.033 25.4416C120.936 25.4914 121.028 25.5158 120.839 25.6368C120.383 25.9456 119.315 26.0563 117.888 25.9648C117.427 25.939 116.955 25.9073 116.852 25.9049C116.711 25.8978 116.8 25.8105 117.232 25.5387C117.541 25.3377 117.822 25.1643 117.853 25.145C117.882 25.1251 118.159 25.178 118.462 25.2509Z" fill="black"/>
<path fill-rule="evenodd" clip-rule="evenodd" d="M106.323 27.2085C106.262 27.3512 106.161 28.8898 106.206 29.0021C106.241 29.0915 106.248 29.095 106.296 29.0503C106.376 28.9769 106.448 28.677 106.505 28.177C106.567 27.6242 106.559 27.2833 106.476 27.1927C106.397 27.1054 106.363 27.1078 106.323 27.2085Z" fill="black"/>
<path fill-rule="evenodd" clip-rule="evenodd" d="M102.446 27.6736C102.393 27.7641 102.474 27.9105 102.741 28.219C102.877 28.3734 103.107 28.6482 103.259 28.832C103.782 29.4648 104.021 29.6742 104.025 29.4972C104.029 29.3497 103.518 28.6385 102.961 28.011C102.607 27.6183 102.514 27.5569 102.446 27.6732L102.446 27.6736Z" fill="black"/>
<path fill-rule="evenodd" clip-rule="evenodd" d="M108.017 27.9497C107.959 28.1123 108.138 28.2677 108.296 28.1897C108.392 28.1462 108.4 27.9792 108.309 27.9277C108.199 27.8691 108.043 27.8815 108.017 27.9497Z" fill="black"/>
<path fill-rule="evenodd" clip-rule="evenodd" d="M104.676 27.9173C104.627 27.9718 104.645 28.0805 104.798 28.5825C104.892 28.8867 104.965 28.9836 105.028 28.8901C105.074 28.8224 105.073 28.5993 105.022 28.3389C104.956 27.9896 104.901 27.8734 104.803 27.8709C104.755 27.8697 104.701 27.8913 104.676 27.9169L104.676 27.9173Z" fill="black"/>
<path fill-rule="evenodd" clip-rule="evenodd" d="M107.724 28.5425C107.648 28.616 107.395 29.0819 107.393 29.147C107.391 29.2224 107.528 29.18 107.65 29.065C107.831 28.8958 107.955 28.6923 107.944 28.5838C107.933 28.4622 107.825 28.443 107.724 28.5421L107.724 28.5425Z" fill="black"/>
<path fill-rule="evenodd" clip-rule="evenodd" d="M109.38 29.5977C109.107 29.6531 108.177 30.0558 107.973 30.2109C107.914 30.2554 107.9 30.2845 107.927 30.3082C107.95 30.335 108.042 30.3242 108.257 30.2706C108.602 30.1843 109.536 29.844 109.627 29.7708C109.703 29.7072 109.704 29.6449 109.624 29.6002C109.575 29.5749 109.494 29.5739 109.38 29.5973L109.38 29.5977Z" fill="black"/>
<path fill-rule="evenodd" clip-rule="evenodd" d="M102.262 29.8431C102.141 29.9581 102.24 30.059 102.603 30.1962C102.852 30.2911 103.055 30.3126 103.057 30.2405C103.058 30.1749 102.892 30.0428 102.684 29.9358C102.456 29.8218 102.318 29.7921 102.262 29.8431Z" fill="black"/>
<path fill-rule="evenodd" clip-rule="evenodd" d="M102.355 31.1238C101.876 31.1608 101.304 31.2611 101.221 31.3246C101.113 31.4038 101.172 31.4972 101.341 31.5146C101.49 31.5315 102.392 31.4101 102.758 31.3243C103.031 31.2591 103.168 31.1839 103.095 31.1328C103.042 31.1019 102.743 31.0976 102.356 31.1238L102.355 31.1238Z" fill="black"/>
<path fill-rule="evenodd" clip-rule="evenodd" d="M109.821 31.3169C109.707 31.4223 109.834 31.6321 109.991 31.5968C110.079 31.5793 110.133 31.4757 110.112 31.3604C110.1 31.288 109.887 31.2563 109.821 31.3169Z" fill="black"/>
<path fill-rule="evenodd" clip-rule="evenodd" d="M108.545 31.3435C108.078 31.4104 108.416 31.5895 108.987 31.5811C109.296 31.5725 109.42 31.5166 109.351 31.4034C109.322 31.3567 109.258 31.3452 109.013 31.3357C108.847 31.3282 108.637 31.3327 108.545 31.3435Z" fill="black"/>
<path fill-rule="evenodd" clip-rule="evenodd" d="M103.142 32.4849C102.85 32.6087 102.17 32.9489 102.097 33.0094C102.021 33.0665 102.015 33.1549 102.082 33.2123C102.151 33.2698 102.309 33.2181 102.671 33.0108C103.328 32.6339 103.66 32.2623 103.142 32.4849L103.142 32.4849Z" fill="black"/>
<path fill-rule="evenodd" clip-rule="evenodd" d="M108.15 32.7238C108.148 32.7893 108.355 32.9618 108.748 33.2178C108.932 33.3406 109.205 33.5214 109.359 33.6171C109.706 33.8457 109.855 33.8593 109.809 33.6548C109.781 33.536 109.421 33.294 108.818 32.9839C108.239 32.6838 108.152 32.6488 108.15 32.7242L108.15 32.7238Z" fill="black"/>
<path fill-rule="evenodd" clip-rule="evenodd" d="M107.251 33.3929C107.249 33.4683 107.333 33.6279 107.5 33.865C107.612 34.0253 107.665 34.0758 107.729 34.0775C107.773 34.0786 107.821 34.0569 107.832 34.0309C107.875 33.9303 107.808 33.8007 107.586 33.5753C107.367 33.3533 107.254 33.2913 107.251 33.3929Z" fill="black"/>
<path fill-rule="evenodd" clip-rule="evenodd" d="M103.662 33.5112C103.354 33.7461 102.541 34.5187 102.539 34.5712C102.538 34.64 102.604 34.7007 102.682 34.7027C102.868 34.7074 104.033 33.478 103.937 33.3771C103.897 33.34 103.863 33.3556 103.662 33.5112Z" fill="black"/>
<path fill-rule="evenodd" clip-rule="evenodd" d="M105.001 33.9716C104.829 34.3346 104.791 34.6251 104.913 34.6282C104.981 34.63 105.082 34.5013 105.113 34.3808C105.155 34.1916 105.16 33.8375 105.117 33.8233C105.096 33.8162 105.044 33.8837 105.001 33.9712L105.001 33.9716Z" fill="black"/>
<path fill-rule="evenodd" clip-rule="evenodd" d="M106.233 33.9242C106.165 34.0799 106.507 35.7146 106.636 35.8589C106.708 35.9428 106.773 35.9346 106.823 35.8407C106.869 35.7468 106.767 35.2297 106.57 34.572C106.398 34.0067 106.288 33.7944 106.233 33.9242Z" fill="black"/>
<path fill-rule="evenodd" clip-rule="evenodd" d="M104.628 35.0047C104.549 35.1897 104.752 35.3556 104.901 35.2314C104.991 35.155 104.987 35.0434 104.887 34.9752C104.763 34.8934 104.671 34.9042 104.628 35.0047Z" fill="black"/>
<path fill-rule="evenodd" clip-rule="evenodd" d="M117.267 27.2085C117.206 27.3512 117.106 28.8898 117.15 29.0021C117.186 29.0915 117.192 29.095 117.241 29.0503C117.321 28.9769 117.393 28.677 117.45 28.177C117.511 27.6242 117.503 27.2833 117.42 27.1927C117.341 27.1054 117.307 27.1078 117.267 27.2085Z" fill="black"/>
<path fill-rule="evenodd" clip-rule="evenodd" d="M113.391 27.6736C113.338 27.7641 113.419 27.9105 113.686 28.219C113.821 28.3734 114.052 28.6482 114.203 28.832C114.727 29.4648 114.965 29.6742 114.97 29.4972C114.974 29.3497 114.462 28.6385 113.905 28.011C113.552 27.6183 113.458 27.5569 113.391 27.6732L113.391 27.6736Z" fill="black"/>
<path fill-rule="evenodd" clip-rule="evenodd" d="M118.962 27.9497C118.903 28.1123 119.082 28.2677 119.241 28.1897C119.337 28.1462 119.344 27.9792 119.254 27.9277C119.143 27.8691 118.987 27.8815 118.962 27.9497Z" fill="black"/>
<path fill-rule="evenodd" clip-rule="evenodd" d="M115.621 27.9173C115.572 27.9718 115.589 28.0805 115.743 28.5825C115.837 28.8867 115.909 28.9836 115.973 28.8901C116.018 28.8224 116.017 28.5993 115.966 28.3389C115.9 27.9896 115.846 27.8734 115.747 27.8709C115.7 27.8697 115.645 27.8913 115.621 27.9169L115.621 27.9173Z" fill="black"/>
<path fill-rule="evenodd" clip-rule="evenodd" d="M118.669 28.5425C118.592 28.616 118.339 29.0819 118.338 29.147C118.336 29.2224 118.472 29.18 118.594 29.065C118.775 28.8958 118.899 28.6923 118.888 28.5838C118.878 28.4622 118.77 28.443 118.669 28.5421L118.669 28.5425Z" fill="black"/>
<path fill-rule="evenodd" clip-rule="evenodd" d="M120.324 29.5977C120.051 29.6531 119.122 30.0558 118.918 30.2109C118.859 30.2554 118.844 30.2845 118.871 30.3082C118.894 30.335 118.986 30.3242 119.201 30.2706C119.546 30.1843 120.481 29.844 120.571 29.7708C120.647 29.7072 120.649 29.6449 120.569 29.6002C120.519 29.5749 120.438 29.5739 120.324 29.5973L120.324 29.5977Z" fill="black"/>
<path fill-rule="evenodd" clip-rule="evenodd" d="M113.207 29.8431C113.085 29.9581 113.184 30.059 113.547 30.1962C113.796 30.2911 113.999 30.3126 114.001 30.2405C114.003 30.1749 113.836 30.0428 113.629 29.9358C113.401 29.8218 113.262 29.7921 113.207 29.8431Z" fill="black"/>
<path fill-rule="evenodd" clip-rule="evenodd" d="M113.3 31.1238C112.82 31.1608 112.248 31.2611 112.165 31.3246C112.058 31.4038 112.117 31.4972 112.286 31.5146C112.435 31.5315 113.337 31.4101 113.702 31.3243C113.975 31.2591 114.113 31.1839 114.04 31.1328C113.986 31.1019 113.687 31.0976 113.3 31.1238L113.3 31.1238Z" fill="black"/>
<path fill-rule="evenodd" clip-rule="evenodd" d="M120.766 31.3169C120.651 31.4223 120.778 31.6321 120.935 31.5968C121.024 31.5793 121.077 31.4757 121.057 31.3604C121.045 31.288 120.832 31.2563 120.766 31.3169Z" fill="black"/>
<path fill-rule="evenodd" clip-rule="evenodd" d="M119.489 31.3435C119.023 31.4104 119.361 31.5895 119.931 31.5811C120.24 31.5725 120.364 31.5166 120.296 31.4034C120.266 31.3567 120.202 31.3452 119.958 31.3357C119.792 31.3282 119.581 31.3327 119.489 31.3435Z" fill="black"/>
<path fill-rule="evenodd" clip-rule="evenodd" d="M114.086 32.4849C113.794 32.6087 113.114 32.9489 113.041 33.0094C112.965 33.0665 112.96 33.1549 113.026 33.2123C113.096 33.2698 113.253 33.2181 113.615 33.0108C114.272 32.6339 114.604 32.2623 114.087 32.4849L114.086 32.4849Z" fill="black"/>
<path fill-rule="evenodd" clip-rule="evenodd" d="M119.095 32.7238C119.093 32.7893 119.299 32.9618 119.693 33.2178C119.876 33.3406 120.15 33.5214 120.303 33.6171C120.65 33.8457 120.799 33.8593 120.753 33.6548C120.726 33.536 120.366 33.294 119.763 32.9839C119.183 32.6838 119.096 32.6488 119.095 32.7242L119.095 32.7238Z" fill="black"/>
<path fill-rule="evenodd" clip-rule="evenodd" d="M118.196 33.3929C118.194 33.4683 118.278 33.6279 118.445 33.865C118.556 34.0253 118.609 34.0758 118.674 34.0775C118.718 34.0786 118.766 34.0569 118.777 34.0309C118.82 33.9303 118.752 33.8007 118.53 33.5753C118.312 33.3533 118.198 33.2913 118.196 33.3929Z" fill="black"/>
<path fill-rule="evenodd" clip-rule="evenodd" d="M114.607 33.5112C114.298 33.7461 113.485 34.5187 113.484 34.5712C113.482 34.64 113.548 34.7007 113.626 34.7027C113.813 34.7074 114.977 33.478 114.881 33.3771C114.842 33.34 114.807 33.3556 114.607 33.5112Z" fill="black"/>
<path fill-rule="evenodd" clip-rule="evenodd" d="M115.945 33.9716C115.773 34.3346 115.735 34.6251 115.857 34.6282C115.925 34.63 116.027 34.5013 116.057 34.3808C116.099 34.1916 116.105 33.8375 116.061 33.8233C116.041 33.8162 115.988 33.8837 115.945 33.9712L115.945 33.9716Z" fill="black"/>
<path fill-rule="evenodd" clip-rule="evenodd" d="M117.178 33.9242C117.109 34.0799 117.451 35.7146 117.58 35.8589C117.653 35.9428 117.717 35.9346 117.767 35.8407C117.814 35.7468 117.711 35.2297 117.514 34.572C117.342 34.0067 117.232 33.7944 117.178 33.9242Z" fill="black"/>
<path fill-rule="evenodd" clip-rule="evenodd" d="M115.573 35.0047C115.493 35.1897 115.696 35.3556 115.845 35.2314C115.935 35.155 115.931 35.0434 115.831 34.9752C115.708 34.8934 115.616 34.9042 115.573 35.0047Z" fill="black"/>
<path fill-rule="evenodd" clip-rule="evenodd" d="M125.267 26.2085C125.206 26.3512 125.106 27.8898 125.15 28.0021C125.186 28.0915 125.192 28.095 125.241 28.0503C125.321 27.9769 125.393 27.677 125.45 27.177C125.511 26.6242 125.503 26.2833 125.42 26.1927C125.341 26.1054 125.307 26.1078 125.267 26.2085Z" fill="black"/>
<path fill-rule="evenodd" clip-rule="evenodd" d="M121.391 26.6736C121.338 26.7641 121.419 26.9105 121.686 27.219C121.821 27.3734 122.052 27.6482 122.203 27.832C122.727 28.4648 122.965 28.6742 122.97 28.4972C122.974 28.3497 122.462 27.6385 121.905 27.011C121.552 26.6183 121.458 26.5569 121.391 26.6732L121.391 26.6736Z" fill="black"/>
<path fill-rule="evenodd" clip-rule="evenodd" d="M126.962 26.9497C126.903 27.1123 127.082 27.2677 127.241 27.1897C127.337 27.1462 127.344 26.9792 127.254 26.9277C127.143 26.8691 126.987 26.8815 126.962 26.9497Z" fill="black"/>
<path fill-rule="evenodd" clip-rule="evenodd" d="M123.621 26.9173C123.572 26.9718 123.589 27.0805 123.743 27.5825C123.837 27.8867 123.909 27.9836 123.973 27.8901C124.018 27.8224 124.017 27.5993 123.966 27.3389C123.9 26.9896 123.846 26.8734 123.747 26.8709C123.7 26.8697 123.645 26.8913 123.621 26.9169L123.621 26.9173Z" fill="black"/>
<path fill-rule="evenodd" clip-rule="evenodd" d="M126.669 27.5425C126.592 27.616 126.339 28.0819 126.338 28.147C126.336 28.2224 126.472 28.18 126.594 28.065C126.775 27.8958 126.899 27.6923 126.888 27.5838C126.878 27.4622 126.77 27.443 126.669 27.5421L126.669 27.5425Z" fill="black"/>
<path fill-rule="evenodd" clip-rule="evenodd" d="M128.324 28.5977C128.051 28.6531 127.122 29.0558 126.918 29.2109C126.859 29.2554 126.844 29.2845 126.871 29.3082C126.894 29.335 126.986 29.3242 127.201 29.2706C127.546 29.1843 128.481 28.844 128.571 28.7708C128.647 28.7072 128.649 28.6449 128.569 28.6002C128.519 28.5749 128.438 28.5739 128.324 28.5973L128.324 28.5977Z" fill="black"/>
<path fill-rule="evenodd" clip-rule="evenodd" d="M121.207 28.8431C121.085 28.9581 121.184 29.059 121.547 29.1962C121.796 29.2911 121.999 29.3126 122.001 29.2405C122.003 29.1749 121.836 29.0428 121.629 28.9358C121.401 28.8218 121.262 28.7921 121.207 28.8431Z" fill="black"/>
<path fill-rule="evenodd" clip-rule="evenodd" d="M121.3 30.1238C120.82 30.1608 120.248 30.2611 120.165 30.3246C120.058 30.4038 120.117 30.4972 120.286 30.5146C120.435 30.5315 121.337 30.4101 121.702 30.3243C121.975 30.2591 122.113 30.1839 122.04 30.1328C121.986 30.1019 121.687 30.0976 121.3 30.1238L121.3 30.1238Z" fill="black"/>
<path fill-rule="evenodd" clip-rule="evenodd" d="M128.766 30.3169C128.651 30.4223 128.778 30.6321 128.935 30.5968C129.024 30.5793 129.077 30.4757 129.057 30.3604C129.045 30.288 128.832 30.2563 128.766 30.3169Z" fill="black"/>
<path fill-rule="evenodd" clip-rule="evenodd" d="M127.489 30.3435C127.023 30.4104 127.361 30.5895 127.931 30.5811C128.24 30.5725 128.364 30.5166 128.296 30.4034C128.266 30.3567 128.202 30.3452 127.958 30.3357C127.792 30.3282 127.581 30.3327 127.489 30.3435Z" fill="black"/>
<path fill-rule="evenodd" clip-rule="evenodd" d="M122.086 31.4849C121.794 31.6087 121.114 31.9489 121.041 32.0094C120.965 32.0665 120.96 32.1549 121.026 32.2123C121.096 32.2698 121.253 32.2181 121.615 32.0108C122.272 31.6339 122.604 31.2623 122.087 31.4849L122.086 31.4849Z" fill="black"/>
<path fill-rule="evenodd" clip-rule="evenodd" d="M127.095 31.7238C127.093 31.7893 127.299 31.9618 127.693 32.2178C127.876 32.3406 128.15 32.5214 128.303 32.6171C128.65 32.8457 128.799 32.8593 128.753 32.6548C128.726 32.536 128.366 32.294 127.763 31.9839C127.183 31.6838 127.096 31.6488 127.095 31.7242L127.095 31.7238Z" fill="black"/>
<path fill-rule="evenodd" clip-rule="evenodd" d="M126.196 32.3929C126.194 32.4683 126.278 32.6279 126.445 32.865C126.556 33.0253 126.609 33.0758 126.674 33.0775C126.718 33.0786 126.766 33.0569 126.777 33.0309C126.82 32.9303 126.752 32.8007 126.53 32.5753C126.312 32.3533 126.198 32.2913 126.196 32.3929Z" fill="black"/>
<path fill-rule="evenodd" clip-rule="evenodd" d="M122.607 32.5112C122.298 32.7461 121.485 33.5187 121.484 33.5712C121.482 33.64 121.548 33.7007 121.626 33.7027C121.813 33.7074 122.977 32.478 122.881 32.3771C122.842 32.34 122.807 32.3556 122.607 32.5112Z" fill="black"/>
<path fill-rule="evenodd" clip-rule="evenodd" d="M123.945 32.9716C123.773 33.3346 123.735 33.6251 123.857 33.6282C123.925 33.63 124.027 33.5013 124.057 33.3808C124.099 33.1916 124.105 32.8375 124.061 32.8233C124.041 32.8162 123.988 32.8837 123.945 32.9712L123.945 32.9716Z" fill="black"/>
<path fill-rule="evenodd" clip-rule="evenodd" d="M125.178 32.9242C125.109 33.0799 125.451 34.7146 125.58 34.8589C125.653 34.9428 125.717 34.9346 125.767 34.8407C125.814 34.7468 125.711 34.2297 125.514 33.572C125.342 33.0067 125.232 32.7944 125.178 32.9242Z" fill="black"/>
<path fill-rule="evenodd" clip-rule="evenodd" d="M123.573 34.0047C123.493 34.1897 123.696 34.3556 123.845 34.2314C123.935 34.155 123.931 34.0434 123.831 33.9752C123.708 33.8934 123.616 33.9042 123.573 34.0047Z" fill="black"/>
<path fill-rule="evenodd" clip-rule="evenodd" d="M57.0479 9.78678C56.9574 9.79574 56.7208 9.82806 56.5193 9.86583C56.0659 9.95081 55.3276 9.91675 54.612 9.76236C54.0656 9.65021 53.8392 9.6726 53.7969 9.84296C53.7389 10.0684 54.4791 10.3689 55.2915 10.4585C55.5374 10.4866 55.7431 10.5142 55.758 10.5294C55.8226 10.5955 54.6231 10.8725 53.9998 10.9347C52.7519 11.0604 51.3385 10.8523 49.9274 10.3427C49.0267 10.0202 48.2378 9.63943 46.5458 8.7288C45.8468 8.34845 44.938 7.91593 44.5327 7.76529C43.3468 7.33382 42.8002 7.29266 41.1951 7.49878C41.0341 7.51694 40.9992 7.49139 40.777 7.16203C40.4856 6.74138 39.8002 6.12059 39.3608 5.8841C37.7588 5.00597 35.6109 5.21558 33.4708 6.45052C32.3927 7.07574 31.3166 8.01698 31.1756 8.4525C31.1545 8.53266 31.1784 8.63849 31.228 8.68935C31.3174 8.78089 31.3629 8.75631 31.7545 8.37407C31.9884 8.14572 32.4908 7.74471 32.8652 7.48853C35.3276 5.7901 37.6878 5.42161 39.353 6.4764C39.732 6.72222 40.5507 7.54062 40.549 7.68132C40.5487 7.70142 40.4019 7.79513 40.2199 7.88339C39.9772 8.00107 39.693 8.22882 39.1953 8.71469C38.6003 9.2955 38.4829 9.43982 38.3336 9.78416C37.9258 10.6788 37.9269 11.4723 38.3273 11.974C38.6244 12.3395 38.7991 12.4371 39.2058 12.4671C39.7983 12.5145 40.1064 12.3825 40.6652 11.8371C41.1229 11.3903 41.1588 11.3354 41.3513 10.79C41.5907 10.1094 41.626 9.22089 41.4388 8.54079C41.3664 8.29365 41.3239 8.06698 41.3392 8.05209C41.4257 7.9677 42.5826 7.88118 42.9984 7.94211C43.9971 8.05973 44.6015 8.31266 46.793 9.48061C49.5638 10.9559 51.0293 11.4309 52.9989 11.4648C53.9285 11.481 54.6532 11.3993 55.4335 11.1826L55.8118 11.0716L55.4905 11.4547C55.1081 11.9074 54.9007 12.4376 55.0392 12.6202C55.1677 12.8027 55.3349 12.6891 55.6779 12.1656C55.8467 11.9214 56.2853 11.3939 56.6614 10.9971C57.0381 10.5996 57.3644 10.2115 57.3905 10.1364C57.4114 10.0663 57.3826 9.95542 57.3181 9.8893C57.2535 9.82319 57.1334 9.78154 57.0479 9.78553L57.0479 9.78678ZM40.9547 8.67816C41.1037 9.23782 41.0433 10.0814 40.8302 10.6656C40.4976 11.5662 39.7228 12.104 39.0719 11.9051C38.8315 11.8319 38.8117 11.8115 38.6797 11.5034C38.4401 10.9527 38.5938 10.2962 39.1451 9.53955C39.3292 9.28044 39.6043 8.97217 39.7665 8.85352C40.1166 8.58134 40.7795 8.20238 40.8242 8.24815C40.8391 8.2634 40.9021 8.46017 40.9547 8.67691L40.9547 8.67816Z" fill="black"/>
<path fill-rule="evenodd" clip-rule="evenodd" d="M83.1685 21.1413C83.1427 21.2206 83.1427 21.6274 83.1773 22.0424C83.212 22.4664 83.2733 23.2874 83.3168 23.8708C83.3603 24.4541 83.4039 25.3543 83.4039 25.8665C83.4039 26.918 83.3861 26.9531 82.8113 26.8738C82.6372 26.8558 81.565 26.7856 80.4403 26.7325C78.1999 26.6173 78 26.6443 78 27.0503C78 27.3681 78.2612 27.5004 79.7607 27.9685C81.286 28.4546 81.931 28.7193 82.1486 28.9578C82.2881 29.1172 82.2623 29.1784 81.4424 30.4063C80.5096 31.8286 79.9171 32.9151 79.9171 33.2239C79.9171 33.4886 80.1782 33.7181 80.475 33.7181C80.8676 33.7181 81.2771 33.4706 82.5759 32.4812C83.2475 31.969 83.936 31.4568 84.1101 31.3506C84.7026 30.9887 84.6938 30.9797 85.3041 32.826C86.1755 35.4582 86.5327 36.0235 87.0213 35.5374L87.222 35.3259V33.0475C87.222 30.4864 87.2656 30.1326 87.5969 30.1596C88.3724 30.2388 91.1965 30.2919 91.5368 30.2388C92.2865 30.1236 92.4171 29.5061 91.7544 29.1613C91.5972 29.0821 90.8563 28.7994 90.1154 28.5338C89.3745 28.2773 88.5723 27.9775 88.3458 27.8713C87.9709 27.6948 87.9274 27.6507 87.9798 27.4563C88.0144 27.324 88.4417 26.5291 88.9383 25.6811C90.0275 23.8348 90.0976 23.6403 89.9057 23.3405C89.5486 22.7842 88.8166 23.2343 86.7325 25.2751C86.2448 25.7612 85.8264 26.1321 85.8175 26.1141C85.7998 26.0961 85.6168 25.5839 85.408 24.9744C84.859 23.3495 84.2052 21.7067 83.9609 21.3268C83.7956 21.0702 83.6908 21 83.49 21C83.3248 21 83.2022 21.0531 83.1676 21.1413H83.1685ZM84.6245 25.204C84.9123 26.07 85.217 26.8468 85.2961 26.9351C85.3742 27.0323 85.5572 27.0944 85.7323 27.0944C85.9854 27.0944 86.1596 26.9621 87.0923 26.052C87.676 25.4866 88.2863 24.8952 88.4524 24.7539C88.7225 24.5063 88.7402 24.5063 88.6354 24.7008C88.5741 24.8241 88.304 25.2841 88.0429 25.7162C87.1101 27.2798 86.9973 27.6858 87.3713 28.1449C87.6413 28.4627 88.1735 28.7283 89.4633 29.1874L90.4219 29.5232L89.8986 29.5493C89.6108 29.5673 88.8877 29.5313 88.2952 29.479C87.2753 29.3728 87.206 29.3818 86.9875 29.5412C86.6393 29.8148 86.5344 30.327 86.482 32.1293L86.4296 33.7631L85.9766 32.3939C85.3227 30.4063 85.2881 30.3621 84.6431 30.3621C84.2069 30.3621 83.6055 30.715 82.2375 31.7755C81.6014 32.2616 81.0524 32.6586 81.0169 32.6586C80.9298 32.6586 81.1821 32.2256 82.1237 30.8123C83.013 29.47 83.1178 29.1874 82.9339 28.7454C82.7767 28.3565 82.4018 28.0918 81.5134 27.7561L80.7903 27.4734L82.185 27.5175C83.196 27.5436 83.6144 27.5265 83.7015 27.4554C83.9191 27.2699 84.0417 26.4039 84.0497 24.9555C84.0586 24.1957 84.0675 23.5863 84.0843 23.5953C84.0932 23.6133 84.3375 24.3281 84.6245 25.2031V25.204Z" fill="black"/>
<path fill-rule="evenodd" clip-rule="evenodd" d="M36.1286 11.1274C35.5965 11.5073 34.1325 14.9254 32.7378 19.0681C32.1275 20.8784 31.9711 21.2412 31.805 21.2412C31.7526 21.2412 31.4736 20.9847 31.2036 20.6759C30.6022 19.9953 29.2945 18.9097 28.057 18.0698C26.8977 17.2839 26.4615 17.0625 26.2003 17.1246C25.8432 17.2218 25.9472 17.5306 26.6445 18.4668C27.0105 18.9439 27.4991 19.7208 27.7257 20.1799C28.5358 21.7606 29.1639 24.0841 29.3904 26.3013C29.5121 27.485 29.5823 27.6876 29.8613 27.6876C30.1402 27.6876 30.1837 27.5373 30.2361 26.5839C30.3667 24.3406 29.3469 20.9487 27.9264 18.8557L27.7781 18.6351L28.0828 18.8557C28.9196 19.439 29.5299 19.9593 30.532 20.9487C31.7259 22.1144 31.8743 22.1936 32.3016 21.8498C32.6329 21.5851 32.8417 21.117 33.6616 18.8557C34.4896 16.5592 35.7706 13.2294 35.9625 12.8756C36.1455 12.5308 36.1455 12.6109 35.8408 15.0838C35.4401 18.4317 35.2829 21.4609 35.4926 21.8678C35.5538 21.974 35.6756 22.0352 35.8408 22.0352C36.0495 22.0352 36.285 21.8678 37.0001 21.1872C38.0635 20.1718 39.022 19.3769 40.0249 18.6873C40.8618 18.113 41.5938 17.6719 41.5938 17.7511C41.5938 17.7772 41.3761 18.0959 41.1061 18.4668C39.4155 20.7812 38.3166 23.0155 37.6628 25.4182C37.5144 25.9925 37.3146 26.5488 37.2266 26.6551C37.0783 26.8405 37.009 26.8495 34.7774 26.9026C33.5222 26.9287 32.3895 26.9818 32.2669 27.0259C31.3342 27.2996 30.9504 27.4499 30.9859 27.5382C31.0037 27.6003 31.1512 27.6354 31.3173 27.6264C31.4825 27.6084 32.895 27.5913 34.4638 27.5823C38.0635 27.5472 37.8547 27.6525 38.4472 25.5154C39.1188 23.1037 40.1031 21.1782 41.9944 18.582C42.5088 17.8843 42.8135 17.319 42.8135 17.0895C42.8135 16.913 42.4564 16.6475 42.221 16.6475C42.0815 16.6475 41.5849 16.8419 41.1052 17.0715C39.7282 17.7601 38.0457 18.9709 36.6421 20.3041L36.0931 20.8253L36.1455 19.6857C36.2325 17.9276 36.3463 16.6034 36.5897 14.5275C36.8864 12.0456 36.9033 11.2858 36.6767 11.1184C36.4591 10.9591 36.3631 10.9591 36.1277 11.1274H36.1286Z" fill="black"/>
<path fill-rule="evenodd" clip-rule="evenodd" d="M72.4318 4.77535C71.0243 3.74699 68.3182 3.57508 65.7255 4.34758C62.8128 5.22346 59.6793 7.37883 58.7809 9.12574C58.3138 10.0362 58.2644 10.9356 58.6423 11.5521C59.2301 12.5109 60.9142 12.8071 62.4557 12.2299C63.0965 11.9903 64.066 11.324 64.4435 10.8582C64.8076 10.4203 65.0381 9.71636 64.9439 9.32501C64.7573 8.52973 63.5944 8.47572 63.4086 9.25438C63.3332 9.53611 63.4618 9.6615 63.7422 9.61255L63.9988 9.55739L63.8971 9.81354C63.7622 10.1515 63.1841 10.7622 62.762 11.021C61.4995 11.7845 59.7734 11.7902 59.3087 11.0321C58.6252 9.91724 60.1847 7.89842 62.9214 6.36349C64.7467 5.33627 66.3556 4.80013 68.0817 4.64122C70.9305 4.38801 72.6473 5.22677 72.981 7.05614C73.2503 8.52703 72.0818 10.7772 70.0876 12.6123L69.5405 13.1217L68.8974 13.0356C67.5867 12.8576 66.3541 13.1119 65.2773 13.772C64.3587 14.3352 64.1116 14.8951 64.5585 15.388C65.1614 16.0511 67.0127 15.6727 68.9099 14.5097L69.6858 14.034L70.161 14.3356C70.5485 14.5784 70.6911 14.7265 70.9733 15.187C71.2556 15.6475 71.3172 15.815 71.3257 16.2182C71.3345 17.3986 70.556 18.6125 69.2905 19.3884L68.7555 19.7163L68.4268 19.4677C68.0061 19.1535 67.1748 18.8962 66.6845 18.9405C66.1577 18.9768 65.53 19.3721 65.3867 19.7464C65.3062 19.9698 65.3233 20.0823 65.4919 20.3572C65.8563 20.9517 66.6521 21.1183 67.8274 20.8375C68.4442 20.6949 68.4484 20.7017 68.5766 20.9607C68.8916 21.6262 68.8026 22.53 68.3538 23.2344C68.2129 23.4438 67.7437 23.946 67.2984 24.3513C66.5376 25.0532 66.3196 25.34 66.1329 25.914C65.9504 26.4447 66.2761 26.368 66.8584 25.7454C67.041 25.5522 67.4751 25.1631 67.8322 24.8827C68.869 24.0731 69.3452 23.4134 69.5431 22.5356C69.6689 21.9468 69.6297 21.4092 69.4235 20.8198L69.2499 20.3333L69.7849 20.0054C70.9099 19.3052 71.6917 18.3154 72.0146 17.187C72.2421 16.3421 72.1718 15.6693 71.7709 14.9137C71.4731 14.3607 71.2307 14.0997 70.4767 13.5294C70.3797 13.4555 70.4145 13.3935 70.6504 13.1874C70.8126 13.0473 71.1948 12.639 71.5133 12.2802C73.1185 10.4375 73.8742 8.69573 73.7211 7.19538C73.654 6.61233 73.6022 6.46069 73.2123 5.79009C72.8724 5.20129 72.7036 4.97759 72.4341 4.77393L72.4318 4.77535ZM67.6785 14.2423C66.1669 14.9544 64.5875 15.115 65.6796 14.4455C66.3351 14.0437 67.6481 13.7191 68.2865 13.7977C68.5222 13.8273 68.4286 13.8951 67.6785 14.2423ZM67.3302 20.1816C66.5913 20.3282 65.8133 20.0893 66.2124 19.8446C66.303 19.7891 66.5008 19.7397 66.6452 19.7221C66.9437 19.7027 67.695 19.8965 67.7679 20.0154C67.7953 20.0601 67.5991 20.1293 67.331 20.1811L67.3302 20.1816Z" fill="black"/>
<path fill-rule="evenodd" clip-rule="evenodd" d="M125.001 20.1465C125.001 20.2618 125.254 20.5525 125.672 20.9324C127.642 22.6986 128.645 23.9976 129.255 25.5523C129.56 26.3291 129.691 26.9836 129.795 28.1404C129.848 28.7318 129.944 29.4475 130.013 29.7211C130.24 30.6222 130.815 31.3379 131.625 31.7259C132.261 32.0347 133.377 32.0527 133.979 31.77C134.902 31.328 135.635 30.3567 135.635 29.5438C135.635 29.3052 135.669 29.1819 135.722 29.217C135.861 29.3052 136.515 30.3387 137.56 32.1139C138.075 32.997 138.65 33.9602 138.833 34.251L139.165 34.7812L139.191 34.4895C139.208 34.3221 139.147 33.9683 139.069 33.6946C138.781 32.7674 137.256 29.8967 136.402 28.6949C136.271 28.5094 136.158 28.315 136.158 28.2709C136.158 28.2358 136.323 28.2007 136.533 28.2007C137.884 28.2007 138.817 27.0259 138.52 25.7008C138.206 24.2524 137.247 23.0947 135.722 22.3268C134.501 21.7084 133.238 21.4086 129.184 20.7371C127.528 20.4724 126.02 20.2068 125.828 20.1537C125.069 19.9503 125 19.9503 125 20.1447L125.001 20.1465ZM130.144 21.586C135.373 22.5573 136.925 23.3702 137.657 25.4992C137.849 26.0735 137.849 26.303 137.64 26.7711C137.439 27.2212 137.02 27.4427 136.192 27.5399L135.66 27.602L135.276 27.169C134.135 25.897 132.853 24.6431 131.912 23.8743C130.91 23.0533 128.556 21.4014 128.391 21.4014C128.347 21.4014 128.313 21.3573 128.313 21.3132C128.313 21.2601 128.4 21.243 128.513 21.2691C128.618 21.2952 129.35 21.4365 130.144 21.5869V21.586ZM129.115 22.5753C130.1 23.2909 131.146 24.1389 131.974 24.8807C132.793 25.6225 134.64 27.6281 134.823 27.972C134.998 28.3078 135.077 29.4916 134.945 29.8976C134.815 30.2955 134.326 30.7897 133.838 31.0192C133.001 31.4252 131.764 31.1516 131.232 30.4539C130.884 29.9858 130.77 29.5528 130.63 28.1395C130.552 27.4148 130.413 26.5317 130.317 26.1698C129.994 25.004 129.114 23.3783 128.321 22.5042C128.147 22.3097 127.884 22.0181 127.745 21.8506L127.484 21.5499L127.92 21.7885C128.164 21.9208 128.696 22.2746 129.114 22.5744L129.115 22.5753Z" fill="black"/>
<path fill-rule="evenodd" clip-rule="evenodd" d="M156.382 22.0783C156.191 22.2295 155.865 23.0433 155.813 23.4973L155.787 23.6978L155.644 23.6261C155.483 23.5389 155.203 23.5278 155.008 23.5922C154.601 23.7322 154.409 24.1144 154.529 24.5495C154.567 24.6856 154.563 24.7045 154.462 24.7994C154.406 24.86 153.852 25.1967 153.238 25.5527C152.157 26.1771 152.119 26.1999 152.067 26.1243C151.91 25.901 151.734 25.9615 151.771 26.2265L151.794 26.3854L151.42 26.6049C150.806 26.9643 149.41 27.8271 148.681 28.3043C147.838 28.8531 146.817 29.4926 146.783 29.4926C146.768 29.4926 146.674 29.3186 146.574 29.1104C146.345 28.641 146.278 28.5465 146.162 28.5465C146.046 28.5465 145.938 28.7015 145.968 28.8153C145.983 28.872 145.926 28.9704 145.751 29.1825C144.1 31.2109 143 32.6565 143 32.8042C143 32.9215 143.15 33.0275 143.269 32.9936C143.318 32.9785 143.92 32.7058 144.609 32.388C145.298 32.0702 146.106 31.7142 146.405 31.597C147.461 31.1808 147.513 31.143 147.483 30.8213C147.468 30.6775 147.412 30.5452 147.229 30.2462C147.098 30.0306 147.012 29.849 147.031 29.8451C147.124 29.8112 148.138 29.1601 148.827 28.6872C150.223 27.7299 151.933 26.6627 151.978 26.7194C151.993 26.7345 152.053 26.8139 152.109 26.8934C152.191 27.0068 152.232 27.0334 152.311 27.0257C152.442 27.0106 152.464 26.8552 152.36 26.6546C152.304 26.5447 152.296 26.4996 152.33 26.473C152.356 26.4541 152.697 26.2458 153.086 26.0113C153.479 25.7729 154.007 25.4397 154.261 25.2657C154.571 25.0564 154.751 24.9757 154.804 25.0235C155.062 25.2696 155.537 25.2163 155.826 24.9101C155.983 24.7396 156.061 24.5429 156.061 24.3084V24.119H156.26C156.364 24.119 156.656 24.1456 156.903 24.1757C157.495 24.2475 157.701 24.2475 157.858 24.1645C158.105 24.0434 158.022 23.8124 157.67 23.6535C157.536 23.5929 157.427 23.574 157.135 23.5779C156.937 23.5779 156.776 23.574 156.78 23.5702C156.787 23.5625 156.959 23.434 157.165 23.2751C157.622 22.9307 157.932 22.609 157.932 22.4806C157.932 22.3444 157.813 22.2534 157.678 22.2839C157.536 22.314 157.139 22.5828 156.757 22.9006C156.514 23.1089 156.473 23.1316 156.522 23.0368C156.611 22.8628 156.735 22.42 156.735 22.28C156.735 22.1477 156.63 22 156.533 22C156.506 22 156.439 22.0339 156.383 22.0795L156.382 22.0783ZM157.489 23.8988C157.747 23.9555 157.628 23.9821 157.265 23.9482C157.077 23.9293 157.003 23.9104 157.036 23.8876C157.107 23.8421 157.253 23.846 157.489 23.8988H157.489ZM155.502 23.9555C155.753 24.1067 155.779 24.4361 155.558 24.6633C155.285 24.9356 154.959 24.8372 154.855 24.4438C154.817 24.2999 154.817 24.2509 154.869 24.1449C154.974 23.9216 155.285 23.8271 155.502 23.9555H155.502ZM146.828 30.2867C146.989 30.5251 147.127 30.7635 147.142 30.8128C147.168 30.9189 147.146 30.9339 146.798 31.0662C146.094 31.3351 145.593 31.5468 144.691 31.9557C144.152 32.1979 143.722 32.3795 143.736 32.3568C143.789 32.2623 144.343 31.5356 144.758 31.0095C145.559 29.9878 145.963 29.4089 146.072 29.1212C146.109 29.0267 146.121 29.0378 146.326 29.4351C146.442 29.6662 146.671 30.0484 146.828 30.2867Z" fill="black"/>
<path fill-rule="evenodd" clip-rule="evenodd" d="M111.942 9.23401C110.382 9.70212 109.24 10.488 108.133 11.8572L107.785 12.2902L107.323 11.9895C106.913 11.733 106.774 11.6979 106.277 11.6979C104.786 11.7069 103.06 13.2525 102.12 15.4256C101.937 15.8586 101.779 16.2205 101.763 16.2385C101.754 16.2565 101.545 16.1854 101.309 16.0792C100.315 15.6552 99.2698 15.9469 98.3201 16.9272C97.152 18.1371 96.5772 19.7799 96.5772 21.944C96.5772 23.4717 96.9521 25.1146 97.5446 26.184L97.8058 26.6431L97.2568 27.7558C96.5248 29.2312 95.9669 30.9263 96.0015 31.5537C96.0273 31.9777 96.0451 32.0128 96.2458 32.0128C96.4466 32.0128 96.499 31.9066 96.9174 30.803C97.4496 29.3716 97.8413 28.4624 98.3468 27.5352L98.7128 26.8547L99.332 26.7484C99.8197 26.6692 100.378 26.6692 101.955 26.7484C104.649 26.8988 105.546 26.7745 106.549 26.13C107.081 25.7852 107.621 25.1587 107.761 24.7518C107.813 24.5843 107.839 24.2657 107.813 24.0541C107.77 23.6121 107.813 23.577 108.476 23.577C110.036 23.568 112.624 22.5436 113.095 21.7397C113.287 21.3949 113.287 20.9538 113.078 20.6L112.903 20.3264L113.662 20.2642C116.539 20.0257 118.735 18.5683 118.735 16.8993C118.735 16.5284 118.683 16.36 118.448 16.0072L118.16 15.5652L118.727 15.4679C120.348 15.1853 121.9 14.0897 122.274 12.9591C122.544 12.1111 122.317 11.3342 121.559 10.5654C120.8 9.80564 119.702 9.41675 118.298 9.41675C117.357 9.41675 116.625 9.57609 115.779 9.98208C115.221 10.2386 115.091 10.2296 115.073 9.92897C115.064 9.77864 114.689 9.38164 114.375 9.1872C113.939 8.92254 112.919 8.93964 111.943 9.23131L111.942 9.23401ZM114.156 9.90556C114.278 10.0208 114.444 10.3296 114.531 10.5942C114.661 11.0362 114.705 11.0803 114.949 11.1064C115.132 11.1244 115.377 11.0443 115.69 10.8499C116.527 10.3467 117.215 10.1342 118.122 10.0901C119.857 9.99288 121.304 10.6995 121.74 11.8653C121.966 12.4658 121.827 12.8726 121.182 13.5172C120.38 14.3121 118.715 15.0097 117.626 15.0097C116.789 15.0097 116.684 15.3455 117.365 15.8577C117.609 16.0522 117.897 16.3519 117.984 16.5293C118.141 16.8119 118.141 16.8822 118.045 17.2179C117.766 18.1632 116.467 19.0202 114.593 19.4703C113.608 19.7088 113.512 19.7178 112.771 19.6206C111.525 19.4613 111.351 19.7268 112.152 20.5829C112.413 20.8656 112.632 21.1302 112.632 21.1743C112.632 21.3688 112.178 21.7928 111.699 22.0575C110.688 22.6048 108.996 22.9586 107.419 22.9586C106.678 22.9586 106.355 23.0468 106.355 23.2592C106.355 23.3294 106.495 23.5509 106.66 23.7534C106.825 23.9569 106.965 24.2035 106.965 24.2927C106.965 24.6987 106.494 25.273 105.927 25.5647C105.357 25.8533 104.07 26.0007 102.065 26.0067H99.2236L99.3631 25.7591C99.7904 25.0173 101.298 23.1269 102.257 22.1286C103.556 20.7774 105.012 19.5675 106.72 18.4278C108.298 17.3683 109.353 16.7759 112.552 15.116C115.401 13.6495 115.959 13.3317 116.004 13.1814C116.056 13.0311 115.812 13.1112 113.85 13.8971C111.976 14.6569 109.353 15.9108 107.88 16.7678C104.079 18.976 100.967 21.8468 98.7359 25.1857L98.1691 26.0517L97.8644 25.0803C97.6992 24.5501 97.4984 23.7111 97.4114 23.2169C96.9752 20.5847 97.9257 17.723 99.5292 16.8489C100.235 16.46 100.479 16.451 101.168 16.8228C102.083 17.2999 102.092 17.2909 102.746 15.8424C103.208 14.8 103.67 14.1284 104.376 13.4398C105.048 12.7952 105.701 12.4504 106.285 12.4504C106.651 12.4504 106.747 12.4946 107.14 12.8483C107.811 13.4488 107.863 13.4317 108.839 12.2299C109.676 11.1965 110.138 10.8256 111.167 10.3305C112.073 9.90646 112.701 9.73002 113.389 9.72102C113.834 9.71202 113.973 9.74713 114.156 9.90646V9.90556Z" fill="black"/>
<path fill-rule="evenodd" clip-rule="evenodd" d="M135.961 7.23099C134.89 7.08895 134.058 7.20553 132.811 7.66149C130.667 8.46603 129.193 9.89314 128.217 12.1168C127.446 13.8715 127.353 15.21 127.899 16.6754C128.327 17.8276 128.822 18.4119 129.719 18.7964C130.486 19.1329 131.068 19.1282 131.832 18.7982C133.102 18.2272 133.907 16.5458 133.811 14.6611C133.758 13.4408 133.042 12.6635 132.643 13.376C132.545 13.5551 132.533 13.713 132.603 13.9661C132.835 14.762 132.745 15.919 132.4 16.7036C131.504 18.7418 129.386 18.4287 128.608 16.1469C128.202 14.9264 128.303 13.6976 128.927 12.255C129.748 10.3865 131.06 9.1115 132.902 8.38591C134.456 7.77552 135.652 7.76109 136.961 8.33599C137.798 8.70401 138.37 9.13778 138.993 9.86585C139.814 10.8343 140.652 12.6114 140.898 13.9151L140.98 14.3365L140.423 14.9317C139.003 16.4306 138.323 18.4562 138.832 19.616C139.067 20.1439 139.354 20.3565 139.822 20.3311C140.521 20.3006 141.028 19.8187 141.508 18.7274C141.906 17.8217 142.09 16.7737 142.06 15.5838L142.045 14.6224L142.497 14.3961C143.449 13.898 145.066 13.6823 146.128 13.908C147.049 14.1098 148.097 14.8889 148.686 15.8231C149.124 16.5168 149.416 17.5618 149.462 18.5859L149.497 19.3729L148.929 19.625C147.598 20.2271 146.64 21.3684 146.722 22.2442C146.839 23.5591 148.245 23.675 149.262 22.4436C149.507 22.1462 149.691 21.7922 150.027 20.9852L150.46 19.9122L150.898 19.8921C152.3 19.8225 153.721 20.4864 154.95 21.788C155.159 22.0056 155.179 21.6764 154.978 21.2894C154.505 20.3958 153.819 19.8341 152.617 19.3836C151.912 19.1224 151.59 19.0771 150.522 19.0808C150.463 19.0836 150.401 18.8153 150.385 18.4611C150.272 16.096 149.304 14.4842 147.4 13.4451C146.734 13.0757 146.031 12.9205 145.128 12.9385C144.194 12.9627 143.589 13.0825 142.639 13.4468L141.827 13.7558L141.701 13.2178C141.412 11.9904 140.56 10.3332 139.714 9.354C138.758 8.25827 137.257 7.40607 135.963 7.23289L135.961 7.23099ZM140.997 17.2002C140.801 18.3393 140.069 19.6379 139.71 19.4804C139.526 19.3996 139.402 18.7953 139.461 18.2905C139.576 17.4434 140.171 16.3064 140.887 15.6083L141.089 15.4081L141.1 15.9918C141.102 16.3114 141.055 16.8504 140.997 17.2014L140.997 17.2002ZM149.194 20.8208C148.886 21.8044 148.075 22.6734 147.644 22.4841C147.405 22.379 147.452 21.8597 147.736 21.4733C148.093 20.9844 149.101 20.2304 149.284 20.3107C149.324 20.3283 149.279 20.5595 149.193 20.8204L149.194 20.8208Z" fill="black"/>
<path fill-rule="evenodd" clip-rule="evenodd" d="M44.1593 11.3623C44.0563 11.7785 44.3607 12.9691 45.3542 16.1052C45.9428 17.9351 46.0896 18.6882 45.9801 19.2387C45.856 19.8369 45.6859 19.9989 44.3034 20.8323C43.5951 21.2633 42.865 21.7458 42.6829 21.9041C42.3824 22.1556 42.3387 22.2394 42.375 22.4908C42.4599 23.1269 42.6391 23.1113 45.6791 22.1378C46.9438 21.7285 47.3757 21.667 47.703 21.8518C48.0144 22.0257 48.2061 22.2527 49.4907 23.9793C51.1249 26.1893 51.7532 26.9543 51.9873 27.0389C52.2565 27.1344 52.5405 26.9816 52.6242 26.6965C52.7079 26.4113 52.5845 25.9962 51.6636 23.6029C50.5524 20.6905 50.5019 20.4672 50.8645 20.1118C50.997 19.9905 51.747 19.397 52.5478 18.8059C54.6513 17.2332 54.9448 16.8955 54.6153 16.4308C54.3598 16.0664 54.0642 16.1057 51.778 16.823C49.5571 17.5155 49.1849 17.5961 48.9831 17.4235C48.8222 17.2892 47.9145 15.8415 46.577 13.5925C45.4095 11.6426 45.0647 11.1666 44.7437 11.048C44.4862 10.9555 44.2249 11.096 44.1601 11.3618L44.1593 11.3623ZM46.7568 15.401C47.4809 16.6368 48.189 17.7698 48.3194 17.9204C48.8397 18.4828 49.3403 18.4947 51.0117 17.9772C51.6382 17.7803 52.3619 17.5618 52.6058 17.4808C52.861 17.4038 53.0594 17.3677 53.0526 17.3907C53.0384 17.4188 52.3868 17.9195 51.606 18.5101C50.8173 19.1049 50.1028 19.6894 50.0207 19.8143C49.8018 20.1426 49.7701 20.5807 49.916 21.184C50.0305 21.6539 50.9982 24.3931 51.1444 24.665C51.3201 24.9917 50.9937 24.6061 50.033 23.3166C49.4345 22.5356 48.7881 21.72 48.5811 21.5002C47.8705 20.7488 47.2286 20.7332 45.2147 21.4053L44.0168 21.8093L45.0108 21.2645C46.1888 20.6208 46.4467 20.382 46.657 19.7977C46.9737 18.8955 46.8648 18.1415 46.0756 15.7173C45.4353 13.7352 45.1532 12.7136 45.3179 12.9654C45.3841 13.0698 46.0327 14.1652 46.7568 15.401Z" fill="black"/>
<path fill-rule="evenodd" clip-rule="evenodd" d="M96.0784 4.30881C95.93 4.49425 95.5729 4.95335 95.2851 5.32424C94.5877 6.22534 93.3671 7.37311 92.4699 7.99155C91.4243 8.69821 90.1948 9.26354 88.0503 10.0143C84.337 11.3124 83.2736 11.9047 81.8531 13.3973C80.0311 15.3318 79.125 17.9019 79.0113 21.4352C78.942 23.7317 79.1943 25.1009 79.7175 25.2332C80.2496 25.3655 80.3713 25.118 80.1706 24.288C80.0924 23.9522 79.9787 23.1483 79.9263 22.4858C79.8214 21.1607 79.9005 20.5071 80.3447 19.0677C80.5455 18.4231 80.6325 18.2818 81.1291 17.7867C81.5218 17.3888 81.8611 17.1331 82.3142 16.9207C83.4388 16.3995 83.7702 16.3374 87.265 16.0817C89.7142 15.8963 91.5708 15.3129 93.2267 14.1913C95.2842 12.7959 96.2773 11.0649 96.7224 8.11398C96.9143 6.78888 96.9836 4.52755 96.8361 4.24489C96.6531 3.90011 96.3919 3.91811 96.0775 4.307L96.0784 4.30881ZM96.2436 6.08401C95.9122 9.46699 95.1278 11.4546 93.5847 12.832C91.9111 14.3245 89.6102 15.1194 86.2194 15.3759C84.2668 15.5173 83.1856 15.7558 82.2102 16.259L81.8176 16.4535L82.1658 16.0826C83.1075 15.0843 84.6239 14.3335 87.3085 13.5566C90.1415 12.7266 91.1524 12.1964 93.018 10.5355C93.7331 9.89999 93.3147 10.0494 92.2593 10.8002C91.6925 11.2152 91.0911 11.6302 90.9259 11.7274C90.3245 12.0983 89.2087 12.4782 87.3956 12.9463C84.2579 13.7502 82.785 14.4478 81.5031 15.7288C81.0033 16.2353 80.8057 16.359 80.9106 16.0997C81.1806 15.4552 81.8522 14.4829 82.4625 13.8474C83.7267 12.5133 84.8504 11.9219 88.6162 10.6058C90.1939 10.0584 91.6499 9.36886 92.6608 8.68921C93.5412 8.09777 95.1189 6.53411 95.8074 5.56279C96.0686 5.19191 96.304 4.91824 96.3218 4.97136C96.3395 5.01547 96.304 5.51868 96.2436 6.08401Z" fill="black"/>
</g>
</svg>
