<svg width="439" height="36" viewBox="0 0 439 36" fill="none" xmlns="http://www.w3.org/2000/svg">
<path d="M435.049 32.3596C364.86 32.3596 296.624 32.336 225.096 32.336C194.386 32.336 166.481 32.3633 135.661 32.3633C115.669 32.3633 95.678 32.4806 75.6866 32.4806C54.1419 32.4806 23.7106 32.2166 2.50012 32.3633" stroke="black" stroke-width="2" stroke-linecap="round" stroke-linejoin="round"/>
<path d="M437.049 33.4253C366.86 33.4253 298.624 33.4017 227.096 33.4017C196.386 33.4017 168.481 33.4289 137.661 33.4289C117.669 33.4289 97.678 33.5463 77.6866 33.5463C56.1419 33.5463 25.7106 33.2823 4.50012 33.4289" stroke="black" stroke-width="2" stroke-linecap="round" stroke-linejoin="round"/>
<path d="M437.049 34.0761C366.86 34.0761 298.624 34.0524 227.096 34.0524C196.386 34.0524 168.481 34.0797 137.661 34.0797C117.669 34.0797 97.678 34.197 77.6866 34.197C56.1419 34.197 25.7106 33.933 4.50012 34.0797" stroke="black" stroke-width="2" stroke-linecap="round" stroke-linejoin="round"/>
<path d="M431.965 1.85205C391.011 1.85205 351.614 1.85205 307.556 1.85205C270.72 1.85205 236.308 1.85205 198.749 1.85205C181.169 1.85205 161.511 1.85205 143.932 1.85205C126.92 1.85205 99.9871 1.85205 80.3755 1.85205C47.1917 1.85205 18.2334 1.85205 1.22552 1.85205" stroke="black" stroke-width="2" stroke-linecap="round" stroke-linejoin="round"/>
<path d="M436.049 29.2505C435.874 29.0961 436.049 24.9227 436.049 22.5806C434.015 20.3625 435.186 18.0811 435.186 15.5597C435.186 11.2147 435.186 5.33348 435.186 1.00003" stroke="black" stroke-width="2" stroke-linecap="round" stroke-linejoin="round"/>
<path d="M1.0002 29.426C1.00018 27.061 1.00022 24.467 1.0002 22.1462C1.00018 19.6241 1.91815 17.9863 1.0002 15.213C1.00016 10.6016 1.00021 6.23912 1.00018 1.69335" stroke="black" stroke-width="2" stroke-linecap="round" stroke-linejoin="round"/>
<path d="M1.00008 2.73335C2.62923 10.0674 2.83612 22.8395 2.83612 29.7727" stroke="black" stroke-linecap="round" stroke-linejoin="round"/>
<path d="M435.5 1.34669C435.5 8.63091 432 18.6796 436.5 29.426" stroke="black" stroke-width="0.5" stroke-linecap="round" stroke-linejoin="round"/>
<path d="M434.324 1.69333C436.049 8.45097 436.912 22.1615 436.912 29.075" stroke="black" stroke-linecap="round" stroke-linejoin="round"/>
<path d="M436.049 34.378C365.86 34.378 297.624 34.35 226.096 34.35C195.386 34.35 167.481 34.3823 136.661 34.3823C116.669 34.3823 96.678 34.5214 76.6866 34.5214C55.1419 34.5214 24.7106 34.2085 3.50012 34.3823" stroke="black" stroke-width="2" stroke-linecap="round" stroke-linejoin="round"/>
<path d="M1.58765 7.84605C1.94316 6.76314 2.53303 5.96474 3.08765 5.06413C3.52847 4.34831 3.99552 3.4854 4.57186 3.00012" stroke="black" stroke-linecap="round" stroke-linejoin="round"/>
<path d="M1.7298 10.1793C2.19489 9.19248 2.53402 8.23672 3.0798 7.31764C3.37839 6.81482 3.71534 6.42271 3.97191 5.87184C4.40195 4.94849 5.23507 4.25651 5.70875 3.35913" stroke="black" stroke-linecap="round" stroke-linejoin="round"/>
<path d="M1.50012 12.367C2.2669 10.0718 3.78759 8.35955 4.8785 6.33816C5.37323 5.42145 6.12392 4.4912 6.50012 3.526" stroke="black" stroke-linecap="round" stroke-linejoin="round"/>
<path d="M2.50012 14.893C3.44536 12.7507 4.73618 10.8729 5.8993 8.94717C6.45408 8.02865 7.12761 6.66987 7.84374 5.97427C8.19875 5.62945 8.46869 5.21238 8.75115 4.789C8.97965 4.44649 9.22312 3.71285 9.50012 3.526" stroke="black" stroke-linecap="round" stroke-linejoin="round"/>
<path d="M2.50012 17.419C3.10666 16.0731 3.75424 14.8734 4.44625 13.6184C5.06467 12.4969 5.63238 11.2059 6.37891 10.2478C7.16367 9.24057 7.99263 7.91746 8.62133 6.70126C9.19008 5.60104 9.96155 4.69807 10.5001 3.526" stroke="black" stroke-linecap="round" stroke-linejoin="round"/>
<path d="M2.50012 19.945C3.88292 16.7496 5.5517 13.7415 7.22965 10.8335C7.92676 9.62529 8.53023 8.42663 9.34223 7.35709C9.9768 6.52125 10.7566 5.94337 11.3817 5.07668C11.7798 4.52476 12.3042 4.34099 12.5001 3.526" stroke="black" stroke-linecap="round" stroke-linejoin="round"/>
<path d="M2.50012 23.734C3.51086 20.3269 5.24731 17.7393 6.91839 15.0078C7.87792 13.4393 9.26273 12.2022 10.0863 10.5069C10.4131 9.83439 10.853 9.3687 11.161 8.68005C11.5082 7.90398 11.8977 7.12966 12.2849 6.3939C12.6882 5.62774 13.2937 4.42572 13.5001 3.526" stroke="black" stroke-linecap="round" stroke-linejoin="round"/>
<path d="M1.50012 27.5229C5.12395 21.2352 9.623 15.8626 12.9986 9.33621C13.643 8.09024 14.4555 6.54493 15.2616 5.4959C15.633 5.01255 16.5001 4.22811 16.5001 3.526" stroke="black" stroke-linecap="round" stroke-linejoin="round"/>
<path d="M2.50012 30.0489C5.60828 23.4403 9.54183 17.9354 13.0661 11.815C13.7856 10.5655 14.6333 9.46939 15.442 8.33399C16.0732 7.44772 16.6795 6.33234 17.3677 5.54711C18.1608 4.64233 18.7889 3.26153 19.5001 2.26294" stroke="black" stroke-linecap="round" stroke-linejoin="round"/>
<path d="M2.50012 32.5749C4.73331 28.7859 6.42196 24.4122 8.85677 20.837C10.9624 17.7451 13.0183 14.5122 15.2763 11.6352C16.9973 9.44252 19.1228 7.42128 20.5001 4.78894" stroke="black" stroke-linecap="round" stroke-linejoin="round"/>
<path d="M3.50012 32.5749C4.22356 30.3177 5.49955 28.4022 6.70319 26.5787C8.60613 23.6956 10.6903 21.0197 12.5124 18.0419C14.2948 15.1289 15.845 11.954 17.5936 8.99892C19.0234 6.58247 20.5797 3.97486 22.5001 2.26294" stroke="black" stroke-linecap="round" stroke-linejoin="round"/>
<path d="M5.50012 33.8379C6.17079 31.4822 7.31537 29.6955 8.49303 27.7995C10.5772 24.4438 12.64 20.9921 14.8618 17.8151C16.4896 15.4874 18.0374 13.0376 19.5143 10.5211C19.9171 9.83467 20.3393 9.13784 20.72 8.42852C21.2053 7.52429 21.8935 6.85423 22.3228 5.89755C22.6713 5.12087 23.2957 4.38756 23.5001 3.526" stroke="black" stroke-linecap="round" stroke-linejoin="round"/>
<path d="M7.50012 33.8379C8.7532 31.5008 10.3816 29.5026 11.8089 27.344C12.9961 25.5486 14.041 23.7145 15.0589 21.7474C16.6187 18.7334 18.2619 15.6175 20.1031 12.9241C20.7897 11.9197 21.4236 10.7219 22.0589 9.65696C22.7157 8.55622 23.4075 7.5529 24.0442 6.43014C24.4011 5.80097 25.0449 3.83812 25.5001 3.526" stroke="black" stroke-linecap="round" stroke-linejoin="round"/>
<path d="M9.50012 33.8379C10.0363 32.1109 10.9459 30.652 11.7063 29.0839C13.2419 25.917 14.7518 22.7291 16.3252 19.5953C17.9641 16.3311 19.8209 13.3026 21.6377 10.2137C22.935 8.00811 24.4614 5.68433 26.5001 4.78894" stroke="black" stroke-linecap="round" stroke-linejoin="round"/>
<path d="M12.5001 31.3119C17.0629 23.8023 20.5973 15.2052 25.0504 7.58672C25.5968 6.65193 26.0402 5.54373 26.6596 4.69604C26.9037 4.36193 27.2475 3.69885 27.5001 3.526" stroke="black" stroke-linecap="round" stroke-linejoin="round"/>
<path d="M13.5001 32.5749C15.8077 28.252 17.9534 23.7843 20.1804 19.3718C21.8329 16.0977 23.5945 12.9418 25.2351 9.65855C26.2558 7.61587 27.2817 5.3252 28.5001 3.526" stroke="black" stroke-linecap="round" stroke-linejoin="round"/>
<path d="M14.5001 33.8379C15.9099 30.8214 17.3144 27.8145 19.0304 25.0914C21.0616 21.868 23.098 18.6554 25.1062 15.4058C26.7909 12.6797 28.475 9.93857 30.1819 7.241C30.7343 6.36799 31.2334 5.46006 31.8183 4.62825C32.0774 4.25982 32.1739 3.81898 32.5001 3.526" stroke="black" stroke-linecap="round" stroke-linejoin="round"/>
<path d="M17.5001 33.8379C18.1025 32.4676 18.7848 31.2705 19.508 30.0082C21.5042 26.5238 23.3753 22.913 25.3802 19.4359C27.4162 15.9048 29.3517 12.2724 31.2751 8.62927C31.8678 7.50669 32.6157 6.46093 33.1769 5.32924C33.3257 5.02922 33.6076 4.4481 33.4573 5.05423" stroke="black" stroke-linecap="round" stroke-linejoin="round"/>
<path d="M20.5001 31.3119C22.5583 27.7993 24.6934 24.4403 26.8658 21.0495C29.6928 16.6369 32.8039 12.4006 35.1279 7.46853C36.0982 5.40915 36.4974 3.0035 37.5001 1" stroke="black" stroke-linecap="round" stroke-linejoin="round"/>
<path d="M17.5001 32.5749C20.1675 27.8748 22.612 22.8394 24.9645 17.834C26.5009 14.5652 28.4931 11.7344 29.9859 8.41669C30.656 6.92727 31.431 4.51077 32.5001 3.526" stroke="black" stroke-linecap="round" stroke-linejoin="round"/>
<path d="M22.5001 32.5749C25.9525 26.9474 29.8611 21.7348 32.9185 15.6888C34.133 13.2872 35.0748 10.591 36.4381 8.31829C37.0303 7.33098 37.6347 6.29303 38.172 5.25792C38.4617 4.69981 39.0561 3.82211 39.5001 3.526" stroke="black" stroke-linecap="round" stroke-linejoin="round"/>
<path d="M24.5001 33.8379C25.3001 32.3226 26.1589 30.9744 27.0523 29.5676C29.3765 25.9076 31.4313 21.9433 33.5408 18.0407C34.5224 16.2248 35.5194 14.4814 36.3021 12.4759C36.4942 11.9838 36.6387 11.4481 36.8933 11.0083C38.634 8.00062 40.5232 4.68264 41.5001 1" stroke="black" stroke-linecap="round" stroke-linejoin="round"/>
<path d="M27.5001 33.8379C28.3483 31.8019 29.5489 30.0744 30.614 28.2773C31.9554 26.014 33.2782 23.679 34.4792 21.2576C35.6374 18.9227 36.5389 16.3755 37.5681 13.9271C38.4727 11.7752 39.3246 9.61447 40.3063 7.52936C40.7227 6.64488 41.174 5.73724 41.6629 4.93438C41.9182 4.51512 42.1542 4.07164 42.4017 3.64287C42.5737 3.34498 42.4723 3.68309 42.4518 3.91791" stroke="black" stroke-linecap="round" stroke-linejoin="round"/>
<path d="M29.5001 32.5749C30.4133 30.7968 31.7601 29.3842 32.8128 27.7449C33.2757 27.0242 33.7909 26.3423 34.2117 25.5757C34.6644 24.7512 35.0515 23.8634 35.5248 23.0595C36.4928 21.4154 37.3651 19.65 38.2711 17.9403C38.6458 17.2332 38.9948 16.5012 39.3439 15.7711C39.6088 15.2169 39.9606 14.7675 40.2364 14.2267C41.3976 11.95 42.6101 9.82188 43.5191 7.32583C43.9734 6.07843 44.4644 4.82173 44.9652 3.60644C45.1387 3.18554 45.2953 2.78021 45.4458 2.34544C45.5334 2.09244 45.4887 2.49325 45.4887 2.58838" stroke="black" stroke-linecap="round" stroke-linejoin="round"/>
<path d="M47.5001 3.526C46.7455 4.81633 45.6466 5.91074 45.0774 7.40339C44.8195 8.07987 44.5885 8.65174 44.2783 9.28969C43.9353 9.99503 43.5673 10.6887 43.2436 11.4089C42.6211 12.7937 41.9318 14.1601 41.2331 15.4726C40.9951 15.9197 40.687 16.2978 40.4592 16.7534C40.2557 17.1601 40.0984 17.6298 39.8535 17.9876C39.5467 18.4359 39.3464 19.0967 39.0964 19.6061C38.659 20.4974 38.2083 21.3878 37.7504 22.2609C36.7321 24.203 35.4723 25.8697 34.3856 27.7335C33.8896 28.5843 33.3735 29.5003 32.9639 30.4349C32.673 31.0987 32.2966 31.9123 31.9208 32.4725C31.8158 32.6291 31.6104 33.1761 31.6012 33.3924C31.5877 33.7093 31.3807 33.9133 31.6012 33.8116" stroke="black" stroke-linecap="round" stroke-linejoin="round"/>
<path d="M48.5001 3.526C47.0831 7.90213 44.9104 11.9684 42.7636 15.7515C41.755 17.5289 40.686 19.2446 39.872 21.2045C39.5348 22.0167 39.246 22.8439 38.87 23.6281C38.6107 24.1686 38.4783 24.7883 38.2203 25.3269C37.7445 26.3201 37.2758 27.2046 36.6195 28.0109C35.9765 28.8011 35.2991 29.5462 34.7003 30.3892C34.5491 30.602 33.3314 32.3236 33.5199 32.5749" stroke="black" stroke-linecap="round" stroke-linejoin="round"/>
<path d="M50.5001 3.526C49.9244 5.50984 49.2472 7.35701 48.4776 9.21535C47.1232 12.4858 45.9 15.9117 44.3691 19.0301C43.5405 20.7178 42.7211 22.416 41.7753 23.9817C40.9671 25.3197 40.0893 26.714 39.3974 28.172C39.1038 28.7907 38.7836 29.3859 38.42 29.9307C37.8854 30.7316 37.4348 31.6294 36.8798 32.4036C36.6896 32.6689 36.7139 32.9154 36.6556 33.2711C36.641 33.3601 36.6702 33.6048 36.6217 33.6725C36.0251 34.5047 37.7867 31.9689 38.3904 31.1465" stroke="black" stroke-linecap="round" stroke-linejoin="round"/>
<path d="M53.5001 3.526C52.9247 5.02837 52.1438 6.44339 51.4675 7.86783C50.2784 10.3721 49.0001 12.7853 47.7523 15.2363C46.7978 17.1112 45.9584 19.0943 44.9638 20.9335C44.1093 22.5137 43.032 23.8891 42.1326 25.4304C41.5243 26.4727 40.7598 27.4664 40.2963 28.6466C39.9569 29.511 39.5227 30.2586 39.1305 31.076C39.054 31.2356 38.4077 32.4355 38.5114 32.5749" stroke="black" stroke-linecap="round" stroke-linejoin="round"/>
<path d="M54.5001 3.526C53.5003 5.99743 52.3502 8.32904 51.2437 10.709C50.1527 13.0556 49.1975 15.5489 48.2181 17.9859C46.8234 21.4561 45.0207 24.6442 43.3035 27.8097C42.7267 28.8732 42.0511 29.7176 41.3634 30.6501C40.9651 31.1901 40.5001 31.766 40.5001 32.5749" stroke="black" stroke-linecap="round" stroke-linejoin="round"/>
<path d="M56.5001 3.526C55.2142 7.22351 53.9895 10.9039 52.2683 14.2494C51.1455 16.432 50.1324 18.7239 48.9983 20.8939C47.8553 23.081 46.5952 25.1424 45.4732 27.3492C44.9474 28.3834 44.0264 28.8427 43.4493 29.8025C43.0747 30.4256 42.5001 31.7422 42.5001 32.5749" stroke="black" stroke-linecap="round" stroke-linejoin="round"/>
<path d="M44.5001 32.5749C45.6982 29.687 46.9339 26.8451 48.2773 24.0842C49.6963 21.1682 51.0475 18.168 52.5738 15.3581C52.9755 14.6186 53.4289 13.9408 53.805 13.1736C54.2048 12.3579 54.5438 11.4828 54.9775 10.7006C55.4739 9.80542 56.0295 8.9689 56.5437 8.09216C57.6341 6.23264 58.2895 3.96521 59.5001 2.26294" stroke="black" stroke-linecap="round" stroke-linejoin="round"/>
<path d="M46.5001 32.5749C47.1509 31.4812 47.8699 30.4521 48.5532 29.3934C50.6166 26.1965 52.9077 23.1911 54.8408 19.8603C56.3059 17.3359 57.7118 14.7837 59.2523 12.3329C60.1088 10.9704 61.1027 9.73817 61.8984 8.31562C62.7959 6.71084 63.705 5.18321 64.5001 3.526" stroke="black" stroke-linecap="round" stroke-linejoin="round"/>
<path d="M48.5001 31.3119C50.6274 27.1501 53.0914 23.2934 55.0135 18.9267C55.895 16.9242 56.7562 14.9421 57.7752 13.0752C58.6905 11.3984 59.4754 9.59577 60.3872 7.91766C61.1581 6.49889 61.7711 4.92427 62.5001 3.526" stroke="black" stroke-linecap="round" stroke-linejoin="round"/>
<path d="M47.5001 30.0489C48.3103 28.5476 49.0589 26.9664 49.9376 25.5411C50.8653 24.0363 51.8478 22.6006 52.7773 21.0973C54.0419 19.0519 55.0104 16.7497 56.0683 14.487C57.0106 12.4714 57.8775 10.4544 58.6535 8.30176C59.054 7.19095 59.4546 6.06688 59.8682 4.96455C60.0394 4.50805 60.3868 4.00858 60.5001 3.526" stroke="black" stroke-linecap="round" stroke-linejoin="round"/>
<path d="M50.5001 32.5749C51.7493 30.3545 53.1178 28.2637 54.3078 25.9808C55.0423 24.5718 55.6659 23.0749 56.3463 21.6194C57.12 19.9643 58.0065 18.4271 58.8762 16.8647C59.9242 14.9818 60.7468 12.8812 61.7993 11.0167C62.4131 9.92925 63.1522 8.95822 63.7138 7.81798C64.5052 6.21113 65.5966 4.99359 66.5001 3.526" stroke="black" stroke-linecap="round" stroke-linejoin="round"/>
<path d="M52.5001 33.8379C53.3497 32.069 54.2123 30.3638 55.246 28.7886C56.5505 26.8007 57.9417 24.9285 59.2337 22.9231C61.4067 19.5499 63.06 15.7606 64.8916 12.0448C65.8033 10.1951 66.3336 7.95326 67.3576 6.2098C67.7754 5.49847 68.1335 4.74198 68.5382 4.0171C68.8841 3.39751 69.2444 2.97529 69.5001 2.26294" stroke="black" stroke-linecap="round" stroke-linejoin="round"/>
<path d="M53.5001 33.8379C54.9161 30.8883 56.5794 28.2602 58.2379 25.5465C59.6514 23.2337 61.0284 20.7898 61.9668 18.0738C62.2673 17.2039 62.4254 16.2749 62.7446 15.4016C63.2451 14.0318 63.5715 12.5693 64.1046 11.215C64.6798 9.75372 65.5273 8.65442 66.3001 7.3968C66.7977 6.58705 67.074 5.62977 67.5001 4.78894" stroke="black" stroke-linecap="round" stroke-linejoin="round"/>
<path d="M55.5001 33.8379C56.5693 31.7833 57.6048 29.7354 58.7754 27.7824C60.1158 25.5461 61.4833 23.3477 62.7178 20.994C63.5568 19.3943 64.3249 17.7266 65.1525 16.116C66.138 14.198 67.2089 12.3679 68.1158 10.3729C68.6301 9.24164 69.116 8.08748 69.6495 6.97275C70.2738 5.66809 71.1233 4.70208 71.781 3.45241C71.9956 3.04449 72.2632 2.59149 72.5001 2.26294" stroke="black" stroke-linecap="round" stroke-linejoin="round"/>
<path d="M58.5001 33.8379C61.4302 28.3665 64.1062 22.7184 66.7083 16.9376C67.5608 15.0436 68.4674 13.2319 69.4443 11.4571C70.0077 10.4335 70.6267 9.49012 71.144 8.41502C71.7222 7.21346 72.3718 6.31805 73.1776 5.42729C73.7028 4.8468 74.1155 4.27562 74.5001 3.526" stroke="black" stroke-linecap="round" stroke-linejoin="round"/>
<path d="M60.5001 32.5749C62.8907 27.2038 65.7312 22.021 68.9916 17.5508C70.1855 15.9138 71.2929 14.2605 72.3292 12.4394C72.8744 11.4812 73.3884 10.4271 73.9788 9.52187C74.5071 8.71165 75.0557 7.9206 75.6112 7.1442C76.0214 6.57089 76.3138 5.7887 76.6497 5.13409C76.9287 4.59035 77.2308 4.06882 77.5001 3.526" stroke="black" stroke-linecap="round" stroke-linejoin="round"/>
<path d="M63.5001 32.5749C65.9056 28.4529 68.2387 24.2949 70.457 19.9774C72.381 16.2329 74.2593 12.5269 76.5691 9.19982C77.7449 7.50616 78.9389 5.83645 80.1725 4.22465C80.4112 3.91285 81.221 2.26294 81.5001 2.26294" stroke="black" stroke-linecap="round" stroke-linejoin="round"/>
<path d="M65.5001 33.8379C65.8184 33.3751 66.0822 32.8704 66.3415 32.3449C67.3212 30.3598 68.2368 28.3174 69.162 26.286C70.3974 23.5736 71.5269 20.7778 72.7638 18.0685C74.2633 14.7837 76.1351 11.6915 78.3274 9.19719C79.2788 8.11468 80.1632 6.95782 81.1006 5.86971C81.6036 5.28583 82.2012 4.332 82.5001 3.526" stroke="black" stroke-linecap="round" stroke-linejoin="round"/>
<path d="M63.5001 32.5749C65.1173 29.3507 66.9648 26.339 68.2709 22.8024C69.267 20.1052 69.9971 17.1962 71.0566 14.5493C71.608 13.1719 72.3619 12.1022 72.9963 10.8238C73.3972 10.0159 73.8131 9.22266 74.2262 8.42931C74.5681 7.77257 75.0029 7.35775 75.4023 6.78233C75.6958 6.35955 75.9934 5.87612 76.1865 5.33591C76.2687 5.10583 76.4191 5.02765 76.5001 4.78894" stroke="black" stroke-linecap="round" stroke-linejoin="round"/>
<path d="M83.5001 3.526C82.3687 5.06229 81.261 6.58169 80.0757 8.05065C78.3939 10.1351 76.8874 12.3548 75.5084 14.803C74.3106 16.9295 73.0191 19.0817 71.9758 21.3476C71.2084 23.0141 70.5392 24.7292 69.8631 26.4609C69.4334 27.5616 68.9728 28.6331 68.5773 29.7563C68.3603 30.3727 68.1918 31.0809 67.915 31.655C67.8144 31.8635 67.2788 32.8336 67.6033 32.5091" stroke="black" stroke-linecap="round" stroke-linejoin="round"/>
<path d="M70.5001 32.5749C71.7053 29.3905 72.9937 26.2593 74.2271 23.0922C75.9862 18.5755 77.6975 14.1166 79.8266 9.88119C80.5383 8.46533 81.3198 7.11739 82.0913 5.75827C82.5408 4.96654 82.928 4.17385 83.5001 3.526" stroke="black" stroke-linecap="round" stroke-linejoin="round"/>
<path d="M85.5001 3.526C84.7389 4.41268 84.102 5.48657 83.4679 6.53798C81.7078 9.4562 79.8057 12.186 77.9751 15.0188C76.2325 17.7154 74.8825 20.744 73.3669 23.6708C72.2697 25.7897 71.2065 27.9355 70.1351 30.0787C69.5517 31.2459 69.0367 32.5378 68.6897 33.8761C68.6054 34.2013 68.5645 34.5502 68.5085 34.886C68.4169 35.4342 69.1048 34.7726 69.2679 34.6734" stroke="black" stroke-linecap="round" stroke-linejoin="round"/>
<path d="M71.5001 32.5749C73.3083 29.5193 75.4083 26.8088 77.4856 24.0847C79.6491 21.2477 81.7819 18.3864 84.0501 15.6967C86.0786 13.2914 88.1579 10.8349 89.9335 8.08057C90.3664 7.40905 90.6072 6.60103 90.9595 5.86723C91.085 5.60565 91.3114 4.9147 91.5001 4.78894" stroke="black" stroke-linecap="round" stroke-linejoin="round"/>
<path d="M89.5001 3.526C87.0425 8.12892 83.7748 11.9112 81.0997 16.2906C79.5377 18.8478 78.1414 21.7225 76.8647 24.5423C76.1718 26.0726 75.4765 27.649 74.9171 29.2731C74.4942 30.5009 73.9744 31.7205 73.6274 32.989C73.5748 33.1811 73.5089 33.4598 73.501 33.6656C73.4854 34.0772 73.6726 33.6463 73.8147 33.4592" stroke="black" stroke-linecap="round" stroke-linejoin="round"/>
<path d="M75.5001 32.5749C75.8894 31.4001 76.3778 30.2912 76.8646 29.1847C78.4161 25.6576 79.9314 22.1044 81.4646 18.5632C83.0659 14.8643 84.4635 10.7057 86.589 7.46066C87.2404 6.46622 87.9246 5.973 88.7312 5.27579C88.9764 5.06389 89.251 4.98863 89.5001 4.78894" stroke="black" stroke-linecap="round" stroke-linejoin="round"/>
<path d="M78.5001 32.5749C81.7367 24.3997 85.5539 16.7434 88.8479 8.61946C89.6186 6.71865 90.4444 5.0782 91.5001 3.526" stroke="black" stroke-linecap="round" stroke-linejoin="round"/>
<path d="M80.5001 32.5749C81.323 31.0189 82.1616 29.4843 83.0001 27.9432C84.5447 25.1043 85.8411 22.0496 87.2694 19.105C88.9312 15.6788 90.535 12.2104 91.9232 8.56558C92.5546 6.90772 93.1249 5.31653 93.5001 3.526" stroke="black" stroke-linecap="round" stroke-linejoin="round"/>
<path d="M85.5001 31.3119C85.9402 29.3019 86.647 27.4 87.3026 25.5132C88.1484 23.0791 88.9407 20.6278 89.7223 18.1538C90.2143 16.5967 90.8365 15.1359 91.3437 13.5911C91.7745 12.2793 92.2323 11.0088 92.7512 9.75761C93.3245 8.37496 93.9638 7.04853 94.5536 5.67915C94.8031 5.09994 95.5001 4.23257 95.5001 3.526" stroke="black" stroke-linecap="round" stroke-linejoin="round"/>
<path d="M91.5001 3.526C91.2735 5.02327 90.8782 6.26662 90.3772 7.61905C89.3036 10.5169 88.2708 13.4005 87.3362 16.3957C86.5672 18.8601 85.7375 21.3199 84.8608 23.7106C84.429 24.8878 83.9668 25.9303 83.6804 27.2013C83.363 28.6105 82.9577 30.0063 82.5001 31.3119" stroke="black" stroke-linecap="round" stroke-linejoin="round"/>
<path d="M86.5001 32.5749C87.6836 29.7809 89.0814 27.1526 90.1252 24.2485C91.3149 20.9387 92.3951 17.5683 93.5341 14.2264C94.0179 12.807 94.6405 11.5181 95.1513 10.1275C95.4775 9.23958 95.6969 8.26326 96.0784 7.42024C96.637 6.18551 96.9291 4.73078 97.5001 3.526" stroke="black" stroke-linecap="round" stroke-linejoin="round"/>
<path d="M87.5001 33.8379C89.0435 29.5998 90.7585 25.4663 92.6427 21.5048C93.9208 18.8175 95.3531 16.1621 96.3669 13.2544C96.7804 12.0686 97.3677 11.0007 97.794 9.81373C98.0501 9.10057 98.3523 8.39471 98.6641 7.72388C99.0048 6.99079 99.2842 6.20694 99.6778 5.5371C100.018 4.95887 100.144 4.12102 100.5 3.526" stroke="black" stroke-linecap="round" stroke-linejoin="round"/>
<path d="M101.5 3.526C99.4979 7.87496 97.1262 11.9068 94.9625 16.1181C93.049 19.8427 91.533 23.8229 90.4913 28.1076C90.2261 29.1985 89.989 30.3048 89.7794 31.4135C89.7191 31.7323 89.38 33.2272 89.5449 32.2457" stroke="black" stroke-linecap="round" stroke-linejoin="round"/>
<path d="M102.5 3.526C99.8543 9.96055 97.3177 16.4846 94.632 22.8868C93.5524 25.4603 92.4171 28.0497 91.5355 30.7758C91.2544 31.6448 90.8905 32.4656 90.6218 33.3382C90.4344 33.9467 90.4297 33.9866 90.8502 33.5281" stroke="black" stroke-linecap="round" stroke-linejoin="round"/>
<path d="M104.5 3.526C103.683 6.02289 102.519 8.28391 101.552 10.6638C100.517 13.2114 99.5129 15.7812 98.5129 18.357C97.6606 20.5524 96.6444 22.6512 95.8991 24.9275C95.2826 26.8108 94.7147 28.8452 94.3342 30.8599C94.2818 31.1373 94.2443 31.414 94.1856 31.6871C94.111 32.0341 93.9518 32.2646 93.8387 32.603C93.696 33.03 93.5001 33.3638 93.5001 33.8379" stroke="black" stroke-linecap="round" stroke-linejoin="round"/>
<path d="M106.5 3.526C103.601 8.40348 101.289 13.9388 98.7488 19.1723C97.405 21.9414 96.0543 24.6656 94.8228 27.5314C94.3397 28.6557 93.5001 29.9124 93.5001 31.3119" stroke="black" stroke-linecap="round" stroke-linejoin="round"/>
<path d="M108.5 2.26294C107.43 4.55336 106.323 6.7694 105.313 9.12123C104.086 11.9768 102.746 14.8453 101.801 17.9286C101.373 19.326 100.978 20.7497 100.526 22.1313C100.076 23.5034 99.4586 24.6894 98.9088 25.9685C98.6813 26.4976 96.2245 33.6201 96.5257 33.8379" stroke="black" stroke-linecap="round" stroke-linejoin="round"/>
<path d="M109.5 3.526C108.333 5.9754 107.432 8.68024 106.498 11.2914C105.014 15.4427 103.418 19.5331 102 23.7257C101.314 25.7539 100.782 27.8683 100.19 29.9428C100.045 30.4498 99.9152 31.0299 99.8272 31.5566C99.7639 31.9351 99.59 32.2164 99.5001 32.5749" stroke="black" stroke-linecap="round" stroke-linejoin="round"/>
<path d="M111.5 4.78894C110.038 7.5883 108.689 10.4734 107.176 13.2316C105.495 16.2969 103.798 19.3442 102.212 22.4973C101.743 23.4294 101.292 24.364 100.913 25.3664C100.562 26.2938 100.274 27.2306 99.8182 28.0826C99.1987 29.2399 98.2396 30.3229 97.8075 31.6454C97.7243 31.9 97.639 32.1598 97.5495 32.4097C97.5479 32.4141 97.482 32.5856 97.505 32.5743C98.0711 32.2972 98.6479 31.7376 99.1687 31.3515" stroke="black" stroke-linecap="round" stroke-linejoin="round"/>
<path d="M113.5 3.526C112.965 4.20413 112.511 4.97997 112.047 5.75379C110.621 8.13232 109.311 10.6166 108.102 13.2265C106.903 15.8167 105.749 18.4455 104.689 21.1553C104.104 22.651 103.536 24.1902 103.15 25.8156C102.833 27.1441 102.433 28.2178 101.928 29.4174C101.477 30.4897 100.848 31.4247 100.5 32.5749" stroke="black" stroke-linecap="round" stroke-linejoin="round"/>
<path d="M103.5 32.5749C103.71 31.4129 104.103 30.2891 104.47 29.2149C105.319 26.7355 106.296 24.3639 107.212 21.9368C108.417 18.7448 109.53 15.5258 110.858 12.4264C111.563 10.7819 112.258 9.13707 112.918 7.45617C113.293 6.50049 113.672 5.55314 114.065 4.61352C114.152 4.40504 114.657 2.92603 114.451 3.79968" stroke="black" stroke-linecap="round" stroke-linejoin="round"/>
<path d="M116.5 3.526C115.691 5.2859 114.843 7.00762 114.074 8.80338C112.683 12.0517 111.473 15.4402 110.086 18.6925C108.662 22.0325 107.405 25.5726 106.277 29.1284C106.045 29.8596 105.658 30.7593 105.658 31.6007C105.658 31.8869 105.565 32.18 105.505 32.4506C105.424 32.8189 106.356 32.2578 106.498 32.195" stroke="black" stroke-linecap="round" stroke-linejoin="round"/>
<path d="M119.5 3.526C118.447 4.76552 117.656 6.08261 116.851 7.61437C115.585 10.0192 114.399 12.4637 113.346 15.0436C111.945 18.4788 110.558 21.9547 109.261 25.4628C108.561 27.3572 107.631 29.1192 106.97 31.029C106.791 31.5476 106.692 32.0656 106.5 32.5749" stroke="black" stroke-linecap="round" stroke-linejoin="round"/>
<path d="M120.5 3.526C118.84 8.03322 117.223 12.5648 115.46 17.0095C114.45 19.5554 113.417 22.08 112.553 24.7177C112.063 26.215 111.569 27.7133 111.016 29.1737C110.655 30.1248 110.309 31.0118 109.842 31.8819C109.436 32.6402 109 33.1873 108.5 33.8379" stroke="black" stroke-linecap="round" stroke-linejoin="round"/>
<path d="M107.5 32.5749C108.658 29.5289 109.996 26.609 111.225 23.6085C112.12 21.4241 112.937 19.1808 113.936 17.0719C115.05 14.7219 116.359 12.5546 117.379 10.1264C117.965 8.73267 118.439 7.24704 119.099 5.90691C119.588 4.91104 120.111 3.92367 120.627 2.94973C120.941 2.35741 121.364 1.70961 121.5 1" stroke="black" stroke-linecap="round" stroke-linejoin="round"/>
<path d="M111.5 33.8379C113.158 29.6836 114.639 25.3305 116.101 21.0421C117.508 16.9142 118.886 12.7708 120.309 8.65482C120.779 7.29598 121.272 5.93236 121.714 4.55777C121.954 3.81447 122.358 3.04288 122.5 2.26294" stroke="black" stroke-linecap="round" stroke-linejoin="round"/>
<path d="M113.5 32.5749C114.631 28.6649 115.789 24.7951 116.829 20.8316C117.82 17.0585 118.685 13.2533 119.884 9.60288C120.279 8.39914 120.555 6.96105 121.064 5.84092C121.197 5.54772 121.426 5.10275 121.5 4.78894" stroke="black" stroke-linecap="round" stroke-linejoin="round"/>
<path d="M115.5 33.8379C116.171 31.2414 117.249 28.8632 118.098 26.3752C119.331 22.7662 120.558 19.1518 121.68 15.4735C122.595 12.4709 123.821 9.64728 124.611 6.56901C124.868 5.56857 125.038 4.37792 125.5 3.526" stroke="black" stroke-linecap="round" stroke-linejoin="round"/>
<path d="M115.5 31.3119C116.714 27.5858 117.892 23.9524 118.851 20.0855C119.833 16.1209 120.946 12.1975 121.884 8.21604C122.079 7.38652 122.238 6.5517 122.481 5.74252C122.702 5.00441 123.002 4.30949 123.186 3.55285C123.228 3.3843 123.5 1.95133 123.5 2.32478" stroke="black" stroke-linecap="round" stroke-linejoin="round"/>
<path d="M119.5 30.0489C120.68 26.9935 121.955 23.9553 123.018 20.8294C124.061 17.7639 124.996 14.6349 125.982 11.54C126.519 9.85551 127.125 8.21514 127.641 6.52541C127.788 6.04433 127.86 5.37864 128.05 4.94126C128.143 4.72715 128.135 4.50502 128.191 4.28313C128.261 4.00453 128.431 3.79045 128.5 3.526" stroke="black" stroke-linecap="round" stroke-linejoin="round"/>
<path d="M118.5 33.8379C119.051 31.6952 119.811 29.6635 120.43 27.5612C121.19 24.9788 121.792 22.3045 122.432 19.6528C123.272 16.1741 124.35 12.8857 125.203 9.422C125.44 8.45801 125.679 7.49833 125.908 6.52783C126.019 6.05328 126.265 5.13871 126.5 4.78894" stroke="black" stroke-linecap="round" stroke-linejoin="round"/>
<path d="M130.5 3.526C129.741 4.92136 129.24 6.5545 128.512 7.98995C127.229 10.5205 126.037 13.0828 124.923 15.7716C123.579 19.015 122.639 22.7349 122.126 26.4332C121.958 27.6482 121.72 28.977 121.72 30.2175C121.72 30.4953 121.496 31.3184 121.5 31.3119" stroke="black" stroke-linecap="round" stroke-linejoin="round"/>
<path d="M131.5 4.78894C130.262 8.14601 129.034 11.4969 127.851 14.8932C127.036 17.2346 126.26 19.6646 125.313 21.9069C124.822 23.0697 124.367 24.2479 123.821 25.3625C123.466 26.0869 123.066 26.795 122.852 27.632C122.69 28.2642 122.537 28.902 122.37 29.5308C122.163 30.3037 121.79 31.147 121.725 31.977C121.697 32.3321 121.667 32.7249 121.607 33.0719C121.567 33.305 121.487 33.5682 121.502 33.8131C121.507 33.8989 121.614 33.7385 121.66 33.682C121.956 33.3196 122.282 33.0342 122.597 32.7069" stroke="black" stroke-linecap="round" stroke-linejoin="round"/>
<path d="M134.5 3.526C132.758 7.26994 131.587 11.5081 130.274 15.5346C128.866 19.8525 127.14 23.9746 125.841 28.3562C125.26 30.3163 124.522 32.2294 123.5 33.8379" stroke="black" stroke-linecap="round" stroke-linejoin="round"/>
<path d="M136.5 3.526C135.149 5.98452 134.133 8.68363 133.081 11.3746C132.011 14.1121 130.94 16.8451 129.88 19.5888C129.325 21.0253 128.927 22.5607 128.352 23.9833C127.938 25.0082 127.53 26.0266 127.174 27.0891C126.817 28.1539 126.028 29.515 125.978 30.6941C125.951 31.3505 125.5 31.9386 125.5 32.5749" stroke="black" stroke-linecap="round" stroke-linejoin="round"/>
<path d="M137.5 3.526C136.022 6.96527 134.73 10.5349 133.327 14.0316C132.527 16.0261 131.671 17.9834 130.952 20.0373C130.372 21.6931 129.939 23.4208 129.514 25.1604C129.297 26.0481 129.051 26.908 128.811 27.7796C128.684 28.2434 128.679 28.7351 128.543 29.1988C128.34 29.8937 127.897 30.6984 127.866 31.4603C127.853 31.7944 127.16 33.0333 127.715 32.3949" stroke="black" stroke-linecap="round" stroke-linejoin="round"/>
<path d="M139.5 3.526C138.628 5.96404 137.906 8.43273 137.161 10.9425C136.028 14.7643 134.765 18.5065 133.335 22.1503C132.382 24.5804 131.622 27.117 130.665 29.5371C130.395 30.2189 129.997 30.7972 129.805 31.5307C129.713 31.8799 129.616 32.2688 129.5 32.5749" stroke="black" stroke-linecap="round" stroke-linejoin="round"/>
<path d="M142.5 3.526C139.201 9.37625 137.02 16.2006 134.395 22.6162C133.646 24.4482 133.117 26.407 132.653 28.3915C132.551 28.826 131.785 31.3119 131.5 31.3119" stroke="black" stroke-linecap="round" stroke-linejoin="round"/>
<path d="M133.5 32.5749C133.949 30.8267 134.727 29.2722 135.322 27.6274C136.078 25.5382 136.766 23.3831 137.593 21.3488C138.876 18.1942 140.053 15.0088 141.188 11.7365C141.662 10.3702 142.033 8.96157 142.471 7.57824C142.698 6.85925 142.99 6.17053 143.19 5.43432C143.375 4.75252 143.5 4.26723 143.5 3.526" stroke="black" stroke-linecap="round" stroke-linejoin="round"/>
<path d="M134.5 32.5749C135.384 29.7238 136.926 27.2911 138.151 24.687C139.409 22.0133 140.639 19.284 141.793 16.5302C142.877 13.9448 143.761 11.1792 144.921 8.654C145.326 7.77164 145.468 6.75027 145.816 5.8415C146.101 5.09596 146.347 4.32709 146.5 3.526" stroke="black" stroke-linecap="round" stroke-linejoin="round"/>
<path d="M138.5 32.5749C138.723 31.0549 139.157 29.7021 139.549 28.2518C140.222 25.7554 140.875 23.2638 141.667 20.8305C142.276 18.9611 142.971 17.1319 143.432 15.1821C143.756 13.815 144.166 12.5135 144.558 11.1829C145.086 9.39609 145.563 7.57858 145.956 5.72882C146.095 5.07846 146.143 4.01317 146.5 3.526" stroke="black" stroke-linecap="round" stroke-linejoin="round"/>
<path d="M139.5 32.5749C141.014 27.845 142.311 22.9826 143.947 18.3194C144.526 16.6709 144.928 14.9432 145.456 13.2674C145.869 11.9591 146.29 10.6567 146.684 9.33813C147.268 7.38545 148.011 5.48145 148.5 3.526" stroke="black" stroke-linecap="round" stroke-linejoin="round"/>
<path d="M150.5 3.526C150.068 6.07168 149.131 8.30321 148.426 10.7095C147.537 13.7455 146.815 16.876 146.007 19.9538C145.168 23.1517 144.401 26.4743 143.391 29.5749C143.109 30.4406 142.937 31.3404 142.771 32.2481C142.725 32.5005 142.417 33.6952 142.522 33.8379" stroke="black" stroke-linecap="round" stroke-linejoin="round"/>
<path d="M144.5 32.5749C144.731 30.2393 145.22 28.046 145.718 25.7934C146.409 22.6604 146.988 19.4758 147.814 16.4017C148.564 13.6123 149.535 10.8972 150.511 8.24514C150.853 7.31639 151.055 6.28667 151.255 5.28548C151.305 5.03368 151.315 3.526 151.5 3.526" stroke="black" stroke-linecap="round" stroke-linejoin="round"/>
<path d="M153.5 3.526C152.388 5.66133 151.426 7.93779 150.434 10.1826C149.35 12.6361 148.328 15.077 147.576 17.7701C146.558 21.418 145.4 24.9317 144.627 28.7034C144.335 30.1255 143.75 31.5449 143.582 33.0034C143.556 33.2324 143.526 33.4653 143.503 33.69C143.444 34.266 144.356 32.9832 144.476 32.8521" stroke="black" stroke-linecap="round" stroke-linejoin="round"/>
<path d="M155.5 3.526C154.653 5.41605 153.772 7.27757 152.923 9.16566C151.927 11.3799 151.145 13.7356 150.176 15.9705C149.452 17.6396 148.894 19.3797 148.234 21.0859C147.716 22.4232 147.07 23.6747 146.511 24.9835C146.121 25.8992 145.642 26.7286 145.317 27.6927C145.194 28.0558 145.043 28.4799 144.865 28.7996C144.524 29.4089 144.274 30.1963 144.064 30.897C143.913 31.3986 143.5 32.0365 143.5 32.5749" stroke="black" stroke-linecap="round" stroke-linejoin="round"/>
<path d="M146.5 32.5749C146.923 29.6443 148.041 26.9544 148.974 24.2793C150.076 21.1177 151.33 18.0493 152.586 14.9989C153.765 12.1334 155.352 9.63743 156.362 6.63377C156.597 5.93699 156.8 5.22149 157.028 4.5251C157.094 4.32294 157.5 3.26422 157.5 3.58663" stroke="black" stroke-linecap="round" stroke-linejoin="round"/>
<path d="M147.5 32.5749C149.882 27.699 152.418 22.9874 154.353 17.7497C154.885 16.3093 155.401 14.9258 155.803 13.4056C156.158 12.0636 156.714 10.8779 157.102 9.56485C157.537 8.09215 158.107 6.55427 158.717 5.19767C158.911 4.76448 159.188 3.73465 159.5 3.526" stroke="black" stroke-linecap="round" stroke-linejoin="round"/>
<path d="M161.5 3.526C159.926 8.93567 157.665 13.8477 155.931 19.1434C155.196 21.3868 154.438 23.6151 153.699 25.8554C153.382 26.8144 153.075 27.8843 152.646 28.762C151.84 30.4082 151.033 31.9968 150.5 33.8379" stroke="black" stroke-linecap="round" stroke-linejoin="round"/>
<path d="M148.5 32.5749C149.268 29.7618 150.512 27.1488 151.575 24.5116C153.043 20.8717 154.634 17.3161 156.055 13.6438C156.545 12.3777 157.019 11.1039 157.302 9.73092C157.523 8.65209 157.666 7.57191 158.01 6.54182C158.201 5.97056 158.369 5.38212 158.5 4.78894" stroke="black" stroke-linecap="round" stroke-linejoin="round"/>
<path d="M153.5 32.5749C154.142 30.6778 155.033 29.0088 155.908 27.3176C157.047 25.1141 158.119 22.8208 159.145 20.5078C160.025 18.5252 160.977 16.612 161.851 14.6272C162.513 13.1261 163.089 11.5714 163.773 10.0873C164.24 9.07455 164.724 8.1496 165.118 7.07053C165.41 6.27021 165.681 5.39483 166.044 4.65358C166.13 4.47739 166.5 3.27994 166.5 3.57154" stroke="black" stroke-linecap="round" stroke-linejoin="round"/>
<path d="M165.5 3.526C164.611 5.05933 163.86 6.71154 162.946 8.22512C161.82 10.0909 160.663 11.8955 159.626 13.8501C158.343 16.2682 157.136 18.7187 155.978 21.2336C155.7 21.8357 155.54 22.4981 155.347 23.1493C155.057 24.1302 154.703 25.0685 154.392 26.0375C154.097 26.9569 153.742 27.8498 153.5 28.7859" stroke="black" stroke-linecap="round" stroke-linejoin="round"/>
<path d="M155.5 32.5749C159.072 25.136 162.452 17.5306 165.908 9.99304C167.003 7.60457 167.978 5.14463 168.853 2.60412C169.013 2.14094 169.206 1.69434 169.38 1.24019C169.516 0.88381 169.517 0.941024 169.478 1.29949" stroke="black" stroke-linecap="round" stroke-linejoin="round"/>
<path d="M157.5 33.8379C159.391 30.0857 161.101 26.0345 162.67 21.9975C163.511 19.8335 164.444 17.7395 165.255 15.5529C165.737 14.2535 166.085 12.8711 166.555 11.5672C167.127 9.98403 167.57 8.30878 168.101 6.69588C168.462 5.60138 168.97 4.46999 169.5 3.526" stroke="black" stroke-linecap="round" stroke-linejoin="round"/>
<path d="M161.5 30.0489C163.53 25.859 165.506 21.6473 167.389 17.3378C168.596 14.5754 169.764 11.7604 171.016 9.03534C171.847 7.22536 172.544 5.22305 173.5 3.526" stroke="black" stroke-linecap="round" stroke-linejoin="round"/>
<path d="M174.5 3.526C172.849 7.04356 171.507 10.8239 169.889 14.3666C168.175 18.1202 166.528 21.8714 165.154 25.8992C164.74 27.1136 164.29 28.3092 163.833 29.4925C163.408 30.5954 163.047 31.7799 162.56 32.8308C162.226 33.5505 161.932 34.4878 161.5 35.1009" stroke="black" stroke-linecap="round" stroke-linejoin="round"/>
<path d="M160.5 32.5749C160.913 31.4524 161.437 30.4151 161.951 29.3815C163.01 27.251 163.912 25.0108 164.743 22.6872C165.583 20.3399 166.433 18.0308 167.427 15.8037C168.09 14.3179 168.871 12.9474 169.573 11.4985C170.27 10.062 170.857 8.59009 171.46 7.07511C171.729 6.40046 172.108 5.74798 172.316 5.02897C172.443 4.58725 172.5 3.14441 172.5 3.62151" stroke="black" stroke-linecap="round" stroke-linejoin="round"/>
<path d="M171.5 3.526C170.383 6.00683 169.138 8.3806 168.019 10.8701C167.221 12.6429 166.434 14.4112 165.431 16.0156C165.143 16.4765 164.706 16.8992 164.5 17.419" stroke="black" stroke-linecap="round" stroke-linejoin="round"/>
<path d="M176.5 3.526C174.696 8.45786 172.66 13.2176 170.696 18.0326C169.235 21.615 167.59 25.0394 166.182 28.6565C165.942 29.2722 165.686 29.878 165.441 30.4906C165.281 30.8929 165.144 31.4401 164.892 31.7591C164.721 31.9762 164.602 32.2972 164.5 32.5749" stroke="black" stroke-linecap="round" stroke-linejoin="round"/>
<path d="M178.5 3.526C177.236 6.61037 176.039 9.74672 174.775 12.832C173.952 14.8397 172.99 16.7402 172.204 18.7749C171.724 20.0171 171.304 21.2876 170.748 22.4738C169.874 24.3412 168.931 26.1374 168.069 28.0162C167.463 29.3351 166.5 30.9395 166.5 32.5749" stroke="black" stroke-linecap="round" stroke-linejoin="round"/>
<path d="M180.5 4.78894C179.046 7.65836 178.008 10.883 176.854 14.0034C175.792 16.8776 174.633 19.6973 173.863 22.7679C173.401 24.6082 172.713 26.3451 172.028 28.0358C171.806 28.5846 171.559 29.2111 171.254 29.6759C171.099 29.9128 170.803 30.3636 170.74 30.6782C170.705 30.8518 170.651 30.9406 170.592 31.0883C170.347 31.6995 170.66 30.8931 170.736 30.6213" stroke="black" stroke-linecap="round" stroke-linejoin="round"/>
<path d="M179.5 4.78894C177.921 8.66442 176.652 12.7682 175.074 16.654C173.619 20.2379 172.403 23.9818 170.857 27.4959C170.291 28.783 169.713 30.1278 169.094 31.3642C168.956 31.6393 168.694 32.4404 168.5 32.5749" stroke="black" stroke-linecap="round" stroke-linejoin="round"/>
<path d="M182.5 3.526C180.782 8.50532 178.758 13.2319 176.944 18.1379C175.62 21.719 174.155 25.1889 172.734 28.6889C172.359 29.6131 172.019 30.5572 171.689 31.5146C171.6 31.7735 171.5 32.2862 171.5 32.5749" stroke="black" stroke-linecap="round" stroke-linejoin="round"/>
<path d="M172.5 32.5749C172.837 31.2644 173.35 30.0558 173.896 28.8934C174.912 26.729 175.854 24.549 176.759 22.2903C178.577 17.7541 180.688 13.4464 182.426 8.84853C183.361 6.37752 186.227 -0.987076 185.328 1.50914" stroke="black" stroke-linecap="round" stroke-linejoin="round"/>
<path d="M186.5 3.526C184.302 8.00527 182.281 12.6648 180.165 17.2227C178.629 20.5304 177.343 24.015 176.069 27.5369C175.653 28.6884 175.28 29.8867 174.91 31.0683C174.763 31.5383 174.694 32.1565 174.5 32.5749" stroke="black" stroke-linecap="round" stroke-linejoin="round"/>
<path d="M176.5 32.5749C177.056 30.8707 177.798 29.377 178.549 27.8458C179.78 25.3357 180.945 22.8152 182.057 20.1904C183.423 16.9678 184.596 13.5931 185.907 10.336C186.512 8.83219 186.992 7.23125 187.655 5.76645C187.902 5.21952 188.101 4.60383 188.309 4.02256C188.366 3.86363 188.403 3.59659 188.5 3.526" stroke="black" stroke-linecap="round" stroke-linejoin="round"/>
<path d="M190.5 3.526C189 8.29258 186.988 12.7194 185.366 17.4071C184.123 21.0022 182.883 24.5896 181.532 28.11C180.724 30.2145 179.701 32.1605 178.5 33.8379" stroke="black" stroke-linecap="round" stroke-linejoin="round"/>
<path d="M179.5 33.8379C180.03 32.2589 180.825 30.8896 181.432 29.3679C182.373 27.0066 183.24 24.6121 183.979 22.1087C185.271 17.7308 187.051 13.68 188.406 9.34417C189.024 7.36795 189.886 5.39366 190.748 3.60746C190.919 3.25293 191.122 2.9285 191.286 2.57217C191.404 2.31826 191.5 2.06867 191.5 2.48692" stroke="black" stroke-linecap="round" stroke-linejoin="round"/>
<path d="M193.5 3.526C192.843 4.84942 192.309 6.27172 191.705 7.64038C190.483 10.4097 189.352 13.2388 188.228 16.0819C187.405 18.1623 186.438 20.1384 185.504 22.1294C184.84 23.5452 184.064 24.9055 183.579 26.4566C183.101 27.9824 182.516 29.4356 182.049 30.9729C181.886 31.5118 181.634 32.0302 181.5 32.5749" stroke="black" stroke-linecap="round" stroke-linejoin="round"/>
<path d="M183.5 32.5749C184.185 30.9767 185.052 29.5708 185.779 28.0154C186.955 25.4972 188.117 22.9498 189.208 20.3604C190.054 18.3545 190.838 16.3525 191.496 14.2173C191.898 12.9111 192.443 11.7039 192.868 10.4167C193.448 8.66323 193.988 6.61238 194.794 5.03252C194.927 4.77168 195.255 3.42046 195.5 3.5326" stroke="black" stroke-linecap="round" stroke-linejoin="round"/>
<path d="M197.5 3.526C196.76 5.36901 195.992 7.15154 195.162 8.92478C193.817 11.8026 192.591 14.7742 191.266 17.6673C190.608 19.1058 189.956 20.5081 189.396 22.0212C189.024 23.0255 188.731 24.0721 188.323 25.0515C187.654 26.6571 187.105 28.3842 186.47 30.0207C186.148 30.8507 185.692 31.6748 185.5 32.5749" stroke="black" stroke-linecap="round" stroke-linejoin="round"/>
<path d="M186.5 33.8379C187.783 26.6127 190.944 20.0629 194.017 13.9027C194.653 12.6272 195.248 11.3277 195.949 10.1078C196.776 8.66836 197.679 7.27958 198.447 5.78516C198.801 5.09487 199.295 4.31949 199.5 3.526" stroke="black" stroke-linecap="round" stroke-linejoin="round"/>
<path d="M188.5 32.5749C189.187 30.1827 190.185 27.8868 191.223 25.7062C192.662 22.683 193.87 19.5311 195.011 16.3211C195.907 13.7975 196.674 11.1899 197.504 8.63062C197.687 8.06648 197.926 7.53253 198.124 6.97577C198.231 6.67372 198.279 6.23431 198.5 6.052" stroke="black" stroke-linecap="round" stroke-linejoin="round"/>
<path d="M200.5 3.526C199.5 7.40832 197.824 10.9015 196.5 14.6008C195.044 18.6702 193.491 22.6624 191.958 26.6824C191.239 28.5709 190.543 30.509 189.875 32.4296C189.716 32.8882 189.671 33.3967 189.5 33.8379" stroke="black" stroke-linecap="round" stroke-linejoin="round"/>
<path d="M191.5 32.5749C193.954 24.6887 196.536 16.9111 199.894 9.56858C200.487 8.27151 201.196 7.15111 201.853 5.92096C201.933 5.77125 202.439 4.78894 202.5 4.78894" stroke="black" stroke-linecap="round" stroke-linejoin="round"/>
<path d="M193.5 32.5749C193.771 30.2463 194.626 27.9359 195.487 25.8787C196.599 23.2231 197.661 20.6201 198.519 17.8096C199.151 15.7388 200.132 13.8453 200.666 11.7276C200.937 10.6533 201.188 9.56813 201.551 8.5361C201.95 7.40166 202.364 6.31603 202.803 5.21209C203.025 4.65618 203.346 4.1191 203.5 3.526" stroke="black" stroke-linecap="round" stroke-linejoin="round"/>
<path d="M204.5 3.526C202.791 11.6222 199.946 19.1619 197.397 26.794C196.987 28.0195 196.55 29.2262 196.127 30.4424C196.046 30.6746 195.367 32.3602 195.523 32.5749" stroke="black" stroke-linecap="round" stroke-linejoin="round"/>
<path d="M196.5 33.8379C198.134 30.3534 199.691 26.8859 201.016 23.1487C202.593 18.7044 204.122 14.2938 206.005 10.0828C206.764 8.38696 207.502 6.65868 208.096 4.83976C208.238 4.40527 208.353 3.93436 208.5 3.526" stroke="black" stroke-linecap="round" stroke-linejoin="round"/>
<path d="M206.5 3.526C205.974 5.90572 205.077 8.22138 204.144 10.352C203.379 12.0995 202.701 13.9109 201.94 15.6611C201.01 17.7992 199.952 19.8192 198.956 21.8997C197.896 24.115 197.141 26.5355 196.469 29.0051C196.16 30.1423 195.961 31.535 195.5 32.5749" stroke="black" stroke-linecap="round" stroke-linejoin="round"/>
<path d="M217.544 32.2935C217.659 31.4477 217.863 30.6364 218.122 29.843C218.733 27.9656 219.32 26.088 220.03 24.2645C221.607 20.211 222.628 15.8808 224.134 11.7822C224.864 9.79507 225.488 7.51071 226.48 5.70302C226.914 4.91153 227.249 3.91844 227.786 3.24072" stroke="black" stroke-linecap="round" stroke-linejoin="round"/>
<path d="M228.961 3.45288C228.297 5.5567 227.676 7.68781 226.965 9.76767C225.862 12.996 224.557 16.1062 223.383 19.2929C222.234 22.4104 221.039 25.5261 219.983 28.6944C219.675 29.6182 219.366 30.544 219.055 31.4689C218.933 31.8289 218.523 32.4697 218.803 32.8237" stroke="black" stroke-linecap="round" stroke-linejoin="round"/>
<path d="M220.146 33.1418C220.303 30.958 221.326 28.8718 222.077 26.9448C223.293 23.8257 224.154 20.4993 225.43 17.4196C226.183 15.6038 226.943 13.7945 227.655 11.953C228.241 10.4395 228.99 9.11975 229.717 7.71765C230.203 6.7798 230.541 5.718 230.934 4.72519C231.042 4.45203 231.284 3.68275 231.48 3.55884" stroke="black" stroke-linecap="round" stroke-linejoin="round"/>
<path d="M233.075 3.13477C231.548 7.3583 229.651 11.3638 228.262 15.6642C227.668 17.5014 227.129 19.3734 226.522 21.2014C226.006 22.7531 225.388 24.2432 224.847 25.7785C224.292 27.3564 223.764 29.0034 223.168 30.5499C223.047 30.8639 222.857 31.1434 222.749 31.4689C222.658 31.7391 222.615 32.3782 222.413 32.5056" stroke="black" stroke-linecap="round" stroke-linejoin="round"/>
<path d="M223.672 33.0357C223.924 31.514 224.386 29.9888 224.777 28.5176C225.125 27.2128 225.595 25.9624 225.995 24.6827C226.55 22.9044 227.069 21.1156 227.665 19.3576C228.355 17.3199 229.041 15.2652 229.801 13.2666C230.329 11.8753 231.075 10.6646 231.713 9.35523C232.686 7.3588 234 5.46126 234.586 3.24072" stroke="black" stroke-linecap="round" stroke-linejoin="round"/>
<path d="M235.593 3.24072C235.142 5.3368 234.751 7.39511 234.11 9.41414C233.196 12.2936 232.248 15.1452 231.433 18.0734C230.543 21.2744 229.162 24.1212 228.019 27.1686C227.222 29.2936 226.024 31.2272 225.435 33.4598" stroke="black" stroke-linecap="round" stroke-linejoin="round"/>
<path d="M224.596 31.6574C224.915 30.9853 225.275 30.3622 225.622 29.7135C226.325 28.3988 226.872 27.1394 227.338 25.6607C227.91 23.846 228.512 22.055 229.129 20.2648C229.623 18.8328 230.241 17.4943 230.715 16.0471C231.351 14.1051 231.775 12.0934 232.357 10.1329C232.471 9.74816 232.823 9.06158 232.823 8.64844" stroke="black" stroke-linecap="round" stroke-linejoin="round"/>
<path d="M175.5 32.5749C176.776 29.398 178.167 26.3089 179.444 23.1331C180 21.7509 180.417 20.2761 180.962 18.8855C181.342 17.9168 181.818 17.0415 182.18 16.0576C182.722 14.5817 183.444 13.2372 184.045 11.8041C184.506 10.7081 185.086 9.70616 185.5 8.578" stroke="black" stroke-linecap="round" stroke-linejoin="round"/>
<path d="M182.5 32.5749C183.476 29.5253 185.014 27.006 186.305 24.1821C187.65 21.2382 189.062 18.3944 190.322 15.3818C190.88 14.0481 191.359 12.7893 191.745 11.3542C191.913 10.7284 192.159 10.3435 192.5 9.84094" stroke="black" stroke-linecap="round" stroke-linejoin="round"/>
<path d="M227.282 33.1418C228.429 31.0013 229.449 28.7147 230.5 26.4972C231.165 25.0955 231.764 23.7232 232.184 22.1734C232.52 20.9353 232.846 19.7434 233.345 18.5919C234.6 15.7016 235.666 12.6798 236.895 9.77945C237.43 8.51659 237.956 7.22956 238.364 5.90339C238.554 5.28717 238.63 4.39254 239.035 3.98303" stroke="black" stroke-linecap="round" stroke-linejoin="round"/>
<path d="M237.86 3.66492C236.279 7.59165 234.496 11.3911 232.926 15.3284C231.97 17.7237 230.923 20.1141 230.206 22.6446C230.007 23.3501 229.6 24.4518 229.717 25.1894" stroke="black" stroke-linecap="round" stroke-linejoin="round"/>
<path d="M241.302 3.66492C240.629 5.76213 239.532 7.61401 238.658 9.57915C237.422 12.3559 236.374 15.2662 235.426 18.2149C234.548 20.9424 233.684 23.6076 233.224 26.5089C232.941 28.2973 232.384 30.0629 231.918 31.787C231.734 32.4697 231.396 33.3659 231.396 34.0961" stroke="black" stroke-linecap="round" stroke-linejoin="round"/>
<path d="M230.136 32.5057C231.577 29.1146 233.371 26.0204 234.717 22.5563C236.705 17.4388 238.592 12.2458 240.463 7.05798" stroke="black" stroke-linecap="round" stroke-linejoin="round"/>
<path d="M233.495 32.8237C234.559 30.4541 235.815 28.239 236.885 25.8786C237.539 24.436 238.049 22.9435 238.546 21.4076C238.991 20.0284 239.582 18.7553 240.076 17.4078C240.571 16.0547 241.106 14.6779 241.675 13.3727C242.318 11.8991 242.998 10.3664 243.55 8.83687C244.206 7.02246 244.72 5.19552 245.584 3.55884" stroke="black" stroke-linecap="round" stroke-linejoin="round"/>
<path d="M247.011 3.771C245.381 8.97902 243.278 13.9324 241.647 19.1397C240.632 22.3824 239.811 25.7221 238.765 28.9477C238.453 29.9089 238.12 30.8799 237.902 31.8695C237.844 32.1324 237.639 33.0162 237.44 33.1419" stroke="black" stroke-linecap="round" stroke-linejoin="round"/>
<path d="M235.09 32.1875C237.611 27.0783 240.28 22.1539 242.31 16.6832C243.438 13.642 244.272 10.4268 245.435 7.41132C245.787 6.49706 246.263 5.62965 246.423 4.61914" stroke="black" stroke-linecap="round" stroke-linejoin="round"/>
<path d="M243.233 3.98303C241.44 10.0809 238.683 15.602 237.207 21.8553C236.705 23.9844 235.935 26.0105 235.51 28.1583" stroke="black" stroke-linecap="round" stroke-linejoin="round"/>
<path d="M239.539 32.5057C240.03 30.1123 241.208 28.0284 242.142 25.8846C243.47 22.8342 244.713 19.7593 245.868 16.6009C246.866 13.8728 248.063 11.2346 249.128 8.54244C249.733 7.01566 249.878 5.17898 250.621 3.771" stroke="black" stroke-linecap="round" stroke-linejoin="round"/>
<path d="M248.606 3.3468C247.801 5.79727 247.03 8.18853 246.088 10.5688C244.982 13.3614 243.83 16.1329 242.664 18.8864C241.996 20.4641 241.219 22.0533 240.78 23.7639C240.53 24.738 240.203 26.0867 240.715 26.9919" stroke="black" stroke-linecap="round" stroke-linejoin="round"/>
<path d="M241.47 32.2936C242.378 28.0502 244.471 24.0785 246.311 20.4062C247.726 17.5837 249.075 14.6149 250.155 11.5584C250.531 10.4932 250.794 9.37299 251.143 8.29499C251.452 7.34277 251.838 6.43308 252.165 5.49103C252.448 4.67216 252.713 3.85297 253.14 3.13477" stroke="black" stroke-linecap="round" stroke-linejoin="round"/>
<path d="M253.643 3.45288C253.105 6.08643 252.226 8.68081 251.498 11.2403C250.553 14.5638 249.678 17.8905 248.858 21.2663C248.211 23.9316 247.846 26.8473 246.969 29.413C246.764 30.0121 246.593 30.6415 246.297 31.1802C246.095 31.5488 245.811 31.9084 245.668 32.3171C245.591 32.5356 245.5 32.8239 245.332 32.9298" stroke="black" stroke-linecap="round" stroke-linejoin="round"/>
<path d="M243.989 32.7177C244.533 31.5199 245.031 30.2759 245.621 29.1126C246.476 27.4286 247.412 25.8422 248.051 23.9995C248.745 22.0014 249.345 19.9649 250.127 18.0146C250.719 16.5369 251.394 15.1239 251.964 13.632" stroke="black" stroke-linecap="round" stroke-linejoin="round"/>
<path d="M256.33 4.30115C255.129 8.85134 253.554 13.3239 251.969 17.6789C250.82 20.8371 249.453 23.9255 248.625 27.2512C248.373 28.2614 248.118 29.27 247.809 30.2554C247.61 30.8862 247.349 31.4513 247.263 32.1287C247.209 32.5576 247.179 32.9149 247.179 33.3539" stroke="black" stroke-linecap="round" stroke-linejoin="round"/>
<path d="M248.186 33.5659C249.435 30.4864 250.905 27.5634 252.151 24.4825C253.952 20.031 255.235 15.3168 256.959 10.8279C257.389 9.71082 257.848 8.61567 258.34 7.54096C258.716 6.72089 258.972 5.83401 259.343 5.01386C259.46 4.75418 260.102 3.02152 260.108 3.02871" stroke="black" stroke-linecap="round" stroke-linejoin="round"/>
<path d="M262.039 3.13477C260.499 7.80116 258.77 12.3587 257.132 16.9719C256.405 19.02 255.579 21.0158 254.819 23.0452C254.327 24.3577 253.953 25.7215 253.494 27.0509C252.896 28.7819 252.152 30.4299 251.586 32.1757C251.431 32.6563 251.333 33.2346 251.125 33.672" stroke="black" stroke-linecap="round" stroke-linejoin="round"/>
<path d="M252.804 33.3539C253.253 32.0976 253.74 30.8646 254.236 29.6368C255.135 27.4075 255.874 25.0927 256.703 22.8213C258.066 19.0854 259.758 15.5226 260.858 11.6467C261.633 8.91795 262.584 6.21281 262.962 3.3468" stroke="black" stroke-linecap="round" stroke-linejoin="round"/>
<path d="M264.725 3.13477C262.017 11.7804 260.223 20.8651 257.375 29.4307C256.931 30.7652 256.321 31.8904 255.826 33.1418" stroke="black" stroke-linecap="round" stroke-linejoin="round"/>
<path d="M257.841 33.1419C259.309 29.6899 260.969 26.3896 262.104 22.7272C263.419 18.482 264.941 14.3803 266.143 10.0799C266.623 8.36318 266.851 6.5521 267.328 4.83131C267.546 4.04229 267.785 3.21266 267.915 2.39258" stroke="black" stroke-linecap="round" stroke-linejoin="round"/>
<path d="M269.678 3.45288C267.645 7.38101 266.24 11.7813 264.641 16C263.503 19.0026 262.608 22.1687 261.703 25.2955C261.122 27.3016 260.788 29.3985 260.061 31.3393C259.825 31.9704 259.74 32.7789 259.436 33.3539" stroke="black" stroke-linecap="round" stroke-linejoin="round"/>
<path d="M260.611 32.8237C262.586 28.7288 264.411 24.7605 265.704 20.2354C266.754 16.5618 268.148 13.0664 269.128 9.3553C269.472 8.05172 269.932 6.83107 270.331 5.56171C270.535 4.91426 270.848 4.3238 271.021 3.66492" stroke="black" stroke-linecap="round" stroke-linejoin="round"/>
<path d="M272.533 3.55884C272.089 4.58047 271.891 5.70448 271.563 6.78692C270.8 9.30087 269.714 11.625 268.755 14.0207C266.884 18.6919 265.242 23.501 263.242 28.0935C262.714 29.3064 262.421 30.6209 261.955 31.8635C261.707 32.5236 261.523 33.1582 261.451 33.884" stroke="black" stroke-linecap="round" stroke-linejoin="round"/>
<path d="M264.641 33.5659C265.156 31.1105 266.383 28.8612 267.328 26.6502C268.772 23.2695 270.154 19.9381 271.367 16.4123C272.261 13.8112 273.128 11.1652 273.876 8.48931C274.366 6.73657 274.843 4.95994 275.387 3.24072" stroke="black" stroke-linecap="round" stroke-linejoin="round"/>
<path d="M277.57 3.24072C276.899 5.34546 276.243 7.45712 275.583 9.5673C274.942 11.6183 274.374 13.7058 273.713 15.7466C273.146 17.4942 272.481 19.1864 271.898 20.9245C271.303 22.6981 270.901 24.5343 270.392 26.3439C270.064 27.5111 269.702 28.6743 269.408 29.8548C269.261 30.4438 269.244 31.1691 269.007 31.7044C268.874 32.0035 268.763 32.3006 268.652 32.6116C268.585 32.799 268.31 33.3219 268.419 33.4598" stroke="black" stroke-linecap="round" stroke-linejoin="round"/>
<path d="M269.762 33.1418C270.144 30.9464 270.826 28.8122 271.423 26.6974C272.246 23.7777 273.086 20.8297 274.086 17.9969C274.677 16.321 275.457 14.7317 276.143 13.1136C276.779 11.6106 277.436 10.1008 278.167 8.67201C278.617 7.79258 279 6.82706 279.37 5.89162C279.63 5.23422 279.92 4.19176 279.92 3.45288" stroke="black" stroke-linecap="round" stroke-linejoin="round"/>
<path d="M254.147 33.3539C256.579 29.4048 259.068 25.5014 261.022 21.1307C262.016 18.9076 263.082 16.6524 263.839 14.2799C264.545 12.0648 265.377 9.9422 266.012 7.68234C266.242 6.86501 266.411 6.26862 266.824 5.57349" stroke="black" stroke-linecap="round" stroke-linejoin="round"/>
<path d="M258.009 3.98303C256.957 5.84791 255.764 7.56089 254.483 9.1786C252.748 11.3691 251.29 13.7613 250.089 16.4712C249.171 18.5425 248.154 20.5302 247.356 22.6859C247.082 23.4259 246.863 24.1829 246.68 24.9656C246.551 25.5161 246.311 26.0276 246.19 26.5678C245.992 27.4555 245.735 27.9409 245.295 28.6826C244.744 29.6092 244.263 30.1342 244.073 31.3393" stroke="black" stroke-linecap="round" stroke-linejoin="round"/>
<path d="M262.71 33.4599C263.027 32.1739 263.502 31.0424 264.025 29.8725C264.802 28.1363 265.502 26.3589 266.19 24.565C267.025 22.3848 267.641 20.1268 268.372 17.8968C269.216 15.3249 270.321 12.9063 271.171 10.345C271.624 8.97844 271.995 7.63879 272.533 6.31574C272.689 5.93027 272.862 5.41873 273.088 5.09048C273.361 4.69261 273.699 4.39513 273.96 3.98303" stroke="black" stroke-linecap="round" stroke-linejoin="round"/>
<path d="M266.656 33.1418C268.898 27.1167 271.034 21.0345 273.19 14.9632C273.756 13.3707 274.072 11.6535 274.795 10.1505C275.22 9.26529 275.57 8.52904 275.639 7.48206" stroke="black" stroke-linecap="round" stroke-linejoin="round"/>
<path d="M281.6 3.24072C281.042 5.08101 280.477 6.91716 279.911 8.75439C279.355 10.5583 278.765 12.3936 278.344 14.2563C278.049 15.5621 277.859 16.8896 277.528 18.1853C276.797 21.0429 275.98 23.9482 274.888 26.6208C274.316 28.0204 273.856 29.5502 273.372 30.9975C273.213 31.4737 272.915 33.3538 272.449 33.3538" stroke="black" stroke-linecap="round" stroke-linejoin="round"/>
<path d="M284.538 2.92273C283.978 3.93252 283.55 4.99796 283.129 6.10958C282.078 8.88503 280.856 11.5492 279.799 14.3212C278.291 18.2783 276.533 22.059 275.019 26.0082C274.372 27.6954 274.075 29.5356 273.521 31.2568C273.379 31.7004 273.304 32.1385 273.186 32.5881C273.086 32.9658 273.079 32.9301 272.785 32.7177" stroke="black" stroke-linecap="round" stroke-linejoin="round"/>
<path d="M270.938 32.2936C272.118 29.4466 273.369 26.7101 274.683 23.9583C275.235 22.8016 275.74 21.583 276.213 20.3709C276.502 19.6288 276.553 18.8393 276.73 18.0558C277.091 16.4601 277.231 15.1738 278.073 13.844" stroke="black" stroke-linecap="round" stroke-linejoin="round"/>
<path d="M285.461 3.771C284.847 5.53357 284.331 7.34826 283.68 9.09027C282.62 11.9216 281.392 14.641 280.35 17.4845C279.62 19.4748 278.925 21.4625 278.293 23.5047C277.94 24.6442 277.66 25.8361 277.253 26.9449C276.772 28.2527 276.395 29.6687 275.993 31.0212C275.84 31.5379 275.748 32.1248 275.555 32.6117" stroke="black" stroke-linecap="round" stroke-linejoin="round"/>
<path d="M276.814 32.7177C277.389 31.3821 277.9 30.0042 278.461 28.659C279.353 26.518 279.958 24.3005 280.685 22.0732C281.21 20.4647 281.875 18.9449 282.374 17.3195C282.867 15.7128 283.224 14.0498 283.717 12.442C284.444 10.0723 285.074 7.66488 285.751 5.27307C285.861 4.88227 286.032 3.7764 286.385 3.66492" stroke="black" stroke-linecap="round" stroke-linejoin="round"/>
<path d="M287.476 3.55884C287.178 5.20181 286.675 6.85366 286.184 8.41275C285.056 11.9942 283.933 15.5809 282.728 19.122C281.718 22.0893 280.638 25.1043 279.878 28.1936C279.504 29.7177 278.661 31.0779 278.661 32.7176" stroke="black" stroke-linecap="round" stroke-linejoin="round"/>
<path d="M280.004 32.8237C280.829 30.1595 282.07 27.7543 282.989 25.1423C283.924 22.4866 284.68 19.7192 285.545 17.025C286.048 15.4599 286.543 13.8509 287.131 12.336C287.511 11.357 287.928 10.4083 288.232 9.38478C288.627 8.05253 289.15 6.78532 289.538 5.44982C289.604 5.22076 290.225 3.31954 290.247 3.34685" stroke="black" stroke-linecap="round" stroke-linejoin="round"/>
<path d="M291.842 3.45288C291.671 4.35609 291.346 5.29102 291.058 6.13902C290.634 7.38921 290.109 8.58015 289.678 9.82658C288.967 11.877 288.364 13.9862 287.798 16.106C286.694 20.2406 285.678 24.4203 284.305 28.4293C283.795 29.916 283.153 31.3929 282.738 32.918C282.667 33.1759 282.49 33.9901 282.271 33.9901" stroke="black" stroke-linecap="round" stroke-linejoin="round"/>
<path d="M284.538 32.8237C286.545 25.2179 289.242 17.9599 292.08 10.7926C292.717 9.18314 293.374 7.5961 294.024 5.9976C294.377 5.13142 294.747 4.24618 295.032 3.3468" stroke="black" stroke-linecap="round" stroke-linejoin="round"/>
<path d="M297.215 3.55884C296.782 4.76588 296.209 5.87174 295.732 7.052C294.562 9.9453 293.327 12.7939 292.15 15.6818C290.531 19.6525 289.061 23.6262 287.789 27.793C287.463 28.8584 287.3 29.9916 287.015 31.0741C286.876 31.5996 286.721 32.0568 286.721 32.6116" stroke="black" stroke-linecap="round" stroke-linejoin="round"/>
<path d="M287.728 32.8237C288.736 30.7672 289.862 28.807 290.862 26.7445C292.134 24.1231 293.154 21.3182 294.407 18.6802C296.12 15.0734 298.171 11.7456 299.808 8.07701C300.365 6.82782 300.88 5.55035 301.244 4.19506C301.307 3.9633 301.655 2.85101 301.58 3.13474" stroke="black" stroke-linecap="round" stroke-linejoin="round"/>
<path d="M298.558 3.3468C296.155 11.0973 292.29 17.9455 289.328 25.3425C288.529 27.3384 287.949 29.4313 287.182 31.4394C286.977 31.9787 286.828 32.5007 286.679 33.0652C286.561 33.5102 286.595 33.3907 286.973 33.2478" stroke="black" stroke-linecap="round" stroke-linejoin="round"/>
<path d="M292.261 32.7177C292.524 30.9758 292.933 29.4071 293.521 27.7931C294.48 25.1603 295.42 22.5231 296.464 19.9408C297.905 16.3756 299.47 12.91 300.974 9.39062C301.841 7.36079 302.749 5.26807 303.763 3.3468" stroke="black" stroke-linecap="round" stroke-linejoin="round"/>
<path d="M299.481 4.08911C298.588 7.01919 297.537 9.86271 296.515 12.7248C295.306 16.1122 294.156 19.5337 292.63 22.7154C291.645 24.7705 290.615 26.7781 289.874 28.9948C289.434 30.3088 289.173 31.5662 288.903 32.9298" stroke="black" stroke-linecap="round" stroke-linejoin="round"/>
<path d="M290.918 32.1875C292.483 26.5883 294.539 21.2332 296.664 15.941C297.385 14.1462 298.131 12.3895 298.759 10.5393C298.885 10.1663 299.062 9.80537 299.062 9.39062" stroke="black" stroke-linecap="round" stroke-linejoin="round"/>
<path d="M294.276 33.3539C294.957 31.8432 295.618 30.3177 296.315 28.8181C297.51 26.2433 298.619 23.6346 299.771 21.0306C300.744 18.831 301.894 16.7626 302.826 14.5332C303.576 12.7389 304.005 10.7536 304.673 8.90763C305.319 7.11935 305.814 5.23709 306.487 3.47055C306.55 3.30517 307.037 1.6859 307.037 2.39256" stroke="black" stroke-linecap="round" stroke-linejoin="round"/>
<path d="M296.459 33.3539C298.076 30.3432 299.249 27.0935 300.507 23.8346C302.024 19.9093 303.682 15.9973 305.526 12.3007C306.431 10.4867 307.236 8.67353 307.979 6.75168C308.144 6.32508 308.263 5.3825 308.632 5.14941" stroke="black" stroke-linecap="round" stroke-linejoin="round"/>
<path d="M305.274 3.55884C303.365 7.52804 301.545 11.5044 299.855 15.6347C298.459 19.0446 296.932 22.3473 295.592 25.7961C294.961 27.4202 294.511 29.1134 294.118 30.8503C294.003 31.3567 293.857 31.9759 293.857 32.5056" stroke="black" stroke-linecap="round" stroke-linejoin="round"/>
<path d="M299.397 32.5056C299.878 30.8007 300.442 29.1326 300.927 27.4279C301.64 24.9215 302.276 22.3861 303.129 19.9467C303.789 18.058 304.475 16.1724 305.19 14.3153C305.77 12.8083 306.175 11.2149 306.781 9.72054C307.23 8.61103 307.574 7.44371 308.003 6.32163C308.204 5.79535 308.507 5.31812 308.674 4.77828C308.756 4.51341 309.325 3.18843 309.388 3.34684" stroke="black" stroke-linecap="round" stroke-linejoin="round"/>
<path d="M311.319 3.02881C310.828 4.29719 310.479 5.62239 310.027 6.91076C309.095 9.56834 308 12.1076 306.795 14.5804C305.66 16.909 304.814 19.426 303.856 21.873C303.188 23.5805 302.577 25.2559 302.042 27.0333C301.584 28.5549 301.159 30.1497 300.592 31.6103C300.462 31.9425 300.257 32.5307 300.489 32.8238" stroke="black" stroke-linecap="round" stroke-linejoin="round"/>
<path d="M302.252 33.3539C302.358 31.8875 302.923 30.4937 303.348 29.1421C304.043 26.9293 304.765 24.7512 305.591 22.6093C306.481 20.3032 307.499 18.074 308.334 15.7349C309.031 13.7812 309.685 11.7969 310.33 9.81478C310.949 7.91154 311.676 6.05311 312.261 4.13618C312.365 3.79419 312.502 3.43838 312.662 3.13477" stroke="black" stroke-linecap="round" stroke-linejoin="round"/>
<path d="M314.425 3.87695C312.013 11.5475 308.727 18.7944 306.645 26.6385C306.267 28.0635 305.63 29.4552 305.447 30.9563C305.385 31.4643 305.172 31.9025 305.106 32.3996" stroke="black" stroke-linecap="round" stroke-linejoin="round"/>
<path d="M308.045 30.1729C308.96 27.5853 309.628 24.8686 310.554 22.2912C311.182 20.5443 311.964 18.8834 312.625 17.1546C313.155 15.7665 313.756 14.3869 314.173 12.9368C314.625 11.3668 314.838 9.71565 315.246 8.13006C315.733 6.23513 316.532 4.48331 317.028 2.60461" stroke="black" stroke-linecap="round" stroke-linejoin="round"/>
<path d="M318.287 3.55884C317.587 6.99996 316.35 10.2336 315.386 13.5612C313.893 18.7149 312.328 24.0002 310.232 28.8239C309.517 30.4695 308.964 32.1972 308.301 33.8722C308.208 34.1073 307.793 35.6261 307.793 34.7322" stroke="black" stroke-linecap="round" stroke-linejoin="round"/>
<path d="M306.45 33.6719C307.86 30.0092 309.423 26.4533 310.857 22.8036C312.048 19.7726 313.351 16.7883 314.239 13.5848C314.568 12.3963 314.784 11.164 315.139 9.98555C315.443 8.97624 315.737 7.97164 315.89 6.90474C316.043 5.83172 316.272 4.65074 316.272 3.55884" stroke="black" stroke-linecap="round" stroke-linejoin="round"/>
<path d="M314.425 6.10364C311.899 11.3449 309.491 16.6672 308.012 22.5445C307.524 24.4848 306.912 26.4043 306.3 28.2879C305.948 29.3728 305.52 30.3721 305.442 31.5513" stroke="black" stroke-linecap="round" stroke-linejoin="round"/>
<path d="M309.22 25.6135C309.428 24.215 309.577 22.806 309.78 21.4076C310.199 18.5198 310.905 15.7009 311.678 12.9368C312.148 11.2578 312.709 9.62451 313.194 7.95331C313.372 7.34079 313.605 6.7525 313.669 6.10364" stroke="black" stroke-linecap="round" stroke-linejoin="round"/>
<path d="M310.731 33.4599C311.811 30.992 312.903 28.4607 313.809 25.8845C314.865 22.8847 315.308 19.6846 316.109 16.589C316.929 13.4153 318.057 10.3861 318.996 7.26999C319.312 6.21861 319.777 5.22775 320.218 4.25396C320.366 3.92583 320.904 3.57167 321.141 3.3468" stroke="black" stroke-linecap="round" stroke-linejoin="round"/>
<path d="M323.324 3.24072C320.905 8.56834 318.431 13.9945 316.71 19.7581C316.289 21.1697 315.801 22.5617 315.414 23.9876C315.027 25.4101 314.714 26.9221 314.238 28.2996C313.911 29.2481 313.617 30.2525 313.436 31.2567C313.342 31.7824 313.263 32.4717 313.082 32.9297" stroke="black" stroke-linecap="round" stroke-linejoin="round"/>
<path d="M314.425 33.4599C314.71 31.9965 315 30.6461 315.432 29.2422C316.113 27.0322 316.508 24.7014 317.112 22.4562C318.388 17.7081 319.665 12.9039 321.309 8.33623C321.909 6.66978 322.544 5.06592 323.361 3.56479C323.58 3.16345 323.997 3.02431 324.164 2.60461" stroke="black" stroke-linecap="round" stroke-linejoin="round"/>
<path d="M324.835 3.45288C323.107 9.71376 320.978 15.7785 319.136 21.9849C318.355 24.6131 317.774 27.2914 317.13 29.9727C316.956 30.6986 316.698 31.4263 316.482 32.1345C316.335 32.6154 316.02 34.0812 316.02 33.566" stroke="black" stroke-linecap="round" stroke-linejoin="round"/>
<path d="M318.035 33.4599C318.809 31.7241 319.584 29.9921 320.283 28.2054C321.509 25.0738 322.408 21.8133 323.366 18.5447C324.015 16.3293 324.692 14.1162 325.535 12.0061C326.059 10.6928 326.449 9.372 326.808 7.97685C327.148 6.65739 327.469 5.30444 327.857 4.00654C327.894 3.88581 328.017 3.00796 328.109 3.24075" stroke="black" stroke-linecap="round" stroke-linejoin="round"/>
<path d="M329.453 3.3468C328.271 8.43249 326.646 13.3801 325.171 18.3385C324.163 21.7281 322.986 25.0505 322.191 28.5294C321.99 29.4081 321.893 30.3907 321.626 31.2332C321.425 31.8702 321.225 32.661 321.225 33.3539" stroke="black" stroke-linecap="round" stroke-linejoin="round"/>
<path d="M322.82 33.5659C323.659 31.081 324.449 28.5722 325.022 25.967C325.459 23.9795 325.887 21.9877 326.43 20.041C327.046 17.8335 327.833 15.7279 328.524 13.5612C329.363 10.9353 329.974 8.21144 330.833 5.59115C331.047 4.93875 331.252 4.2806 331.467 3.62956C331.556 3.36309 331.719 3.11301 331.719 2.81665" stroke="black" stroke-linecap="round" stroke-linejoin="round"/>
<path d="M332.811 3.3468C332.455 4.50363 332.164 5.68898 331.808 6.84586C331.103 9.13602 330.215 11.3061 329.387 13.5259C328.027 17.1747 326.478 20.7653 325.297 24.512C324.56 26.8499 324.237 29.298 323.912 31.7634" stroke="black" stroke-linecap="round" stroke-linejoin="round"/>
<path d="M326.178 32.6116C327.395 28.9343 328.404 25.2081 329.406 21.4312C330.054 18.9884 330.792 16.6111 331.668 14.2858C332.301 12.6066 332.682 10.8629 333.063 9.07254C333.412 7.42599 333.716 5.84183 334.303 4.30111C334.343 4.19609 334.658 3.08828 334.658 3.55888" stroke="black" stroke-linecap="round" stroke-linejoin="round"/>
<path d="M336.673 3.55884C336.134 6.2814 335.387 8.97129 334.508 11.5466C333.392 14.8187 332.324 18.1231 331.169 21.3722C330.345 23.6899 329.536 26.2172 329.033 28.6884C328.853 29.5735 328.656 30.4181 328.51 31.3157C328.465 31.5937 328.445 31.8187 328.445 32.105C328.445 32.6946 328.462 32.7118 328.949 32.8237" stroke="black" stroke-linecap="round" stroke-linejoin="round"/>
<path d="M330.208 33.354C330.446 31.9463 330.793 30.6361 331.216 29.3012C332.107 26.4867 332.644 23.5195 333.548 20.7067C334.29 18.395 335.17 16.1492 335.88 13.8205C336.231 12.6654 336.377 11.4243 336.654 10.239C337.071 8.44971 337.786 6.80213 338.305 5.0552C338.375 4.81886 338.883 3.02881 338.687 3.02881" stroke="black" stroke-linecap="round" stroke-linejoin="round"/>
<path d="M341.038 3.24072C340.718 4.81261 340.255 6.30431 339.821 7.82955C339.111 10.3203 338.489 12.8822 337.969 15.4462C337.209 19.1905 336.503 22.9706 335.623 26.6738C335.375 27.7173 335.197 28.8124 334.891 29.8312C334.715 30.4158 334.504 30.9516 334.359 31.5513C334.219 32.1322 333.956 32.6404 333.706 33.1535C333.615 33.3404 333.546 33.6846 333.398 33.7779" stroke="black" stroke-linecap="round" stroke-linejoin="round"/>
<path d="M330.88 33.1418C331.463 31.5279 332.21 29.9812 332.638 28.2879C333.535 24.7425 334.342 21.2011 335.362 17.7024C336.283 14.5429 336.953 11.2947 337.801 8.10649C338.251 6.41607 338.913 4.8258 339.359 3.13477" stroke="black" stroke-linecap="round" stroke-linejoin="round"/>
<path d="M317.951 31.4453C318.884 29.0629 319.814 26.6344 320.39 24.0702C320.794 22.2768 321.123 20.4594 321.514 18.6625C321.835 17.1897 322.337 15.8273 322.774 14.4095C323.377 12.4505 323.546 10.497 323.93 8.48345C324.022 8.00539 324.169 7.44232 324.499 7.16394" stroke="black" stroke-linecap="round" stroke-linejoin="round"/>
<path d="M324.667 32.5057C325.1 31.2253 325.667 30.0426 326.178 28.8122C326.631 27.7218 326.99 26.5605 327.41 25.4487C328.42 22.7754 329.302 20.0294 330.292 17.3431C330.67 16.3188 331.088 15.3081 331.416 14.2564C331.71 13.3143 331.879 12.3256 332.139 11.37C332.328 10.6772 332.586 9.99469 332.727 9.28467" stroke="black" stroke-linecap="round" stroke-linejoin="round"/>
<path d="M335.17 33.2176C335.858 31.1133 336.666 29.0382 337.295 26.9112C338.065 24.3105 338.668 21.6285 339.404 19.0116C340.255 15.9893 340.883 12.8306 341.503 9.72389C341.842 8.02654 342.267 6.4389 342.702 4.79247C342.826 4.32227 342.99 3.35101 343.367 3.1134" stroke="black" stroke-linecap="round" stroke-linejoin="round"/>
<path d="M345.439 3.47046C344.873 5.21567 344.432 7.04234 343.911 8.81173C342.882 12.307 341.78 15.7398 340.823 19.2695C340.345 21.032 339.752 22.7284 339.315 24.505C339.097 25.3954 338.852 26.4685 338.468 27.2682C337.945 28.3546 337.416 29.8283 337.17 31.0759C337.059 31.6348 336.866 32.2778 336.866 32.8607" stroke="black" stroke-linecap="round" stroke-linejoin="round"/>
<path d="M337.243 33.2176C338.016 30.9937 338.83 28.952 339.87 26.9045C340.903 24.8712 341.608 22.5936 342.33 20.3668C342.886 18.6539 343.479 16.9196 344.089 15.237C344.599 13.8273 344.986 12.3898 345.46 10.9667C346.094 9.06446 346.909 7.26801 347.637 5.42707C347.878 4.81844 347.884 4.06531 348.454 4.06531" stroke="black" stroke-linecap="round" stroke-linejoin="round"/>
<path d="M350.244 3.70837C349.841 5.23407 349.468 6.77738 349.019 8.28283C348.051 11.5315 346.86 14.6666 345.921 17.9275C345.224 20.3474 344.537 22.7733 343.853 25.1991C343.48 26.5249 343.023 27.8801 342.801 29.2645C342.62 30.398 342.243 31.3979 341.901 32.4574C341.745 32.9418 341.686 33.7505 341.482 32.9796" stroke="black" stroke-linecap="round" stroke-linejoin="round"/>
<path d="M339.975 31.7897C341.364 28.2339 342.325 24.5107 343.477 20.8295C344.733 16.814 346.282 12.9861 347.7 9.06287" stroke="black" stroke-linecap="round" stroke-linejoin="round"/>
<path d="M344.214 33.4556C345.569 29.3158 346.978 25.1759 348.15 20.9485C349.156 17.3206 350.061 13.5704 351.375 10.0941C352.022 8.38032 352.793 6.75537 353.52 5.1098C353.795 4.48892 353.761 3.70837 354.389 3.70837" stroke="black" stroke-linecap="round" stroke-linejoin="round"/>
<path d="M356.085 2.99438C355.391 5.22127 355.012 7.60015 354.337 9.84946C353.391 13.0034 352.453 16.1601 351.469 19.2958C350.704 21.733 349.927 24.1995 349.255 26.6798C348.84 28.2099 348.27 29.6159 347.747 31.0823C347.571 31.5766 347.446 32.0838 347.25 32.5697C347.032 33.1097 346.954 33.04 346.476 32.9796" stroke="black" stroke-linecap="round" stroke-linejoin="round"/>
<path d="M343.649 32.1467C344.435 29.2188 345.587 26.4561 346.235 23.4671C346.946 20.1831 347.959 17.019 349.113 13.9414C350.139 11.2068 351.131 8.45459 352.107 5.69151C352.32 5.08945 352.558 4.72499 353.07 4.66028" stroke="black" stroke-linecap="round" stroke-linejoin="round"/>
<path d="M353.918 6.44507C353.048 10.0757 351.89 13.5816 351.081 17.2334C350.635 19.2494 350.118 21.2115 349.773 23.2622C349.674 23.8506 349.664 24.7371 349.396 25.2453" stroke="black" stroke-linecap="round" stroke-linejoin="round"/>
<path d="M349.396 32.9797C350.104 31.0392 351 29.2064 351.678 27.255C352.464 24.9954 353.015 22.5495 353.672 20.2214C354.076 18.7906 354.345 17.2961 354.787 15.885C355.272 14.3396 355.824 12.8543 356.289 11.2973C356.699 9.9278 357.143 8.57214 357.572 7.212C357.818 6.42894 357.908 5.58731 358.158 4.80578C358.265 4.46948 358.389 3.6218 358.629 3.47046" stroke="black" stroke-linecap="round" stroke-linejoin="round"/>
<path d="M359.665 3.35144C359.238 5.16293 358.972 7.02386 358.577 8.85137C357.855 12.1888 357.22 15.5626 356.462 18.8861C355.738 22.0624 355.062 25.2523 354.086 28.3126C353.553 29.981 352.812 31.5051 352.034 32.9796" stroke="black" stroke-linecap="round" stroke-linejoin="round"/>
<path d="M353.165 32.6226C354.709 28.536 355.832 24.2541 357.111 20.0363C357.514 18.7067 357.959 17.4139 358.446 16.1295C359.103 14.3944 359.535 12.5425 360.162 10.7882C360.587 9.60209 361.006 8.40727 361.413 7.21194C361.69 6.39915 361.837 5.51687 362.115 4.71317C362.28 4.2328 362.324 3.3461 362.774 3.23242" stroke="black" stroke-linecap="round" stroke-linejoin="round"/>
<path d="M363.622 3.70837C361.665 9.90622 360.282 16.3836 359.006 22.8523C358.686 24.4745 358.401 26.1128 358.111 27.7441C357.963 28.5711 357.67 29.312 357.498 30.1239C357.212 31.4761 356.554 32.3904 356.085 33.5746" stroke="black" stroke-linecap="round" stroke-linejoin="round"/>
<path d="M356.368 33.3365C356.765 31.8447 357.063 30.2674 357.54 28.815C358.449 26.0488 359.53 23.3148 360.66 20.6841C361.555 18.5996 362.576 16.6091 363.486 14.5363C364.066 13.215 364.503 11.8044 365.03 10.451C365.547 9.12272 365.927 7.79294 366.218 6.37237C366.361 5.67848 366.637 4.77949 366.637 4.06531" stroke="black" stroke-linecap="round" stroke-linejoin="round"/>
<path d="M366.919 3.47046C363.698 10.703 361.742 18.536 360.094 26.5278C359.761 28.1447 359.496 29.7814 359.194 31.4064C359.082 32.0093 358.817 32.7158 358.817 33.3366" stroke="black" stroke-linecap="round" stroke-linejoin="round"/>
<path d="M354.955 32.6227C355.93 29.5669 357.138 26.6082 358.001 23.5002C358.434 21.9395 358.722 20.3391 359.068 18.7472C359.484 16.837 360.067 15.0576 360.754 13.2804C362.124 9.73379 363.014 6.1717 363.528 2.28052" stroke="black" stroke-linecap="round" stroke-linejoin="round"/>
<path d="M368.144 3.23242C367.79 5.31251 367.536 7.41669 367.097 9.47272C366.523 12.1633 365.901 14.8295 365.234 17.4846C364.546 20.221 363.804 22.9181 363.057 25.6288C362.246 28.5684 361.237 31.5069 360.136 34.2885" stroke="black" stroke-linecap="round" stroke-linejoin="round"/>
<path d="M361.738 25.6023C362.432 23.0771 363.01 20.5189 363.444 17.901C363.668 16.5489 363.822 15.1751 364.093 13.8356C364.294 12.8438 364.514 11.8513 364.658 10.8477" stroke="black" stroke-linecap="round" stroke-linejoin="round"/>
<path d="M364.093 5.13623C363.39 9.66379 362.094 13.937 360.984 18.3175C360.623 19.7435 360.188 21.1367 359.854 22.5747C359.648 23.4594 359.472 24.5381 359.006 25.2453" stroke="black" stroke-linecap="round" stroke-linejoin="round"/>
<path d="M372.478 4.06531C371.577 6.15893 370.789 8.38837 370.164 10.6361C369.43 13.2784 368.666 15.9122 368.144 18.6348C367.618 21.3782 366.807 24.1793 365.956 26.7922C365.464 28.3049 364.951 29.8068 364.439 31.3005C364.224 31.925 363.81 32.6546 363.81 33.3365" stroke="black" stroke-linecap="round" stroke-linejoin="round"/>
<path d="M363.057 31.6707C364.109 28.3344 364.873 24.867 365.841 21.4906C366.807 18.1229 367.411 14.6476 368.238 11.2311C368.83 8.78816 369.777 6.44584 370.405 4.06531" stroke="black" stroke-linecap="round" stroke-linejoin="round"/>
<path d="M374.456 2.87549C373.826 4.6047 373.083 6.30883 372.379 7.99201C371.192 10.8267 370.114 13.7185 368.94 16.5592C367.553 19.9129 366.095 23.4623 365.365 27.1492C365.125 28.3614 364.992 29.6495 364.847 30.8841C364.801 31.2746 364.439 32.1879 364.564 32.5037" stroke="black" stroke-linecap="round" stroke-linejoin="round"/>
<path d="M367.579 28.339C368.966 23.9798 369.972 19.4843 371.007 14.9792C371.526 12.7246 371.915 10.3892 372.572 8.19027C373.031 6.65686 373.442 5.05351 374.074 3.61581C374.348 2.99322 374.655 2.36077 374.833 1.68555" stroke="black" stroke-linecap="round" stroke-linejoin="round"/>
<path d="M376.152 3.47046C375.686 5.18164 375.414 6.97299 375.001 8.70597C374.337 11.49 373.707 14.2931 373.022 17.0682C372.126 20.6968 370.916 24.1831 370.123 27.8566C369.821 29.2539 369.518 30.6932 369.16 32.0674C369.074 32.3961 368.795 33.8126 368.615 33.8126" stroke="black" stroke-linecap="round" stroke-linejoin="round"/>
<path d="M366.637 33.0986C367.593 30.5449 368.582 27.9291 369.317 25.2586C369.665 23.9898 369.887 22.6155 370.405 21.4377" stroke="black" stroke-linecap="round" stroke-linejoin="round"/>
<path d="M377.66 3.82739C376.466 9.39051 375.145 14.938 374.268 20.5982C373.847 23.3172 373.553 26.1002 372.902 28.7489C372.483 30.4524 371.913 32.132 371.913 33.9316" stroke="black" stroke-linecap="round" stroke-linejoin="round"/>
<path d="M373.326 33.5746C373.437 31.7532 374.097 29.9262 374.551 28.2069C375.05 26.3149 375.689 24.5223 376.225 22.6541C376.689 21.0404 376.889 19.3255 377.33 17.6962C377.741 16.1749 378.123 14.7028 378.413 13.135C378.868 10.6769 379.214 8.16961 379.805 5.75769C379.928 5.25595 380.019 4.69715 380.109 4.18439C380.155 3.92125 380.297 3.74214 380.297 3.47046" stroke="black" stroke-linecap="round" stroke-linejoin="round"/>
<path d="M382.087 3.58936C381.133 6.24774 380.168 8.90329 379.156 11.5286C377.54 15.7236 375.695 19.9673 374.76 24.5049C374.293 26.7682 373.827 29.0992 373.561 31.4129C373.461 32.2872 373.326 33.1655 373.326 34.0505" stroke="black" stroke-linecap="round" stroke-linejoin="round"/>
<path d="M375.493 33.3366C376.147 29.6481 377.265 26.0683 378.11 22.4425C378.639 20.1689 379.063 17.822 379.795 15.6337C380.372 13.9087 381.073 12.2259 381.716 10.537C382.698 7.95908 383.376 5.08186 384.537 2.63745" stroke="black" stroke-linecap="round" stroke-linejoin="round"/>
<path d="M385.95 3.70837C385.633 6.40372 384.903 9.08104 384.249 11.6674C383.358 15.1952 382.377 18.6562 381.637 22.2442C381.119 24.7605 380.515 27.142 379.596 29.4628C379.271 30.2844 378.668 31.1499 378.434 32.0013C378.355 32.2886 378.227 33.0975 378.036 33.2176" stroke="black" stroke-linecap="round" stroke-linejoin="round"/>
<path d="M377.942 30.4808C378.805 27.6491 379.749 24.8632 380.318 21.9136C380.751 19.6695 381.513 17.5759 381.904 15.3229C382.25 13.3323 382.685 11.1244 383.407 9.30078" stroke="black" stroke-linecap="round" stroke-linejoin="round"/>
<path d="M388.117 4.30334C386.974 10.5591 384.868 16.4173 383.208 22.4557C382.544 24.87 382.01 27.37 381.198 29.7008C380.922 30.4935 380.425 31.4693 380.303 32.3186C380.256 32.6412 380.056 33.0571 380.203 33.3366" stroke="black" stroke-linecap="round" stroke-linejoin="round"/>
<path d="M382.182 33.0986C382.653 30.5324 383.452 28.315 384.249 25.8866C385.25 22.8363 386.207 19.8107 387.322 16.8236C387.918 15.2256 388.47 13.5183 388.923 11.8459C389.268 10.5734 389.795 9.38269 390.116 8.11098C390.436 6.84672 390.732 5.58727 390.964 4.30334C391.037 3.90204 391.226 2.7018 391.226 3.11345" stroke="black" stroke-linecap="round" stroke-linejoin="round"/>
<path d="M392.357 3.35144C391.529 8.28568 390.548 13.1466 389.488 18.0135C388.921 20.6201 388.473 23.3161 387.74 25.8602C387.392 27.0706 387.002 28.235 386.704 29.4695C386.417 30.6584 386.226 31.847 385.668 32.8871C385.421 33.3454 385.508 33.6936 385.008 33.6936" stroke="black" stroke-linecap="round" stroke-linejoin="round"/>
<path d="M384.16 33.2176C384.787 30.8741 385.644 28.649 386.348 26.3427C387.623 22.1642 388.057 17.704 389.321 13.5183C389.696 12.2752 389.992 10.9912 390.383 9.75696C390.641 8.94394 390.981 8.21672 391.174 7.37058C391.366 6.52493 391.462 5.37411 391.885 4.66028" stroke="black" stroke-linecap="round" stroke-linejoin="round"/>
<path d="M395.089 2.99438C394.316 8.61767 393.36 14.259 391.959 19.6925C391.047 23.2272 390.085 26.7973 389.394 30.4147C389.268 31.0732 389.158 32.029 388.829 32.5631C388.622 32.8992 388.771 33.6561 388.4 33.8125" stroke="black" stroke-linecap="round" stroke-linejoin="round"/>
<path d="M387.552 32.6226C388.604 29.2987 389.546 25.8357 390.001 22.297C390.441 18.8784 390.921 15.5231 391.509 12.1433C391.883 9.9891 392.272 7.92863 392.817 5.83031C393.051 4.93046 393.159 3.99893 393.393 3.1134" stroke="black" stroke-linecap="round" stroke-linejoin="round"/>
<path d="M389.813 3.58936C388.396 7.98298 386.81 12.2798 385.395 16.6781C384.789 18.5623 384.05 20.6042 383.783 22.6276" stroke="black" stroke-linecap="round" stroke-linejoin="round"/>
<path d="M390.095 33.2176C391.007 30.5047 391.644 27.6689 392.472 24.9149C393.19 22.5225 393.823 20.1463 394.335 17.6698C394.907 14.9006 395.79 12.0712 396.052 9.22155C396.13 8.37094 396.336 7.59993 396.481 6.77567C396.59 6.15723 396.603 5.52336 396.737 4.91152C396.822 4.52524 396.963 3.53615 397.256 3.35144" stroke="black" stroke-linecap="round" stroke-linejoin="round"/>
<path d="M398.48 3.35144C395.739 10.1472 394.127 17.5626 393.016 25.0471C392.871 26.0248 392.747 27.0095 392.639 27.9953C392.528 29.0177 392.262 30.0327 392.262 31.0692C392.262 31.7811 392.074 32.5067 392.074 33.2176" stroke="black" stroke-linecap="round" stroke-linejoin="round"/>
<path d="M392.828 33.3366C393.365 31.6525 393.72 29.9094 394.314 28.2399C395.604 24.6112 396.852 21.0748 397.779 17.2665C398.527 14.1933 399.405 11.2009 400.291 8.20354C400.669 6.92508 401.156 5.59556 401.589 4.36285C401.739 3.9383 401.784 3.50757 402.155 3.35144" stroke="black" stroke-linecap="round" stroke-linejoin="round"/>
<path d="M403.191 3.35144C403.051 6.25679 402.657 9.07933 402.27 11.9451C401.823 15.2473 401.409 18.5517 400.877 21.8344C400.529 23.9879 400.128 26.1215 399.726 28.2598C399.587 29.0009 399.424 29.7782 399.14 30.4544C398.67 31.5716 398.158 33.6936 396.973 33.6936" stroke="black" stroke-linecap="round" stroke-linejoin="round"/>
<path d="M395.371 33.2176C396.266 31.3194 397.096 29.4643 397.627 27.3475C398.259 24.8327 398.845 22.3064 399.496 19.7983C400.104 17.4535 400.658 15.0797 401.244 12.7251C401.572 11.4045 401.988 10.083 402.228 8.73238C402.531 7.02607 403.044 5.45333 403.474 3.82739" stroke="black" stroke-linecap="round" stroke-linejoin="round"/>
<path d="M399.046 4.30334C398.346 6.99835 397.889 9.77064 397.344 12.5202C396.517 16.701 395.408 20.781 394.523 24.9413C394.146 26.7158 393.82 28.6145 393.299 30.3354C393.23 30.5625 393.165 31.2195 393.016 31.3138" stroke="black" stroke-linecap="round" stroke-linejoin="round"/>
<path d="M395.748 32.3846C398.438 27.3782 400.75 22.1778 403.055 16.8764C404.064 14.555 405.133 12.2661 406.185 9.97505C406.548 9.18386 406.992 8.47517 407.289 7.64155C407.708 6.46512 407.632 5.10238 408.09 3.94629" stroke="black" stroke-linecap="round" stroke-linejoin="round"/>
<path d="M406.959 3.47046C406.681 4.78076 406.362 6.06746 406.049 7.36404C405.321 10.3709 404.824 13.4592 404.196 16.4997C403.679 18.9987 403.087 21.4737 402.688 24.0092C402.47 25.3997 402.338 26.8106 402.066 28.1871C401.809 29.4819 401.704 30.8022 401.495 32.1071C401.466 32.2873 401.307 33.4492 401.307 33.0987" stroke="black" stroke-linecap="round" stroke-linejoin="round"/>
<path d="M403.002 32.9797C403.641 28.3123 404.051 23.5573 404.929 18.9522C405.388 16.5427 405.817 14.1687 406.467 11.8261C406.853 10.4379 407.242 9.01162 407.483 7.56896C407.721 6.14212 408.286 4.85808 408.561 3.47046" stroke="black" stroke-linecap="round" stroke-linejoin="round"/>
<path d="M404.887 4.66028C404.622 6.57068 404.38 8.49186 404.07 10.3916C403.757 12.3107 403.308 14.1873 403.002 16.1096C402.508 19.2145 401.903 22.3865 401.642 25.5428C401.538 26.7905 401.343 27.9891 401.218 29.2249C401.128 30.1134 400.856 30.9221 400.741 31.7897" stroke="black" stroke-linecap="round" stroke-linejoin="round"/>
<path d="M403.756 33.0985C405.162 27.2189 407.067 21.667 408.823 15.9509C409.724 13.0156 410.367 9.96019 411.277 7.02678C411.61 5.9542 411.828 4.89535 412.329 3.94629" stroke="black" stroke-linecap="round" stroke-linejoin="round"/>
<path d="M414.025 3.82739C413.5 7.18175 412.782 10.446 412.115 13.763C411.392 17.3534 410.672 20.9602 409.749 24.4786C409.343 26.0256 409.04 27.6297 408.566 29.1456C408.133 30.5299 407.816 31.9473 407.336 33.3102C407.208 33.6749 407.072 34.4555 406.771 34.6455" stroke="black" stroke-linecap="round" stroke-linejoin="round"/>
<path d="M408.655 33.5745C410.878 27.3943 412.993 21.1982 414.957 14.88C415.492 13.1585 415.996 11.4259 416.606 9.74369C416.81 9.17876 417.027 8.60206 417.134 7.99191C417.263 7.25994 417.414 6.50659 417.563 5.77739C417.665 5.28264 417.671 4.35739 417.888 3.94629" stroke="black" stroke-linecap="round" stroke-linejoin="round"/>
<path d="M419.301 4.66028C419.035 9.52698 417.897 14.5162 416.736 19.1505C416.145 21.5115 415.537 23.8709 414.925 26.2237C414.573 27.5791 414.078 28.8859 413.837 30.2825C413.713 31.0024 413.511 31.978 413.104 32.5301C412.93 32.766 412.824 33.0446 412.685 33.3101C412.466 33.7311 411.846 33.2245 411.576 33.0986" stroke="black" stroke-linecap="round" stroke-linejoin="round"/>
<path d="M415.156 32.8607C416.314 27.4956 418.114 22.3516 419.469 17.0616C420.126 14.494 420.711 11.8843 421.594 9.41987C421.799 8.84665 422.063 8.31373 422.243 7.72758C422.507 6.86424 423.06 6.15521 423.352 5.2817C423.517 4.78919 423.719 4.35241 423.823 3.82739" stroke="black" stroke-linecap="round" stroke-linejoin="round"/>
<path d="M425.613 3.70837C424.687 8.21827 423.962 12.7682 423.111 17.2995C422.504 20.5323 421.796 23.7323 421.227 26.9773C420.844 29.1615 420.378 31.329 419.584 33.3366" stroke="black" stroke-linecap="round" stroke-linejoin="round"/>
<path d="M421.939 33.6935C422.952 30.3396 424.123 27.0696 425.205 23.7514C426.769 18.9565 428.163 14.0143 430.041 9.39339C430.639 7.92191 431.394 6.63469 431.779 5.04369C431.832 4.82292 431.956 4.28386 432.114 4.18433" stroke="black" stroke-linecap="round" stroke-linejoin="round"/>
<path d="M432.679 8.34888C431.15 15.362 428.91 22.0469 426.555 28.6695C426.036 30.1302 425.236 32.0698 425.236 33.6935" stroke="black" stroke-linecap="round" stroke-linejoin="round"/>
<path d="M427.309 33.0986C428.742 30.4372 430.318 27.9999 431.528 25.1528C432.443 22.998 433.316 20.7559 434.129 18.5357C434.456 17.6435 434.677 16.6689 435.034 15.799C435.092 15.659 435.223 15.1771 435.223 15.2503" stroke="black" stroke-linecap="round" stroke-linejoin="round"/>
<path d="M433.339 15.2502C431.756 19.8587 430.678 24.6984 429.005 29.2645C428.707 30.0774 428.358 30.871 428.042 31.6707C427.869 32.1059 427.605 32.3833 427.497 32.8606" stroke="black" stroke-linecap="round" stroke-linejoin="round"/>
<path d="M429.005 33.5746C429.693 32.537 430.494 31.5438 431.046 30.3751C431.532 29.3459 431.993 28.299 432.485 27.2748C432.812 26.5954 433.119 25.8959 433.422 25.1991C433.51 24.9962 433.709 24.1582 433.81 24.4124" stroke="black" stroke-linecap="round" stroke-linejoin="round"/>
<path d="M433.621 26.3163C433.168 28.7897 432.498 31.2749 432.02 33.6936" stroke="black" stroke-linecap="round" stroke-linejoin="round"/>
<path d="M434.281 30.7188C434.389 30.3467 434.563 29.936 434.563 29.5289" stroke="black" stroke-linecap="round" stroke-linejoin="round"/>
<path d="M423.258 33.3366C424.326 30.4224 425.645 27.6629 426.608 24.6901C427.803 21.0003 429.5 17.5849 430.596 13.8489C431.243 11.6415 432.145 9.66714 432.904 7.53589C433.03 7.18212 433.056 6.71409 433.056 6.32617" stroke="black" stroke-linecap="round" stroke-linejoin="round"/>
<path d="M429.664 4.30334C428.303 8.77273 426.633 13.0693 424.77 17.2401C424.039 18.8769 423.239 20.4565 422.562 22.1318C421.999 23.5254 421.479 24.9384 420.871 26.3031C420.038 28.1757 419.489 30.2001 419.024 32.2591C418.948 32.5942 418.621 34.8575 418.265 34.4075" stroke="black" stroke-linecap="round" stroke-linejoin="round"/>
<path d="M416.757 31.7898C418.323 27.5854 419.325 23.1377 420.808 18.8993C421.767 16.1603 422.639 13.3325 423.331 10.4643C423.92 8.02209 425.068 5.85572 426.273 3.82739" stroke="black" stroke-linecap="round" stroke-linejoin="round"/>
<path d="M421.374 3.94629C421.111 5.00566 420.982 6.04625 420.599 7.06644C419.905 8.91637 419.006 10.655 418.207 12.4342C417.097 14.9053 416.169 17.4995 415.02 19.9437C414.513 21.02 413.955 22.0668 413.523 23.196C413.133 24.2151 412.87 25.3064 412.523 26.3492C411.958 28.0487 411.586 29.871 411.01 31.5517C410.809 32.1398 410.445 33.9773 410.445 33.3365" stroke="black" stroke-linecap="round" stroke-linejoin="round"/>
<path d="M405.169 33.2176C405.649 31.669 406.22 30.2039 406.87 28.7555C407.921 26.4148 408.777 23.986 409.728 21.5832C410.284 20.1779 410.525 18.6264 411.063 17.207C411.733 15.4382 412.175 13.6117 412.633 11.7468C413.126 9.73544 413.674 7.65788 414.549 5.8502C414.897 5.12979 415.453 4.88032 415.909 4.30334" stroke="black" stroke-linecap="round" stroke-linejoin="round"/>
<path d="M411.858 3.94629C410.468 5.74245 409.197 7.70102 408.331 9.97505C407.255 12.7983 406.295 15.7121 405.148 18.4894C404.376 20.3613 403.91 22.3416 403.212 24.2405C403.065 24.6398 402.908 25.4079 402.908 25.8402" stroke="black" stroke-linecap="round" stroke-linejoin="round"/>
<path d="M412.424 16.7971C413.713 13.5404 414.592 10.0244 415.773 6.70953C415.961 6.18314 416.376 4.38433 416.852 4.18433" stroke="black" stroke-linecap="round" stroke-linejoin="round"/>
<path d="M421.562 31.0758C423.419 26.1521 425.282 21.1892 426.969 16.1692C427.809 13.6694 428.294 10.9753 429.214 8.52084C429.794 6.97256 430.288 5.3445 430.889 3.82739" stroke="black" stroke-linecap="round" stroke-linejoin="round"/>
<path d="M428.251 3.35144C427.176 6.45622 426.322 9.66051 425.2 12.7383C424.878 13.6198 424.646 14.6145 424.205 15.4156C424.115 15.5795 424.036 15.8894 423.917 15.9643" stroke="black" stroke-linecap="round" stroke-linejoin="round"/>
<path d="M433.244 11.0857C432.626 13.23 432.005 15.3724 431.418 17.5309C431.097 18.7102 430.737 19.8458 430.606 21.0808" stroke="black" stroke-linecap="round" stroke-linejoin="round"/>
<path d="M106.5 3.526C103.601 8.40348 101.289 13.9388 98.7488 19.1723C97.405 21.9414 96.0543 24.6656 94.8228 27.5314C94.3397 28.6557 93.5001 29.9124 93.5001 31.3119" stroke="black" stroke-linecap="round" stroke-linejoin="round"/>
<path d="M108.5 2.26294C107.43 4.55336 106.323 6.7694 105.313 9.12123C104.086 11.9768 102.746 14.8453 101.801 17.9286C101.373 19.326 100.978 20.7497 100.526 22.1313C100.076 23.5034 99.4586 24.6894 98.9088 25.9685C98.6813 26.4976 96.2245 33.6201 96.5257 33.8379" stroke="black" stroke-linecap="round" stroke-linejoin="round"/>
<path d="M109.5 3.526C108.333 5.9754 107.432 8.68024 106.498 11.2914C105.014 15.4427 103.418 19.5331 102 23.7257C101.314 25.7539 100.782 27.8683 100.19 29.9428C100.045 30.4498 99.9152 31.0299 99.8272 31.5566C99.7639 31.9351 99.59 32.2164 99.5001 32.5749" stroke="black" stroke-linecap="round" stroke-linejoin="round"/>
<path d="M111.5 4.78894C110.038 7.5883 108.689 10.4734 107.176 13.2316C105.495 16.2969 103.798 19.3442 102.212 22.4973C101.743 23.4294 101.292 24.364 100.913 25.3664C100.562 26.2938 100.274 27.2306 99.8182 28.0826C99.1987 29.2399 98.2396 30.3229 97.8075 31.6454C97.7243 31.9 97.639 32.1598 97.5495 32.4097C97.5479 32.4141 97.482 32.5856 97.505 32.5743C98.0711 32.2972 98.6479 31.7376 99.1687 31.3515" stroke="black" stroke-linecap="round" stroke-linejoin="round"/>
<path d="M113.5 3.526C112.965 4.20413 112.511 4.97997 112.047 5.75379C110.621 8.13232 109.311 10.6166 108.102 13.2265C106.903 15.8167 105.749 18.4455 104.689 21.1553C104.104 22.651 103.536 24.1902 103.15 25.8156C102.833 27.1441 102.433 28.2178 101.928 29.4174C101.477 30.4897 100.848 31.4247 100.5 32.5749" stroke="black" stroke-linecap="round" stroke-linejoin="round"/>
<path d="M103.5 32.5749C103.71 31.4129 104.103 30.2891 104.47 29.2149C105.319 26.7355 106.296 24.3639 107.212 21.9368C108.417 18.7448 109.53 15.5258 110.858 12.4264C111.563 10.7819 112.258 9.13707 112.918 7.45617C113.293 6.50049 113.672 5.55314 114.065 4.61352C114.152 4.40504 114.657 2.92603 114.451 3.79968" stroke="black" stroke-linecap="round" stroke-linejoin="round"/>
<path d="M116.5 3.526C115.691 5.2859 114.843 7.00762 114.074 8.80338C112.683 12.0517 111.473 15.4402 110.086 18.6925C108.662 22.0325 107.405 25.5726 106.277 29.1284C106.045 29.8596 105.658 30.7593 105.658 31.6007C105.658 31.8869 105.565 32.18 105.505 32.4506C105.424 32.8189 106.356 32.2578 106.498 32.195" stroke="black" stroke-linecap="round" stroke-linejoin="round"/>
<path d="M119.5 3.526C118.447 4.76552 117.656 6.08261 116.851 7.61437C115.585 10.0192 114.399 12.4637 113.346 15.0436C111.945 18.4788 110.558 21.9547 109.261 25.4628C108.561 27.3572 107.631 29.1192 106.97 31.029C106.791 31.5476 106.692 32.0656 106.5 32.5749" stroke="black" stroke-linecap="round" stroke-linejoin="round"/>
<path d="M120.5 3.526C118.84 8.03322 117.223 12.5648 115.46 17.0095C114.45 19.5554 113.417 22.08 112.553 24.7177C112.063 26.215 111.569 27.7133 111.016 29.1737C110.655 30.1248 110.309 31.0118 109.842 31.8819C109.436 32.6402 109 33.1873 108.5 33.8379" stroke="black" stroke-linecap="round" stroke-linejoin="round"/>
<path d="M107.5 32.5749C108.658 29.5289 109.996 26.609 111.225 23.6085C112.12 21.4241 112.937 19.1808 113.936 17.0719C115.05 14.7219 116.359 12.5546 117.379 10.1264C117.965 8.73267 118.439 7.24704 119.099 5.90691C119.588 4.91104 120.111 3.92367 120.627 2.94973C120.941 2.35741 121.364 1.70961 121.5 1" stroke="black" stroke-linecap="round" stroke-linejoin="round"/>
<path d="M111.5 33.8379C113.158 29.6836 114.639 25.3305 116.101 21.0421C117.508 16.9142 118.886 12.7708 120.309 8.65482C120.779 7.29598 121.272 5.93236 121.714 4.55777C121.954 3.81447 122.358 3.04288 122.5 2.26294" stroke="black" stroke-linecap="round" stroke-linejoin="round"/>
<path d="M113.5 32.5749C114.631 28.6649 115.789 24.7951 116.829 20.8316C117.82 17.0585 118.685 13.2533 119.884 9.60288C120.279 8.39914 120.555 6.96105 121.064 5.84092C121.197 5.54772 121.426 5.10275 121.5 4.78894" stroke="black" stroke-linecap="round" stroke-linejoin="round"/>
<path d="M115.5 33.8379C116.171 31.2414 117.249 28.8632 118.098 26.3752C119.331 22.7662 120.558 19.1518 121.68 15.4735C122.595 12.4709 123.821 9.64728 124.611 6.56901C124.868 5.56857 125.038 4.37792 125.5 3.526" stroke="black" stroke-linecap="round" stroke-linejoin="round"/>
<path d="M115.5 31.3119C116.714 27.5858 117.892 23.9524 118.851 20.0855C119.833 16.1209 120.946 12.1975 121.884 8.21604C122.079 7.38652 122.238 6.5517 122.481 5.74252C122.702 5.00441 123.002 4.30949 123.186 3.55285C123.228 3.3843 123.5 1.95133 123.5 2.32478" stroke="black" stroke-linecap="round" stroke-linejoin="round"/>
<path d="M119.5 30.0489C120.68 26.9935 121.955 23.9553 123.018 20.8294C124.061 17.7639 124.996 14.6349 125.982 11.54C126.519 9.85551 127.125 8.21514 127.641 6.52541C127.788 6.04433 127.86 5.37864 128.05 4.94126C128.143 4.72715 128.135 4.50502 128.191 4.28313C128.261 4.00453 128.431 3.79045 128.5 3.526" stroke="black" stroke-linecap="round" stroke-linejoin="round"/>
<path d="M118.5 33.8379C119.051 31.6952 119.811 29.6635 120.43 27.5612C121.19 24.9788 121.792 22.3045 122.432 19.6528C123.272 16.1741 124.35 12.8857 125.203 9.422C125.44 8.45801 125.679 7.49833 125.908 6.52783C126.019 6.05328 126.265 5.13871 126.5 4.78894" stroke="black" stroke-linecap="round" stroke-linejoin="round"/>
<path d="M130.5 3.526C129.741 4.92136 129.24 6.5545 128.512 7.98995C127.229 10.5205 126.037 13.0828 124.923 15.7716C123.579 19.015 122.639 22.7349 122.126 26.4332C121.958 27.6482 121.72 28.977 121.72 30.2175C121.72 30.4953 121.496 31.3184 121.5 31.3119" stroke="black" stroke-linecap="round" stroke-linejoin="round"/>
<path d="M131.5 4.78894C130.262 8.14601 129.034 11.4969 127.851 14.8932C127.036 17.2346 126.26 19.6646 125.313 21.9069C124.822 23.0697 124.367 24.2479 123.821 25.3625C123.466 26.0869 123.066 26.795 122.852 27.632C122.69 28.2642 122.537 28.902 122.37 29.5308C122.163 30.3037 121.79 31.147 121.725 31.977C121.697 32.3321 121.667 32.7249 121.607 33.0719C121.567 33.305 121.487 33.5682 121.502 33.8131C121.507 33.8989 121.614 33.7385 121.66 33.682C121.956 33.3196 122.282 33.0342 122.597 32.7069" stroke="black" stroke-linecap="round" stroke-linejoin="round"/>
<path d="M134.5 3.526C132.758 7.26994 131.587 11.5081 130.274 15.5346C128.866 19.8525 127.14 23.9746 125.841 28.3562C125.26 30.3163 124.522 32.2294 123.5 33.8379" stroke="black" stroke-linecap="round" stroke-linejoin="round"/>
<path d="M136.5 3.526C135.149 5.98452 134.133 8.68363 133.081 11.3746C132.011 14.1121 130.94 16.8451 129.88 19.5888C129.325 21.0253 128.927 22.5607 128.352 23.9833C127.938 25.0082 127.53 26.0266 127.174 27.0891C126.817 28.1539 126.028 29.515 125.978 30.6941C125.951 31.3505 125.5 31.9386 125.5 32.5749" stroke="black" stroke-linecap="round" stroke-linejoin="round"/>
<path d="M210.5 3.526C209.925 5.02837 209.144 6.44339 208.467 7.86783C207.278 10.3721 206 12.7853 204.752 15.2363C203.798 17.1112 202.958 19.0943 201.964 20.9335C201.109 22.5137 200.032 23.8891 199.133 25.4304C198.524 26.4727 197.76 27.4664 197.296 28.6466C196.957 29.511 196.523 30.2586 196.131 31.076C196.054 31.2356 195.408 32.4355 195.511 32.5749" stroke="black" stroke-linecap="round" stroke-linejoin="round"/>
<path d="M211.5 3.526C210.5 5.99743 209.35 8.32904 208.244 10.709C207.153 13.0556 206.197 15.5489 205.218 17.9859C203.823 21.4561 202.021 24.6442 200.304 27.8097C199.727 28.8732 199.051 29.7176 198.363 30.6501C197.965 31.1901 197.5 31.766 197.5 32.5749" stroke="black" stroke-linecap="round" stroke-linejoin="round"/>
<path d="M213.5 3.526C212.214 7.22351 210.989 10.9039 209.268 14.2494C208.146 16.432 207.132 18.7239 205.998 20.8939C204.855 23.081 203.595 25.1424 202.473 27.3492C201.947 28.3834 201.026 28.8427 200.449 29.8025C200.075 30.4256 199.5 31.7422 199.5 32.5749" stroke="black" stroke-linecap="round" stroke-linejoin="round"/>
<path d="M201.5 32.5749C202.698 29.687 203.934 26.8451 205.277 24.0842C206.696 21.1682 208.048 18.168 209.574 15.3581C209.975 14.6186 210.429 13.9408 210.805 13.1736C211.205 12.3579 211.544 11.4828 211.978 10.7006C212.474 9.80542 213.03 8.9689 213.544 8.09216C214.634 6.23264 215.289 3.96521 216.5 2.26294" stroke="black" stroke-linecap="round" stroke-linejoin="round"/>
<path d="M203.5 32.5749C204.151 31.4812 204.87 30.4521 205.553 29.3934C207.617 26.1965 209.908 23.1911 211.841 19.8603C213.306 17.3359 214.712 14.7837 216.252 12.3329C217.109 10.9704 218.103 9.73817 218.898 8.31562C219.796 6.71084 220.705 5.18321 221.5 3.526" stroke="black" stroke-linecap="round" stroke-linejoin="round"/>
<path d="M205.5 31.3119C207.627 27.1501 210.091 23.2934 212.013 18.9267C212.895 16.9242 213.756 14.9421 214.775 13.0752C215.69 11.3984 216.475 9.59577 217.387 7.91766C218.158 6.49889 218.771 4.92427 219.5 3.526" stroke="black" stroke-linecap="round" stroke-linejoin="round"/>
<path d="M204.5 30.0489C205.31 28.5476 206.059 26.9664 206.938 25.5411C207.865 24.0363 208.848 22.6006 209.777 21.0973C211.042 19.0519 212.01 16.7497 213.068 14.487C214.011 12.4714 214.878 10.4544 215.654 8.30176C216.054 7.19095 216.455 6.06688 216.868 4.96455C217.039 4.50805 217.387 4.00858 217.5 3.526" stroke="black" stroke-linecap="round" stroke-linejoin="round"/>
<path d="M207.5 32.5749C208.749 30.3545 210.118 28.2637 211.308 25.9808C212.042 24.5718 212.666 23.0749 213.346 21.6194C214.12 19.9643 215.007 18.4271 215.876 16.8647C216.924 14.9818 217.747 12.8812 218.799 11.0167C219.413 9.92925 220.152 8.95822 220.714 7.81798C221.505 6.21113 222.597 4.99359 223.5 3.526" stroke="black" stroke-linecap="round" stroke-linejoin="round"/>
<path d="M209.5 33.8379C210.35 32.069 211.212 30.3638 212.246 28.7886C213.551 26.8007 214.942 24.9285 216.234 22.9231C218.407 19.5499 220.06 15.7606 221.892 12.0448C222.803 10.1951 223.334 7.95326 224.358 6.2098C224.775 5.49847 225.133 4.74198 225.538 4.0171C225.884 3.39751 226.244 2.97529 226.5 2.26294" stroke="black" stroke-linecap="round" stroke-linejoin="round"/>
<path d="M210.5 33.8379C211.916 30.8883 213.579 28.2602 215.238 25.5465C216.651 23.2337 218.028 20.7898 218.967 18.0738C219.267 17.2039 219.425 16.2749 219.745 15.4016C220.245 14.0318 220.571 12.5693 221.105 11.215C221.68 9.75372 222.527 8.65442 223.3 7.3968C223.798 6.58705 224.074 5.62977 224.5 4.78894" stroke="black" stroke-linecap="round" stroke-linejoin="round"/>
<path d="M212.5 33.8379C213.569 31.7833 214.605 29.7354 215.775 27.7824C217.116 25.5461 218.483 23.3477 219.718 20.994C220.557 19.3943 221.325 17.7266 222.153 16.116C223.138 14.198 224.209 12.3679 225.116 10.3729C225.63 9.24164 226.116 8.08748 226.649 6.97275C227.274 5.66809 228.123 4.70208 228.781 3.45241C228.996 3.04449 229.263 2.59149 229.5 2.26294" stroke="black" stroke-linecap="round" stroke-linejoin="round"/>
</svg>
