<svg width="137" height="115" viewBox="0 0 137 115" fill="none" xmlns="http://www.w3.org/2000/svg">
<g clip-path="url(#clip0_1136_1720)">
<path d="M35.7304 38.55L52.5204 34L58.7704 35.66L60.6104 30.04L65.1903 31L73.1903 28.7L96.2003 31L104.75 33.63L108.3 31.56L115.52 36.43L119.71 32L124.47 31C124.47 31 127.85 33.24 129.74 33.18C131.136 33.0606 132.495 32.67 133.74 32.03C128.24 31.52 126.92 27.39 126.92 27.39L117.7 29.67L115 32.36L108 28L104.52 30.07L97.1804 27.78L87.6104 27.09L73.0004 26L64.5004 28.24L58.8304 28L57.0004 32.59L53.1003 31L35.7304 34.94L30.2804 32L25.9204 33.2L21.1104 35.11H30.0004L35.7304 38.55Z" fill="white"/>
<path d="M23.63 100.98L21.28 98.8001L18.3 89.0001L21.28 83.2101L22.37 79.4801L18.81 74.6701L18.3 69.4001L17.15 65.9001L20.39 61.7701L19.73 59.4801L17.15 57.3001L18.53 51.3401L25.4 45.7201L23.63 41.9401L23.5 37.5801L21.11 35.1201L20.48 41.9401L22.26 45.7201L15.38 51.3401L14 57.3001L16.58 59.4801L17.24 61.7701L14 65.9001L15.15 69.4001L15.66 74.6701L19.22 79.4801L18.13 83.2101L15.15 89.0001L18.13 98.8001L20.48 100.98L18.36 104.76L20.76 109.18L21.51 104.76L23.63 100.98Z" fill="white"/>
<path d="M129.34 80.34L131 71.52L135.47 65.15L132.61 59.31L135.13 57.47V53.34L133.18 48.53L135.13 44.52L133.69 31.96L131.34 36.89L132.2 43.6L129.91 48.93L132.41 53.69V56.1L129.45 57.24L132.17 64.35L128.65 69.91L126.01 79.83L133.64 96.22L133.58 102.59L136.5 96.39L129.34 80.34Z" fill="white"/>
<path d="M119.94 98.3401L115.87 97.8901L111.22 103.33L106.92 101.9L101.92 104.82C101.116 103.118 100.109 101.519 98.9198 100.06C96.8498 97.5401 91.5198 97.3101 91.5198 97.3101L85.9598 102.82L83.9598 106.89L78.6298 106.37L72.7298 111.64L66.5898 108.78L56.5898 109.64L52.0598 111.36L46.0598 107.11L40.0598 109.58L33.1798 109.18L27.8498 105.51L20.7598 109.18L27.6398 108.66L32.0598 112.16L40.5998 112.45L45.4098 110.84L51.7198 114.62L56.7198 112.45L66.6298 111.76L73.1698 114.62L79.7598 109.35L85.4898 109.64L87.4898 105.45L92.1898 100.45C92.1898 100.45 96.8898 101.88 98.3798 104.58C99.0471 106.035 100.262 107.167 101.76 107.73L106.69 105.15L111.8 106.47L116.8 100.68L120.07 101.19L126.78 98.7901L133.6 102.63V102.26L126.95 95.1201L119.94 98.3401Z" fill="white"/>
<path d="M126 79.8302L128.64 69.9102L132.17 64.3502L129.44 57.2402L132.44 56.1002V53.6902L129.95 48.9302L132.24 43.6002L131.38 36.8902L133.69 32.0002C132.445 32.6402 131.086 33.0308 129.69 33.1502C127.8 33.2102 124.42 30.9702 124.42 30.9702L119.66 31.9702L115.47 36.4402L108.3 31.5602L104.75 33.6202L96.2004 31.0002L73.2004 28.7002L65.2004 31.0002L60.6204 30.0802L58.7704 35.6902L52.5204 34.0002L35.7304 38.5502L30.0004 35.1102H21.1104L23.5004 37.5802L23.6304 41.9402L25.4004 45.7202L18.5304 51.3402L17.1504 57.3402L19.7304 59.5202L20.3904 61.8102L17.1504 65.9002L18.3004 69.3902L18.8104 74.6702L22.3704 79.4802L21.2804 83.2102L18.3004 89.0002L21.3004 98.8002L23.6304 101L21.5104 104.76L20.7604 109.18L27.9304 105.51L33.2604 109.18L40.1404 109.58L46.1404 107.11L52.1404 111.36L56.6704 109.64L66.6704 108.78L72.8104 111.64L78.7104 106.37L84.0404 106.89L86.0404 102.82L91.6004 97.3102C91.6004 97.3102 96.9304 97.5402 99.0004 100.06C100.189 101.52 101.197 103.118 102 104.82L107 101.9L111.3 103.33L115.95 97.8902L120.02 98.3402L127.02 95.0802L133.67 102.22L133.73 96.2202L126 79.8302Z" fill="#F3F3F3"/>
<path d="M23 38L123 38" stroke="#D0E5F9"/>
<path d="M23 52L123 52" stroke="#D0E5F9"/>
<path d="M23 66L123 66" stroke="#D0E5F9"/>
<path d="M23 80L123 80" stroke="#D0E5F9"/>
<path d="M23 94L123 94" stroke="#D0E5F9"/>
<path d="M23 105L78 105" stroke="#D0E5F9"/>
</g>
<g filter="url(#filter0_d_1136_1720)">
<path d="M4.57838 22.6348C4.80262 22.5207 5.25349 22.2828 5.27191 22.2405C5.32307 22.27 5.43626 22.2952 5.47959 22.1619C5.52291 22.0286 5.76439 21.9785 5.87945 21.97L5.89997 21.9609L6.34856 21.6767C6.31669 21.6664 6.22628 21.5423 6.20162 21.5411L6.14362 21.5381C6.17236 21.4634 6.24152 21.3096 6.28901 21.2884C6.35195 21.2614 7.6408 21.028 7.16917 20.7683L7.15328 20.7326L7.30851 20.6635C7.5185 20.665 7.98445 20.6187 8.1705 20.4219L9.35368 19.91C9.61149 19.838 10.1834 19.691 10.4078 19.6823C10.4127 19.661 10.4276 19.6168 10.4466 19.6084C10.4715 19.5989 10.7011 19.7655 10.7121 19.7895C10.7227 19.8133 11.0431 19.6991 11.1528 19.5933C11.2627 19.487 11.5893 18.9713 12.0056 18.786C12.0878 18.6496 12.3741 18.3569 12.8626 18.2762C13.3512 18.1953 13.7476 17.873 13.8846 17.7217C13.9219 17.7194 14.0359 17.6885 14.1942 17.5839C14.3925 17.4528 14.5828 17.2395 14.8499 17.2631C14.9989 17.0209 15.3538 16.5374 15.5823 16.5383C15.8678 16.5393 15.9684 16.5086 16.2184 16.6538C16.2313 16.629 16.2724 16.5756 16.3337 16.5597C16.411 16.5402 16.7264 16.6414 16.7859 16.6149C16.8336 16.5938 17.0043 16.5838 17.0842 16.5815C17.1428 16.5744 17.2768 16.5274 17.3435 16.3955C17.4267 16.2302 17.6758 15.7626 18.1785 15.9949C18.4414 15.9443 19.0615 15.7613 19.44 15.4332C19.9132 15.0231 20.4354 14.819 20.4552 14.7674C20.475 14.7159 20.6708 14.7709 20.7858 14.6769C20.9013 14.5828 21.5877 14.2063 21.7536 14.2888C22.0064 14.1525 22.5424 13.8782 22.6646 13.8692C22.8167 13.8585 23.1543 14.0072 23.3408 14.0097C23.5271 14.0122 23.9036 13.9305 24.0019 13.958C24.0998 13.9857 24.2957 14.1691 24.5733 13.8319C24.5852 13.8266 24.7826 13.9806 24.9241 13.8179C25.0652 13.6555 25.0576 13.7018 25.0814 13.6912C25.1073 13.6805 25.7145 13.6368 26.2728 13.2602C26.3103 13.2053 26.3796 13.0846 26.3584 13.0371C26.3893 13.0424 26.4692 13.0419 26.5411 12.9985C26.6131 12.9551 26.6906 12.8417 26.7201 12.7906C26.8878 12.7396 27.2624 12.6 27.4231 12.4487C27.6238 12.2597 27.5716 12.5251 28.169 12.0738C28.7661 11.6228 28.5869 11.7311 28.9026 11.7045C29.2278 11.5169 29.9527 11.1343 30.2479 11.1055C30.4195 10.9673 30.8137 10.6798 31.021 10.633C31.2802 10.5746 31.4618 10.565 31.4737 10.5597C31.4847 10.5492 31.4636 10.3095 31.6371 10.2881C31.813 10.2668 32.2077 10.5753 32.3928 10.3504C32.4788 10.4261 32.7998 10.394 33.3973 9.66053C33.5077 9.56693 33.7941 9.41167 34.0559 9.53834C34.1661 9.42275 34.5197 9.1697 35.0508 9.08147C35.6298 8.78107 35.8034 9.07385 36.0994 8.71401C36.2388 8.77075 36.5885 8.78135 36.8729 8.36964C37.0317 8.2989 37.411 8.07351 37.6594 7.73513C37.66 7.73615 37.6632 7.73628 37.6662 7.73849L37.2697 7.32815C37.2626 7.3322 37.257 7.33359 37.2521 7.33173C37.2246 7.32118 37.045 7.27194 36.9585 7.24863C37.1312 6.94401 38.0692 6.65913 38.5171 6.55472C38.6725 6.31447 39.2013 6.00779 39.4459 5.88462C39.8668 5.95906 40.2288 5.53131 40.3575 5.30773C40.5682 5.49902 40.7498 5.28036 40.8141 5.1472C40.9515 4.89227 41.1172 5.01701 41.1829 5.11126C41.2283 4.93147 41.3395 4.91804 41.3894 4.93384C41.884 4.9559 42.0643 4.97575 42.1146 4.89638C42.1646 4.81739 42.2288 4.80263 42.2646 4.78681C42.2932 4.7741 42.381 4.80116 42.4211 4.81656C42.4427 4.81163 42.4818 4.78091 42.4671 4.69665C42.4523 4.61214 42.5215 4.34957 42.558 4.22858C42.6763 3.98223 43.0135 4.16279 43.1676 4.2843L43.3289 4.07032C43.4991 3.81208 43.6165 3.74305 43.6536 3.74081C43.7542 3.68496 44.0066 3.79675 44.1204 3.86009C44.1852 3.58925 44.4017 3.30814 44.7386 3.58482C45.0753 3.86163 45.3921 3.29568 45.4407 3.27222C45.561 3.08222 45.6733 3.11168 45.7146 3.15028C46.2688 3.37077 46.4791 3.30902 46.515 3.2504C46.8814 2.97343 46.9967 3.08302 47.0085 3.17284L47.3447 3.09478C47.3897 3.04063 47.6234 2.90857 47.7347 2.84951C48.0531 3.02685 48.5394 2.74846 48.7432 2.58649C48.9451 2.14314 49.4279 2.1914 49.6439 2.27098L50.1603 2.08384L61.1172 26.6934L15.4399 47.0302L4.57838 22.6348ZM6.52944 21.5619C6.51518 21.5651 6.50043 21.5686 6.48572 21.5718C6.44669 21.5892 6.37009 21.6325 6.36115 21.6689L6.52944 21.5619Z" fill="#F3F3F3"/>
</g>
<defs>
<filter id="filter0_d_1136_1720" x="0.578125" y="0.0839844" width="64.5391" height="52.9463" filterUnits="userSpaceOnUse" color-interpolation-filters="sRGB">
<feFlood flood-opacity="0" result="BackgroundImageFix"/>
<feColorMatrix in="SourceAlpha" type="matrix" values="0 0 0 0 0 0 0 0 0 0 0 0 0 0 0 0 0 0 127 0" result="hardAlpha"/>
<feOffset dy="2"/>
<feGaussianBlur stdDeviation="2"/>
<feComposite in2="hardAlpha" operator="out"/>
<feColorMatrix type="matrix" values="0 0 0 0 0 0 0 0 0 0 0 0 0 0 0 0 0 0 0.55 0"/>
<feBlend mode="normal" in2="BackgroundImageFix" result="effect1_dropShadow_1136_1720"/>
<feBlend mode="normal" in="SourceGraphic" in2="effect1_dropShadow_1136_1720" result="shape"/>
</filter>
<clipPath id="clip0_1136_1720">
<rect width="122.5" height="88.62" fill="white" transform="translate(14 26)"/>
</clipPath>
</defs>
</svg>
