<svg width="257" height="129" viewBox="0 0 257 129" fill="none" xmlns="http://www.w3.org/2000/svg">
<path d="M254 126.206C213.322 126.206 173.777 126.099 132.323 126.099C114.525 126.099 98.3528 126.223 80.491 126.223C68.905 126.223 57.319 126.753 45.7331 126.753C33.247 126.753 18.2867 126.337 5.99428 127" stroke="black" stroke-width="2" stroke-linecap="round" stroke-linejoin="round"/>
<path d="M254 126.603C253.899 125.905 254 107.032 254 96.4408C252.821 86.4099 253.5 76.0931 253.5 64.6908C253.5 45.0421 251.633 22.299 251.633 2.70228" stroke="black" stroke-width="2" stroke-linecap="round" stroke-linejoin="round"/>
<path d="M251.633 2.70215C227.898 2.70215 205.066 2.70215 179.532 2.70215C158.184 2.70215 138.241 3.70215 116.473 3.70215C106.285 3.70215 94.8928 2.70215 84.7047 2.70215C74.8452 2.70215 59.2366 2.70215 47.8708 2.70215C28.6393 2.70215 11.8567 2.70215 1.99983 2.70215" stroke="black" stroke-width="2" stroke-linecap="round" stroke-linejoin="round"/>
<path d="M4.5 127.397C4.49999 116.702 2.59174 107.528 2.59173 97.0334C2.59172 85.6279 2.59171 74.2224 2.5917 62.817C2.59168 41.9631 1.00006 23.2591 1.00004 2.70224" stroke="black" stroke-width="2" stroke-linecap="round" stroke-linejoin="round"/>
<path d="M1.99987 31.5248C4.74732 63.1031 4.74728 95.7361 4.74731 127" stroke="black" stroke-linecap="round" stroke-linejoin="round"/>
<path d="M254.5 6.74702C254.5 39.6876 248 96.0439 256 126.603" stroke="black" stroke-width="0.5" stroke-linecap="round" stroke-linejoin="round"/>
<path d="M253 1.98457C254 32.5439 254.5 94.5457 254.5 125.81" stroke="black" stroke-linecap="round" stroke-linejoin="round"/>
</svg>
