<svg width="264" height="204" viewBox="0 0 264 204" fill="none" xmlns="http://www.w3.org/2000/svg">
<g filter="url(#filter0_d_1127_1651)">
<path d="M6.5 19H87L120 23L168 19H246.5L242 184H124.5L78.5 179L53 186L3 184L6.5 19Z" fill="#F4F4F4"/>
<path d="M86.9365 20L119.88 23.9932L119.981 24.0049L120.083 23.9961L168.036 20H245.472L241.026 183H124.555L78.6084 178.006L78.4189 177.985L78.2354 178.036L52.8857 184.994L4.02051 183.04L7.47949 20H86.9365Z" stroke="black" stroke-width="2"/>
</g>
<path d="M9.50007 21C10.3874 64.94 5.00007 140.462 5.00007 182" stroke="black" stroke-linecap="round" stroke-linejoin="round"/>
<path d="M244.629 19C244.629 61.2847 237.082 120.117 241 182.5" stroke="black" stroke-width="0.5" stroke-linecap="round" stroke-linejoin="round"/>
<path d="M244.5 19C245.833 59.2276 241 141.845 241 183" stroke="black" stroke-linecap="round" stroke-linejoin="round"/>
<path d="M88.5 7L132.399 3.875L177.5 0V24.9107L130 28.5L88.5 31V7Z" fill="#FFE7A8"/>
<defs>
<filter id="filter0_d_1127_1651" x="0" y="17" width="263.5" height="187" filterUnits="userSpaceOnUse" color-interpolation-filters="sRGB">
<feFlood flood-opacity="0" result="BackgroundImageFix"/>
<feColorMatrix in="SourceAlpha" type="matrix" values="0 0 0 0 0 0 0 0 0 0 0 0 0 0 0 0 0 0 127 0" result="hardAlpha"/>
<feOffset dx="7" dy="8"/>
<feGaussianBlur stdDeviation="5"/>
<feColorMatrix type="matrix" values="0 0 0 0 0 0 0 0 0 0 0 0 0 0 0 0 0 0 0.25 0"/>
<feBlend mode="normal" in2="BackgroundImageFix" result="effect1_dropShadow_1127_1651"/>
<feBlend mode="normal" in="SourceGraphic" in2="effect1_dropShadow_1127_1651" result="shape"/>
</filter>
</defs>
</svg>
